<?xml version="1.0" encoding="utf-8"?>
<!-- Generator: Adobe Illustrator 19.1.0, SVG Export Plug-In . SVG Version: 6.00 Build 0)  -->
<svg version="1.1" id="Layer_1" xmlns="http://www.w3.org/2000/svg" xmlns:xlink="http://www.w3.org/1999/xlink" x="0px" y="0px"
	 width="230px" height="230px" viewBox="0 0 230 230" enable-background="new 0 0 230 230" xml:space="preserve">
<g>
	<rect x="1" y="1.354" fill="#FBF9F9" width="228" height="227.646"/>
	<path fill="#D3D3D4" d="M228,2.354V228H2V2.354H228 M230,0.354H0V230h230V0.354L230,0.354z"/>
</g>
<g>
	<g id="POLYLINE_518_">
		<path fill="#0F4A75" d="M113.88,75.238c-0.092,0-0.167-0.073-0.169-0.165l-0.766-27.315c-0.003-0.094,0.071-0.172,0.165-0.174
			c0.097-0.002,0.172,0.071,0.174,0.165l0.766,27.315c0.003,0.094-0.071,0.172-0.165,0.174
			C113.884,75.238,113.882,75.238,113.88,75.238z"/>
	</g>
	<g id="POLYLINE_517_">
		<path fill="#0F4A75" d="M112.785,75.284c-0.089,0-0.164-0.07-0.169-0.16l-1.968-35.049c-0.005-0.094,0.066-0.174,0.16-0.179
			c0.094-0.01,0.174,0.066,0.179,0.16l1.968,35.049c0.005,0.094-0.066,0.174-0.16,0.179
			C112.792,75.284,112.788,75.284,112.785,75.284z"/>
	</g>
	<g id="POLYLINE_516_">
		<path fill="#0F4A75" d="M111.692,75.361c-0.087,0-0.161-0.067-0.169-0.155l-1.818-21.56c-0.008-0.093,0.061-0.175,0.155-0.183
			c0.093-0.006,0.175,0.061,0.183,0.155l1.818,21.56c0.008,0.093-0.061,0.175-0.155,0.183
			C111.701,75.361,111.696,75.361,111.692,75.361z"/>
	</g>
	<g id="POLYLINE_515_">
		<path fill="#0F4A75" d="M110.601,75.469c-0.085,0-0.159-0.064-0.168-0.151l-2.985-26.493c-0.01-0.093,0.056-0.177,0.15-0.188
			c0.094-0.011,0.177,0.056,0.188,0.149l2.985,26.493c0.01,0.093-0.056,0.177-0.15,0.188
			C110.613,75.468,110.607,75.469,110.601,75.469z"/>
	</g>
	<g id="POLYLINE_514_">
		<path fill="#0F4A75" d="M109.513,75.606c-0.083,0-0.156-0.061-0.168-0.146l-3.375-23.905c-0.013-0.093,0.051-0.178,0.144-0.192
			c0.093-0.011,0.179,0.052,0.192,0.144l3.375,23.905c0.013,0.093-0.051,0.178-0.144,0.192
			C109.529,75.606,109.521,75.606,109.513,75.606z"/>
	</g>
	<g id="POLYLINE_513_">
		<path fill="#0F4A75" d="M108.43,75.775c-0.081,0-0.153-0.059-0.167-0.141l-4.027-23.703c-0.016-0.092,0.046-0.18,0.139-0.196
			c0.093-0.015,0.18,0.047,0.196,0.139l4.027,23.703c0.016,0.092-0.046,0.18-0.139,0.196
			C108.449,75.774,108.439,75.775,108.43,75.775z"/>
	</g>
	<g id="POLYLINE_512_">
		<path fill="#0F4A75" d="M107.352,75.974c-0.079,0-0.15-0.056-0.166-0.137l-4.194-21.083c-0.018-0.092,0.041-0.181,0.133-0.2
			c0.091-0.017,0.181,0.041,0.199,0.133l4.194,21.083c0.018,0.092-0.041,0.181-0.133,0.2
			C107.374,75.973,107.363,75.974,107.352,75.974z"/>
	</g>
	<g id="POLYLINE_511_">
		<path fill="#0F4A75" d="M106.28,76.203c-0.077,0-0.147-0.053-0.165-0.132l-4.051-17.749c-0.021-0.091,0.036-0.182,0.128-0.203
			c0.092-0.021,0.182,0.036,0.203,0.128l4.051,17.749c0.021,0.091-0.036,0.182-0.128,0.203
			C106.305,76.201,106.292,76.203,106.28,76.203z"/>
	</g>
	<g id="POLYLINE_510_">
		<path fill="#0F4A75" d="M105.215,76.461c-0.075,0-0.144-0.051-0.164-0.127l-4.686-18.166c-0.023-0.091,0.031-0.183,0.122-0.207
			c0.09-0.024,0.183,0.031,0.207,0.122l4.686,18.166c0.023,0.091-0.031,0.183-0.122,0.207
			C105.243,76.46,105.229,76.461,105.215,76.461z"/>
	</g>
	<g id="POLYLINE_509_">
		<path fill="#0F4A75" d="M104.157,76.75c-0.074,0-0.142-0.048-0.163-0.123L91.969,34.888c-0.026-0.09,0.026-0.184,0.116-0.21
			c0.09-0.026,0.184,0.026,0.21,0.116l12.025,41.739c0.026,0.09-0.026,0.184-0.116,0.21C104.189,76.748,104.173,76.75,104.157,76.75
			z"/>
	</g>
	<g id="POLYLINE_508_">
		<path fill="#0F4A75" d="M103.108,77.068c-0.072,0-0.139-0.046-0.162-0.118l-6.423-20.153c-0.028-0.089,0.021-0.184,0.11-0.213
			c0.089-0.028,0.185,0.021,0.213,0.11l6.423,20.153c0.028,0.089-0.021,0.184-0.11,0.213
			C103.143,77.066,103.125,77.068,103.108,77.068z"/>
	</g>
	<g id="POLYLINE_507_">
		<path fill="#0F4A75" d="M102.068,77.416c-0.07,0-0.136-0.044-0.16-0.114l-8.053-23.016c-0.031-0.088,0.016-0.185,0.104-0.216
			c0.089-0.032,0.185,0.016,0.216,0.104l8.053,23.016c0.031,0.088-0.016,0.185-0.104,0.216
			C102.106,77.413,102.087,77.416,102.068,77.416z"/>
	</g>
	<g id="POLYLINE_506_">
		<path fill="#0F4A75" d="M101.039,77.792c-0.068,0-0.133-0.042-0.158-0.109l-8.222-21.538c-0.033-0.087,0.01-0.186,0.098-0.219
			c0.087-0.033,0.186,0.011,0.219,0.098l8.222,21.538c0.033,0.087-0.01,0.186-0.098,0.219
			C101.08,77.789,101.059,77.792,101.039,77.792z"/>
	</g>
	<g id="POLYLINE_505_">
		<path fill="#0F4A75" d="M100.021,78.198c-0.067,0-0.13-0.039-0.157-0.105L91.68,58.335c-0.036-0.087,0.005-0.186,0.092-0.222
			c0.087-0.036,0.186,0.005,0.222,0.092l8.184,19.758c0.036,0.087-0.005,0.186-0.092,0.222
			C100.064,78.193,100.042,78.198,100.021,78.198z"/>
	</g>
	<g id="POLYLINE_504_">
		<path fill="#0F4A75" d="M99.014,78.631c-0.065,0-0.127-0.037-0.155-0.1l-9.23-20.627c-0.038-0.085,0-0.186,0.086-0.224
			c0.086-0.038,0.186,0,0.224,0.086l9.23,20.627c0.038,0.085,0,0.186-0.086,0.224C99.06,78.627,99.037,78.631,99.014,78.631z"/>
	</g>
	<g id="POLYLINE_503_">
		<path fill="#0F4A75" d="M98.019,79.093c-0.063,0-0.124-0.035-0.153-0.096L87.819,58.133c-0.041-0.085-0.005-0.186,0.079-0.227
			c0.084-0.041,0.186-0.005,0.226,0.079L98.172,78.85c0.041,0.085,0.005,0.186-0.079,0.227
			C98.069,79.088,98.044,79.093,98.019,79.093z"/>
	</g>
	<g id="POLYLINE_502_">
		<path fill="#0F4A75" d="M97.039,79.583c-0.061,0-0.121-0.033-0.151-0.092l-7.96-15.407c-0.043-0.083-0.01-0.186,0.073-0.229
			c0.083-0.042,0.186-0.01,0.229,0.073l7.96,15.407c0.043,0.083,0.01,0.186-0.073,0.229C97.091,79.576,97.065,79.583,97.039,79.583z
			"/>
	</g>
	<g id="POLYLINE_501_">
		<path fill="#0F4A75" d="M96.072,80.099c-0.06,0-0.118-0.032-0.149-0.087l-11.46-20.735c-0.045-0.082-0.016-0.185,0.066-0.231
			c0.082-0.045,0.185-0.016,0.231,0.066l11.46,20.735c0.045,0.082,0.016,0.185-0.066,0.231C96.128,80.093,96.1,80.099,96.072,80.099
			z"/>
	</g>
	<g id="POLYLINE_500_">
		<path fill="#0F4A75" d="M95.12,80.643c-0.058,0-0.115-0.03-0.146-0.083L74.92,46.564c-0.048-0.081-0.021-0.185,0.06-0.232
			c0.081-0.047,0.185-0.021,0.232,0.06l20.053,33.996c0.048,0.081,0.021,0.185-0.06,0.232C95.179,80.635,95.149,80.643,95.12,80.643
			z"/>
	</g>
	<g id="POLYLINE_499_">
		<path fill="#0F4A75" d="M94.184,81.213c-0.056,0-0.112-0.028-0.144-0.079L70.787,44.127c-0.05-0.079-0.026-0.184,0.053-0.234
			c0.079-0.049,0.184-0.026,0.234,0.053l23.253,37.006c0.05,0.079,0.026,0.184-0.053,0.234
			C94.246,81.205,94.215,81.213,94.184,81.213z"/>
	</g>
	<g id="POLYLINE_498_">
		<path fill="#0F4A75" d="M93.264,81.809c-0.055,0-0.108-0.027-0.141-0.075L65.236,40c-0.052-0.078-0.031-0.183,0.047-0.235
			c0.078-0.052,0.183-0.031,0.235,0.047l27.886,41.735c0.052,0.078,0.031,0.183-0.047,0.235
			C93.329,81.8,93.296,81.809,93.264,81.809z"/>
	</g>
	<g id="POLYLINE_497_">
		<path fill="#0F4A75" d="M92.361,82.431c-0.053,0-0.105-0.025-0.138-0.072l-22.776-32.1c-0.054-0.076-0.036-0.182,0.04-0.236
			c0.076-0.054,0.182-0.036,0.236,0.04l22.776,32.1c0.054,0.076,0.036,0.182-0.04,0.236C92.429,82.421,92.395,82.431,92.361,82.431z
			"/>
	</g>
	<g id="POLYLINE_496_">
		<path fill="#0F4A75" d="M91.476,83.078c-0.051,0-0.102-0.023-0.136-0.068L65.289,48.394c-0.056-0.075-0.041-0.181,0.034-0.237
			c0.075-0.056,0.181-0.042,0.237,0.033l26.051,34.616c0.056,0.075,0.041,0.181-0.034,0.237
			C91.547,83.067,91.511,83.078,91.476,83.078z"/>
	</g>
	<g id="POLYLINE_495_">
		<path fill="#0F4A75" d="M90.609,83.749c-0.05,0-0.099-0.022-0.133-0.064L72.313,60.909c-0.058-0.073-0.046-0.18,0.027-0.238
			c0.073-0.059,0.18-0.047,0.238,0.027l18.164,22.776c0.058,0.073,0.046,0.18-0.027,0.238
			C90.684,83.737,90.646,83.749,90.609,83.749z"/>
	</g>
	<g id="POLYLINE_494_">
		<path fill="#0F4A75" d="M89.762,84.445c-0.048,0-0.096-0.02-0.13-0.06L77.695,70.248c-0.06-0.072-0.051-0.179,0.02-0.239
			c0.072-0.06,0.179-0.051,0.239,0.02l11.937,14.136c0.06,0.072,0.051,0.179-0.02,0.239C89.839,84.431,89.8,84.445,89.762,84.445z"
			/>
	</g>
	<g id="POLYLINE_493_">
		<path fill="#0F4A75" d="M88.934,85.164c-0.047,0-0.093-0.019-0.127-0.057L71.245,65.455c-0.062-0.07-0.056-0.177,0.013-0.239
			c0.07-0.062,0.177-0.056,0.24,0.014l17.562,19.652c0.062,0.07,0.056,0.177-0.013,0.239C89.015,85.149,88.974,85.164,88.934,85.164
			z"/>
	</g>
	<g id="POLYLINE_492_">
		<path fill="#0F4A75" d="M88.127,85.905c-0.045,0-0.09-0.018-0.123-0.053L66.522,63.13c-0.064-0.068-0.061-0.175,0.007-0.24
			c0.068-0.064,0.175-0.061,0.24,0.007L88.25,85.619c0.064,0.068,0.061,0.175-0.007,0.24C88.211,85.89,88.169,85.905,88.127,85.905z
			"/>
	</g>
	<g id="POLYLINE_491_">
		<path fill="#0F4A75" d="M87.341,86.67c-0.043,0-0.087-0.016-0.12-0.05L70.8,70.199c-0.066-0.066-0.066-0.174,0-0.24
			s0.174-0.066,0.24,0L87.461,86.38c0.066,0.066,0.066,0.174,0,0.24C87.428,86.653,87.385,86.67,87.341,86.67z"/>
	</g>
	<g id="POLYLINE_490_">
		<path fill="#0F4A75" d="M86.577,87.455c-0.042,0-0.084-0.015-0.117-0.046l-26.761-25.3c-0.068-0.064-0.071-0.172-0.007-0.24
			c0.064-0.068,0.172-0.071,0.24-0.007l26.761,25.3c0.068,0.064,0.071,0.172,0.007,0.24C86.667,87.438,86.622,87.455,86.577,87.455z
			"/>
	</g>
	<g id="POLYLINE_489_">
		<path fill="#0F4A75" d="M85.835,88.263c-0.04,0-0.081-0.014-0.113-0.043l-9.689-8.659c-0.07-0.062-0.076-0.17-0.013-0.239
			c0.062-0.07,0.17-0.076,0.24-0.014l9.689,8.659c0.07,0.062,0.076,0.17,0.013,0.239C85.928,88.244,85.882,88.263,85.835,88.263z"/>
	</g>
	<g id="POLYLINE_488_">
		<path fill="#0F4A75" d="M85.116,89.09c-0.039,0-0.078-0.013-0.109-0.04l-13.04-11.011c-0.072-0.06-0.081-0.168-0.02-0.239
			c0.06-0.072,0.167-0.08,0.239-0.02l13.04,11.011c0.072,0.06,0.081,0.168,0.02,0.239C85.212,89.07,85.164,89.09,85.116,89.09z"/>
	</g>
	<g id="POLYLINE_487_">
		<path fill="#0F4A75" d="M84.421,89.938c-0.037,0-0.074-0.012-0.106-0.037L66.411,75.622c-0.073-0.058-0.085-0.165-0.027-0.238
			c0.058-0.073,0.165-0.085,0.238-0.027l17.904,14.278c0.073,0.058,0.085,0.165,0.027,0.238
			C84.52,89.916,84.47,89.938,84.421,89.938z"/>
	</g>
	<g id="POLYLINE_486_">
		<path fill="#0F4A75" d="M83.749,90.804c-0.036,0-0.071-0.011-0.102-0.034L56.967,70.691c-0.075-0.056-0.09-0.162-0.034-0.237
			c0.056-0.075,0.163-0.09,0.237-0.033l26.681,20.079c0.075,0.056,0.09,0.162,0.034,0.237
			C83.851,90.781,83.801,90.804,83.749,90.804z"/>
	</g>
	<g id="POLYLINE_485_">
		<path fill="#0F4A75" d="M83.102,91.689c-0.034,0-0.068-0.01-0.098-0.031L62.728,77.271c-0.076-0.054-0.094-0.16-0.04-0.236
			c0.054-0.076,0.16-0.095,0.236-0.04l20.277,14.387c0.076,0.054,0.094,0.16,0.04,0.236C83.208,91.664,83.156,91.689,83.102,91.689z
			"/>
	</g>
	<g id="POLYLINE_484_">
		<path fill="#0F4A75" d="M82.481,92.592c-0.032,0-0.065-0.009-0.094-0.029L65.765,81.457c-0.078-0.052-0.099-0.157-0.047-0.235
			c0.052-0.078,0.157-0.099,0.235-0.047l16.622,11.106c0.078,0.052,0.099,0.157,0.047,0.235
			C82.589,92.566,82.535,92.592,82.481,92.592z"/>
	</g>
	<g id="POLYLINE_483_">
		<path fill="#0F4A75" d="M81.884,93.512c-0.031,0-0.062-0.008-0.09-0.026l-14.266-8.964c-0.079-0.05-0.103-0.155-0.053-0.234
			c0.05-0.079,0.155-0.103,0.234-0.053l14.266,8.964c0.079,0.05,0.103,0.155,0.053,0.234C81.996,93.484,81.941,93.512,81.884,93.512
			z"/>
	</g>
	<g id="POLYLINE_482_">
		<path fill="#0F4A75" d="M81.314,94.448c-0.029,0-0.059-0.008-0.086-0.024L51.733,77.026c-0.081-0.047-0.107-0.152-0.06-0.232
			c0.048-0.081,0.152-0.107,0.232-0.06l29.495,17.399c0.081,0.047,0.107,0.152,0.06,0.232
			C81.429,94.419,81.372,94.448,81.314,94.448z"/>
	</g>
	<g id="POLYLINE_481_">
		<path fill="#0F4A75" d="M80.771,95.4c-0.028,0-0.056-0.007-0.082-0.021L61.062,84.532c-0.082-0.045-0.112-0.148-0.066-0.231
			c0.045-0.082,0.149-0.111,0.231-0.066l19.627,10.847c0.082,0.045,0.112,0.148,0.066,0.231C80.888,95.369,80.83,95.4,80.771,95.4z"
			/>
	</g>
	<g id="POLYLINE_480_">
		<path fill="#0F4A75" d="M80.254,96.367c-0.026,0-0.053-0.006-0.078-0.019l-14.142-7.306c-0.083-0.043-0.116-0.146-0.073-0.229
			c0.043-0.083,0.145-0.115,0.229-0.073l14.142,7.306c0.083,0.043,0.116,0.146,0.073,0.229
			C80.374,96.334,80.315,96.367,80.254,96.367z"/>
	</g>
	<g id="POLYLINE_479_">
		<path fill="#0F4A75" d="M79.764,97.348c-0.025,0-0.05-0.005-0.073-0.017L45.314,80.776c-0.084-0.041-0.12-0.142-0.079-0.227
			c0.041-0.084,0.142-0.12,0.226-0.079l34.377,16.555c0.084,0.041,0.12,0.142,0.079,0.227
			C79.888,97.313,79.828,97.348,79.764,97.348z"/>
	</g>
	<g id="POLYLINE_478_">
		<path fill="#0F4A75" d="M79.303,98.342c-0.023,0-0.047-0.005-0.069-0.015l-16.937-7.579c-0.085-0.038-0.124-0.139-0.086-0.224
			c0.038-0.086,0.139-0.124,0.224-0.086l16.937,7.579c0.085,0.038,0.124,0.139,0.086,0.224
			C79.43,98.305,79.368,98.342,79.303,98.342z"/>
	</g>
	<g id="POLYLINE_477_">
		<path fill="#0F4A75" d="M78.869,99.349c-0.022,0-0.044-0.004-0.065-0.013L50.492,87.609c-0.087-0.036-0.128-0.135-0.092-0.222
			c0.036-0.086,0.135-0.128,0.222-0.092l28.312,11.727c0.087,0.036,0.128,0.135,0.092,0.222
			C78.999,99.31,78.936,99.349,78.869,99.349z"/>
	</g>
	<g id="POLYLINE_476_">
		<path fill="#0F4A75" d="M78.464,100.367c-0.02,0-0.041-0.003-0.061-0.011l-59.01-22.525c-0.088-0.033-0.131-0.131-0.098-0.219
			c0.033-0.087,0.131-0.131,0.219-0.098l59.01,22.525c0.088,0.033,0.131,0.131,0.098,0.219
			C78.596,100.326,78.532,100.367,78.464,100.367z"/>
	</g>
	<g id="POLYLINE_475_">
		<path fill="#0F4A75" d="M78.087,101.397c-0.019,0-0.038-0.003-0.056-0.01L29.396,84.369c-0.088-0.031-0.135-0.128-0.104-0.216
			c0.031-0.089,0.128-0.136,0.216-0.104l48.636,17.018c0.088,0.031,0.135,0.128,0.104,0.216
			C78.223,101.353,78.157,101.397,78.087,101.397z"/>
	</g>
	<g id="POLYLINE_474_">
		<path fill="#0F4A75" d="M77.74,102.437c-0.017,0-0.034-0.003-0.052-0.008L42.652,91.262c-0.089-0.029-0.139-0.124-0.11-0.213
			c0.028-0.089,0.124-0.138,0.213-0.11l35.036,11.167c0.089,0.029,0.139,0.124,0.11,0.213
			C77.878,102.391,77.812,102.437,77.74,102.437z"/>
	</g>
	<g id="POLYLINE_473_">
		<path fill="#0F4A75" d="M77.422,103.486c-0.016,0-0.031-0.002-0.047-0.007l-15.703-4.524c-0.09-0.026-0.142-0.12-0.116-0.21
			c0.026-0.09,0.12-0.142,0.21-0.116l15.703,4.524c0.09,0.026,0.142,0.12,0.116,0.21C77.563,103.438,77.495,103.486,77.422,103.486z
			"/>
	</g>
	<g id="POLYLINE_472_">
		<path fill="#0F4A75" d="M77.133,104.544c-0.014,0-0.028-0.002-0.042-0.005l-25.947-6.693c-0.091-0.024-0.145-0.116-0.122-0.207
			c0.023-0.091,0.116-0.146,0.207-0.122l25.947,6.693c0.091,0.024,0.145,0.116,0.122,0.207
			C77.277,104.493,77.209,104.544,77.133,104.544z"/>
	</g>
	<g id="POLYLINE_471_">
		<path fill="#0F4A75" d="M76.874,105.608c-0.012,0-0.025-0.001-0.038-0.004l-31.09-7.096c-0.091-0.021-0.148-0.112-0.128-0.203
			c0.021-0.091,0.111-0.149,0.203-0.128l31.09,7.096c0.091,0.021,0.148,0.112,0.128,0.203
			C77.021,105.555,76.952,105.608,76.874,105.608z"/>
	</g>
	<g id="POLYLINE_470_">
		<path fill="#0F4A75" d="M76.645,106.681c-0.011,0-0.022-0.001-0.033-0.003l-12.365-2.46c-0.092-0.018-0.152-0.108-0.133-0.2
			c0.018-0.092,0.108-0.151,0.199-0.133l12.365,2.46c0.092,0.018,0.152,0.108,0.133,0.2
			C76.795,106.625,76.724,106.681,76.645,106.681z"/>
	</g>
	<g id="POLYLINE_469_">
		<path fill="#0F4A75" d="M76.446,107.759c-0.009,0-0.019-0.001-0.029-0.002l-24.72-4.2c-0.092-0.016-0.155-0.103-0.139-0.196
			c0.016-0.092,0.103-0.155,0.196-0.139l24.72,4.2c0.092,0.016,0.155,0.103,0.139,0.196C76.599,107.7,76.528,107.759,76.446,107.759
			z"/>
	</g>
	<g id="POLYLINE_468_">
		<path fill="#0F4A75" d="M76.278,108.842c-0.008,0-0.016-0.001-0.024-0.002l-36.216-5.113c-0.093-0.013-0.157-0.099-0.144-0.192
			c0.013-0.093,0.099-0.156,0.192-0.144l36.216,5.113c0.093,0.013,0.157,0.099,0.144,0.192
			C76.434,108.781,76.361,108.842,76.278,108.842z"/>
	</g>
	<g id="POLYLINE_467_">
		<path fill="#0F4A75" d="M76.14,109.929c-0.006,0-0.013,0-0.019-0.001l-13.951-1.572c-0.093-0.011-0.16-0.094-0.15-0.188
			c0.01-0.093,0.095-0.161,0.188-0.149l13.951,1.572c0.093,0.011,0.16,0.094,0.15,0.188
			C76.299,109.865,76.225,109.929,76.14,109.929z"/>
	</g>
	<g id="POLYLINE_466_">
		<path fill="#0F4A75" d="M76.033,111.02c-0.005,0-0.01,0-0.014-0.001l-7.559-0.637c-0.093-0.008-0.163-0.09-0.155-0.183
			c0.008-0.093,0.09-0.16,0.183-0.155l7.559,0.637c0.093,0.008,0.163,0.09,0.155,0.183C76.194,110.953,76.12,111.02,76.033,111.02z"
			/>
	</g>
	<g id="POLYLINE_465_">
		<path fill="#0F4A75" d="M75.956,112.114c-0.003,0-0.006,0-0.01,0l-19.379-1.088c-0.093-0.005-0.165-0.085-0.16-0.179
			c0.005-0.094,0.085-0.165,0.179-0.16l19.379,1.088c0.093,0.005,0.165,0.085,0.16,0.179
			C76.12,112.044,76.045,112.114,75.956,112.114z"/>
	</g>
	<g id="POLYLINE_464_">
		<path fill="#0F4A75" d="M75.91,113.209c-0.002,0-0.003,0-0.005,0l-18.04-0.506c-0.094-0.003-0.167-0.081-0.165-0.174
			c0.003-0.094,0.079-0.166,0.174-0.165l18.04,0.506c0.094,0.003,0.167,0.081,0.165,0.174
			C76.076,113.136,76.001,113.209,75.91,113.209z"/>
	</g>
	<g id="POLYLINE_463_">
		<path fill="#0F4A75" d="M75.894,114.305H44.755c-0.094,0-0.17-0.076-0.17-0.17c0-0.094,0.076-0.17,0.17-0.17h31.139
			c0.094,0,0.17,0.076,0.17,0.17C76.064,114.229,75.988,114.305,75.894,114.305z"/>
	</g>
	<g id="POLYLINE_462_">
		<path fill="#0F4A75" d="M61.611,115.803c-0.092,0-0.167-0.073-0.169-0.165c-0.003-0.094,0.071-0.172,0.165-0.174l14.298-0.401
			c0.098-0.001,0.172,0.071,0.174,0.165c0.003,0.094-0.071,0.172-0.165,0.174l-14.298,0.401
			C61.614,115.803,61.613,115.803,61.611,115.803z"/>
	</g>
	<g id="POLYLINE_461_">
		<path fill="#0F4A75" d="M50.347,117.935c-0.089,0-0.164-0.07-0.169-0.16c-0.005-0.094,0.066-0.174,0.16-0.179l25.609-1.438
			c0.094-0.011,0.174,0.066,0.179,0.16c0.005,0.094-0.066,0.174-0.16,0.179l-25.609,1.438
			C50.353,117.935,50.35,117.935,50.347,117.935z"/>
	</g>
	<g id="POLYLINE_460_">
		<path fill="#0F4A75" d="M51.008,119.701c-0.087,0-0.161-0.067-0.169-0.155c-0.008-0.093,0.061-0.175,0.155-0.183l25.025-2.111
			c0.094-0.006,0.175,0.061,0.183,0.155c0.008,0.093-0.061,0.175-0.155,0.183L51.022,119.7
			C51.017,119.701,51.012,119.701,51.008,119.701z"/>
	</g>
	<g id="POLYLINE_459_">
		<path fill="#0F4A75" d="M68.768,119.512c-0.085,0-0.159-0.064-0.168-0.151c-0.01-0.093,0.056-0.177,0.15-0.188l7.372-0.831
			c0.093-0.01,0.177,0.056,0.188,0.149c0.01,0.093-0.056,0.177-0.15,0.188l-7.372,0.831
			C68.781,119.511,68.774,119.512,68.768,119.512z"/>
	</g>
	<g id="POLYLINE_458_">
		<path fill="#0F4A75" d="M66.364,121.168c-0.083,0-0.156-0.061-0.168-0.146c-0.013-0.093,0.051-0.178,0.144-0.192l9.914-1.399
			c0.093-0.012,0.179,0.052,0.192,0.144c0.013,0.093-0.051,0.178-0.144,0.192l-9.914,1.399
			C66.38,121.168,66.372,121.168,66.364,121.168z"/>
	</g>
	<g id="POLYLINE_457_">
		<path fill="#0F4A75" d="M59.879,123.667c-0.081,0-0.153-0.059-0.167-0.141c-0.016-0.092,0.046-0.18,0.139-0.196l16.567-2.815
			c0.093-0.015,0.18,0.047,0.196,0.139c0.016,0.092-0.046,0.18-0.139,0.196l-16.567,2.815
			C59.898,123.666,59.889,123.667,59.879,123.667z"/>
	</g>
	<g id="POLYLINE_456_">
		<path fill="#0F4A75" d="M56.25,125.987c-0.079,0-0.15-0.056-0.166-0.136c-0.018-0.092,0.041-0.181,0.133-0.2l20.395-4.057
			c0.091-0.018,0.181,0.042,0.199,0.133c0.018,0.092-0.041,0.181-0.133,0.2l-20.395,4.057
			C56.272,125.986,56.261,125.987,56.25,125.987z"/>
	</g>
	<g id="POLYLINE_455_">
		<path fill="#0F4A75" d="M56.774,127.59c-0.077,0-0.147-0.053-0.165-0.132c-0.021-0.091,0.036-0.182,0.128-0.203l20.1-4.588
			c0.092-0.021,0.182,0.036,0.203,0.128c0.021,0.091-0.036,0.182-0.128,0.203l-20.1,4.588
			C56.799,127.588,56.786,127.59,56.774,127.59z"/>
	</g>
	<g id="POLYLINE_454_">
		<path fill="#0F4A75" d="M55.153,129.737c-0.075,0-0.144-0.051-0.164-0.127c-0.023-0.091,0.031-0.183,0.122-0.207l21.98-5.67
			c0.09-0.024,0.183,0.031,0.207,0.122c0.023,0.091-0.031,0.183-0.122,0.207l-21.98,5.67
			C55.181,129.735,55.167,129.737,55.153,129.737z"/>
	</g>
	<g id="POLYLINE_453_">
		<path fill="#0F4A75" d="M56.054,131.281c-0.074,0-0.142-0.048-0.163-0.123c-0.026-0.09,0.026-0.184,0.116-0.21l21.367-6.156
			c0.09-0.026,0.184,0.026,0.21,0.116c0.026,0.09-0.026,0.184-0.116,0.21l-21.367,6.156
			C56.085,131.278,56.07,131.281,56.054,131.281z"/>
	</g>
	<g id="POLYLINE_452_">
		<path fill="#0F4A75" d="M45.726,136.378c-0.072,0-0.139-0.046-0.162-0.118c-0.028-0.089,0.021-0.184,0.11-0.213l32.014-10.204
			c0.089-0.028,0.185,0.021,0.213,0.11c0.028,0.089-0.021,0.184-0.11,0.213L45.777,136.37
			C45.76,136.375,45.743,136.378,45.726,136.378z"/>
	</g>
	<g id="POLYLINE_451_">
		<path fill="#0F4A75" d="M60.693,133.3c-0.07,0-0.136-0.044-0.16-0.114c-0.031-0.088,0.016-0.185,0.104-0.216l17.395-6.087
			c0.088-0.032,0.185,0.016,0.216,0.104c0.031,0.088-0.016,0.185-0.104,0.216l-17.395,6.087
			C60.73,133.297,60.711,133.3,60.693,133.3z"/>
	</g>
	<g id="POLYLINE_450_">
		<path fill="#0F4A75" d="M60.792,134.989c-0.068,0-0.133-0.042-0.158-0.109c-0.033-0.087,0.01-0.186,0.098-0.219l17.672-6.746
			c0.087-0.034,0.186,0.011,0.219,0.098c0.033,0.087-0.01,0.186-0.098,0.219l-17.672,6.746
			C60.832,134.985,60.812,134.989,60.792,134.989z"/>
	</g>
	<g id="POLYLINE_449_">
		<path fill="#0F4A75" d="M61.748,136.353c-0.067,0-0.13-0.039-0.157-0.105c-0.036-0.087,0.005-0.186,0.092-0.222l17.121-7.092
			c0.087-0.036,0.186,0.005,0.222,0.092c0.036,0.087-0.005,0.186-0.092,0.222l-17.121,7.092
			C61.792,136.349,61.77,136.353,61.748,136.353z"/>
	</g>
	<g id="POLYLINE_448_">
		<path fill="#0F4A75" d="M67.663,135.476c-0.065,0-0.127-0.037-0.155-0.1c-0.038-0.085,0-0.186,0.086-0.224l11.639-5.208
			c0.085-0.038,0.186,0,0.224,0.086c0.038,0.085,0,0.186-0.086,0.224l-11.639,5.208C67.71,135.472,67.687,135.476,67.663,135.476z"
			/>
	</g>
	<g id="POLYLINE_447_">
		<path fill="#0F4A75" d="M63.436,139.126c-0.063,0-0.124-0.035-0.153-0.096c-0.041-0.085-0.005-0.186,0.079-0.227l16.328-7.863
			c0.084-0.041,0.186-0.005,0.226,0.079c0.041,0.085,0.005,0.186-0.079,0.227l-16.328,7.863
			C63.486,139.121,63.461,139.126,63.436,139.126z"/>
	</g>
	<g id="POLYLINE_446_">
		<path fill="#0F4A75" d="M56.378,144.578c-0.061,0-0.121-0.033-0.151-0.092c-0.043-0.083-0.01-0.186,0.073-0.229l23.876-12.335
			c0.083-0.043,0.186-0.01,0.229,0.073c0.043,0.083,0.01,0.186-0.073,0.229l-23.876,12.335
			C56.431,144.572,56.404,144.578,56.378,144.578z"/>
	</g>
	<g id="POLYLINE_445_">
		<path fill="#0F4A75" d="M57.594,146.019c-0.06,0-0.118-0.032-0.149-0.087c-0.045-0.082-0.016-0.185,0.066-0.231l23.177-12.809
			c0.082-0.045,0.185-0.016,0.231,0.066c0.045,0.082,0.016,0.185-0.066,0.231l-23.177,12.809
			C57.65,146.013,57.622,146.019,57.594,146.019z"/>
	</g>
	<g id="POLYLINE_444_">
		<path fill="#0F4A75" d="M47.613,154.042c-0.058,0-0.115-0.03-0.146-0.083c-0.048-0.081-0.021-0.185,0.06-0.232l33.701-19.879
			c0.081-0.047,0.185-0.021,0.232,0.06c0.048,0.081,0.021,0.185-0.06,0.232l-33.701,19.879
			C47.672,154.034,47.643,154.042,47.613,154.042z"/>
	</g>
	<g id="POLYLINE_443_">
		<path fill="#0F4A75" d="M66.18,144.966c-0.056,0-0.112-0.028-0.144-0.08c-0.05-0.079-0.026-0.184,0.053-0.234l15.704-9.868
			c0.079-0.049,0.184-0.026,0.234,0.054c0.05,0.079,0.026,0.184-0.053,0.234L66.27,144.94
			C66.242,144.958,66.211,144.966,66.18,144.966z"/>
	</g>
	<g id="POLYLINE_442_">
		<path fill="#0F4A75" d="M65.895,147.101c-0.055,0-0.108-0.027-0.141-0.075c-0.052-0.078-0.031-0.183,0.047-0.235l16.586-11.083
			c0.078-0.052,0.183-0.031,0.235,0.047c0.052,0.078,0.031,0.183-0.047,0.235l-16.586,11.083
			C65.96,147.092,65.927,147.101,65.895,147.101z"/>
	</g>
	<g id="POLYLINE_441_">
		<path fill="#0F4A75" d="M51.55,159.309c-0.053,0-0.105-0.025-0.138-0.072c-0.054-0.076-0.036-0.182,0.04-0.236l31.553-22.388
			c0.076-0.054,0.182-0.036,0.236,0.04c0.054,0.076,0.036,0.182-0.04,0.236l-31.553,22.388
			C51.618,159.299,51.583,159.309,51.55,159.309z"/>
	</g>
	<g id="POLYLINE_440_">
		<path fill="#0F4A75" d="M64.107,152.589c-0.051,0-0.102-0.023-0.136-0.068c-0.056-0.075-0.041-0.181,0.034-0.237l19.643-14.783
			c0.075-0.057,0.181-0.041,0.237,0.033c0.056,0.075,0.041,0.181-0.034,0.237l-19.643,14.783
			C64.178,152.578,64.142,152.589,64.107,152.589z"/>
	</g>
	<g id="POLYLINE_439_">
		<path fill="#0F4A75" d="M64.346,154.682c-0.05,0-0.099-0.022-0.133-0.064c-0.058-0.073-0.046-0.18,0.027-0.238l20.074-16.009
			c0.073-0.059,0.18-0.047,0.238,0.027c0.058,0.073,0.046,0.18-0.027,0.238l-20.074,16.009
			C64.421,154.669,64.384,154.682,64.346,154.682z"/>
	</g>
	<g id="POLYLINE_438_">
		<path fill="#0F4A75" d="M70.033,152.257c-0.048,0-0.096-0.02-0.13-0.06c-0.06-0.072-0.051-0.179,0.02-0.239l15.083-12.736
			c0.072-0.06,0.179-0.051,0.239,0.02c0.06,0.072,0.051,0.179-0.02,0.239l-15.083,12.736
			C70.111,152.243,70.072,152.257,70.033,152.257z"/>
	</g>
	<g id="POLYLINE_437_">
		<path fill="#0F4A75" d="M68.898,155.484c-0.047,0-0.093-0.019-0.127-0.057c-0.062-0.07-0.056-0.177,0.013-0.239l16.937-15.136
			c0.07-0.062,0.177-0.056,0.24,0.014c0.062,0.07,0.056,0.177-0.013,0.239L69.011,155.44
			C68.979,155.469,68.938,155.484,68.898,155.484z"/>
	</g>
	<g id="POLYLINE_436_">
		<path fill="#0F4A75" d="M69.913,156.909c-0.045,0-0.09-0.018-0.123-0.053c-0.064-0.068-0.061-0.175,0.007-0.24l16.664-15.754
			c0.068-0.064,0.175-0.061,0.24,0.007c0.064,0.068,0.061,0.175-0.007,0.24L70.03,156.863
			C69.997,156.894,69.955,156.909,69.913,156.909z"/>
	</g>
	<g id="POLYLINE_435_">
		<path fill="#0F4A75" d="M73.483,155.799c-0.043,0-0.087-0.016-0.12-0.05c-0.066-0.066-0.066-0.174,0-0.24l13.858-13.858
			c0.066-0.066,0.174-0.066,0.24,0c0.066,0.066,0.066,0.174,0,0.24l-13.858,13.858C73.57,155.782,73.527,155.799,73.483,155.799z"/>
	</g>
	<g id="POLYLINE_434_">
		<path fill="#0F4A75" d="M68.351,163.623c-0.042,0-0.084-0.015-0.117-0.046c-0.068-0.064-0.071-0.172-0.007-0.24l19.776-20.918
			c0.064-0.068,0.172-0.071,0.24-0.007c0.068,0.064,0.071,0.172,0.007,0.24L68.474,163.57
			C68.441,163.605,68.396,163.623,68.351,163.623z"/>
	</g>
	<g id="POLYLINE_433_">
		<path fill="#0F4A75" d="M67.621,167.296c-0.04,0-0.081-0.014-0.113-0.043c-0.07-0.062-0.076-0.17-0.013-0.239l21.313-23.849
			c0.062-0.07,0.169-0.076,0.24-0.014c0.07,0.062,0.076,0.17,0.013,0.239l-21.313,23.849
			C67.714,167.277,67.668,167.296,67.621,167.296z"/>
	</g>
	<g id="POLYLINE_432_">
		<path fill="#0F4A75" d="M39.332,203.887c-0.039,0-0.078-0.013-0.109-0.04c-0.072-0.06-0.081-0.167-0.02-0.239l50.43-59.721
			c0.06-0.072,0.167-0.081,0.239-0.02c0.072,0.06,0.081,0.168,0.02,0.239l-50.43,59.721
			C39.428,203.866,39.38,203.887,39.332,203.887z"/>
	</g>
	<g id="POLYLINE_431_">
		<path fill="#0F4A75" d="M57.208,186.745c-0.037,0-0.074-0.012-0.106-0.037c-0.073-0.058-0.085-0.165-0.027-0.238l33.401-41.883
			c0.058-0.073,0.165-0.085,0.238-0.027c0.073,0.058,0.085,0.165,0.027,0.238l-33.401,41.883
			C57.308,186.723,57.258,186.745,57.208,186.745z"/>
	</g>
	<g id="POLYLINE_430_">
		<path fill="#0F4A75" d="M73.163,169.865c-0.036,0-0.071-0.011-0.102-0.034c-0.075-0.056-0.09-0.162-0.034-0.237l18.312-24.333
			c0.056-0.075,0.163-0.09,0.237-0.033c0.075,0.056,0.09,0.162,0.034,0.237l-18.312,24.333
			C73.266,169.842,73.215,169.865,73.163,169.865z"/>
	</g>
	<g id="POLYLINE_429_">
		<path fill="#0F4A75" d="M77.251,167.475c-0.034,0-0.068-0.01-0.098-0.031c-0.076-0.054-0.094-0.16-0.04-0.236l15.11-21.295
			c0.054-0.077,0.16-0.095,0.236-0.04c0.076,0.054,0.094,0.16,0.04,0.236l-15.11,21.295
			C77.356,167.45,77.304,167.475,77.251,167.475z"/>
	</g>
	<g id="POLYLINE_2_">
		<path fill="#0F4A75" d="M73.61,176.216c-0.032,0-0.065-0.009-0.094-0.029c-0.078-0.052-0.099-0.157-0.047-0.235l19.654-29.414
			c0.052-0.077,0.158-0.098,0.235-0.047c0.078,0.052,0.099,0.157,0.047,0.235L73.751,176.14
			C73.718,176.189,73.664,176.216,73.61,176.216z"/>
	</g>
	<g id="POLYLINE_296_">
		<path fill="#0F4A75" d="M80.663,168.914c-0.031,0-0.062-0.008-0.09-0.026c-0.079-0.05-0.103-0.155-0.053-0.234l13.52-21.517
			c0.05-0.08,0.155-0.103,0.234-0.054c0.079,0.05,0.103,0.155,0.053,0.234l-13.52,21.517
			C80.775,168.886,80.72,168.914,80.663,168.914z"/>
	</g>
	<g id="POLYLINE_297_">
		<path fill="#0F4A75" d="M74.179,183.467c-0.029,0-0.059-0.008-0.086-0.024c-0.081-0.047-0.107-0.152-0.06-0.232l20.941-35.5
			c0.048-0.081,0.152-0.107,0.232-0.06c0.081,0.047,0.107,0.152,0.06,0.232l-20.941,35.5
			C74.294,183.438,74.237,183.467,74.179,183.467z"/>
	</g>
	<g id="POLYLINE_298_">
		<path fill="#0F4A75" d="M81.593,174.709c-0.028,0-0.056-0.007-0.082-0.021c-0.082-0.045-0.112-0.148-0.066-0.231l14.479-26.197
			c0.045-0.082,0.149-0.111,0.231-0.066c0.082,0.045,0.112,0.148,0.066,0.231l-14.479,26.197
			C81.71,174.677,81.652,174.709,81.593,174.709z"/>
	</g>
	<g id="POLYLINE_299_">
		<path fill="#0F4A75" d="M74.538,192.582c-0.026,0-0.053-0.006-0.078-0.019c-0.083-0.043-0.116-0.146-0.073-0.229l22.501-43.554
			c0.043-0.083,0.145-0.115,0.229-0.073c0.083,0.043,0.116,0.146,0.073,0.229L74.689,192.49
			C74.658,192.549,74.599,192.582,74.538,192.582z"/>
	</g>
	<g id="POLYLINE_300_">
		<path fill="#0F4A75" d="M85.887,174.711c-0.025,0-0.05-0.005-0.073-0.017c-0.084-0.041-0.12-0.142-0.079-0.227l12.133-25.194
			c0.041-0.084,0.142-0.12,0.226-0.079c0.084,0.041,0.12,0.142,0.079,0.227L86.04,174.615
			C86.01,174.676,85.95,174.711,85.887,174.711z"/>
	</g>
	<g id="POLYLINE_301_">
		<path fill="#0F4A75" d="M79.919,192.651c-0.023,0-0.047-0.005-0.069-0.015c-0.085-0.038-0.124-0.139-0.086-0.224l19.094-42.672
			c0.038-0.086,0.139-0.124,0.224-0.086c0.085,0.038,0.124,0.139,0.086,0.224l-19.094,42.672
			C80.046,192.614,79.984,192.651,79.919,192.651z"/>
	</g>
	<g id="POLYLINE_302_">
		<path fill="#0F4A75" d="M92.075,169.596c-0.022,0-0.044-0.004-0.065-0.013c-0.087-0.036-0.128-0.135-0.092-0.222l7.946-19.183
			c0.036-0.086,0.135-0.127,0.222-0.092c0.087,0.036,0.128,0.135,0.092,0.222l-7.946,19.183
			C92.204,169.556,92.141,169.596,92.075,169.596z"/>
	</g>
	<g id="POLYLINE_303_">
		<path fill="#0F4A75" d="M93.192,171.375c-0.02,0-0.041-0.003-0.061-0.011c-0.088-0.033-0.131-0.131-0.098-0.219l7.847-20.557
			c0.033-0.087,0.131-0.131,0.219-0.098c0.088,0.033,0.131,0.131,0.098,0.219l-7.847,20.557
			C93.325,171.333,93.26,171.375,93.192,171.375z"/>
	</g>
	<g id="POLYLINE_304_">
		<path fill="#0F4A75" d="M88.315,190.501c-0.019,0-0.038-0.003-0.056-0.01c-0.088-0.031-0.135-0.128-0.104-0.216l13.754-39.306
			c0.031-0.089,0.128-0.136,0.216-0.104c0.088,0.031,0.135,0.128,0.104,0.216l-13.754,39.306
			C88.45,190.457,88.385,190.501,88.315,190.501z"/>
	</g>
	<g id="POLYLINE_305_">
		<path fill="#0F4A75" d="M91.422,188.206c-0.017,0-0.034-0.003-0.052-0.008c-0.089-0.029-0.139-0.124-0.11-0.213l11.686-36.664
			c0.028-0.089,0.124-0.138,0.213-0.11c0.089,0.029,0.139,0.124,0.11,0.213l-11.686,36.664
			C91.561,188.16,91.494,188.206,91.422,188.206z"/>
	</g>
	<g id="POLYLINE_306_">
		<path fill="#0F4A75" d="M94.828,184.243c-0.016,0-0.031-0.002-0.047-0.007c-0.09-0.026-0.142-0.12-0.116-0.21l9.329-32.383
			c0.026-0.09,0.12-0.142,0.21-0.116c0.09,0.026,0.142,0.12,0.116,0.21l-9.329,32.383C94.97,184.195,94.902,184.243,94.828,184.243z
			"/>
	</g>
	<g id="POLYLINE_307_">
		<path fill="#0F4A75" d="M97.198,183.227c-0.014,0-0.028-0.002-0.042-0.005c-0.091-0.024-0.145-0.116-0.122-0.207l8.017-31.078
			c0.023-0.091,0.116-0.146,0.207-0.122c0.091,0.024,0.145,0.116,0.122,0.207l-8.017,31.078
			C97.343,183.176,97.274,183.227,97.198,183.227z"/>
	</g>
	<g id="POLYLINE_308_">
		<path fill="#0F4A75" d="M92.894,211.056c-0.012,0-0.025-0.001-0.038-0.004c-0.091-0.021-0.148-0.112-0.128-0.203l13.386-58.648
			c0.021-0.091,0.111-0.149,0.203-0.128c0.091,0.021,0.148,0.112,0.128,0.203l-13.386,58.648
			C93.041,211.003,92.971,211.056,92.894,211.056z"/>
	</g>
	<g id="POLYLINE_309_">
		<path fill="#0F4A75" d="M101.398,182.571c-0.011,0-0.022-0.001-0.033-0.003c-0.092-0.018-0.152-0.108-0.133-0.2l5.954-29.934
			c0.018-0.092,0.108-0.151,0.199-0.133c0.092,0.018,0.152,0.108,0.133,0.2l-5.954,29.934
			C101.548,182.515,101.477,182.571,101.398,182.571z"/>
	</g>
	<g id="POLYLINE_310_">
		<path fill="#0F4A75" d="M103.372,182.604c-0.009,0-0.019-0.001-0.029-0.002c-0.092-0.016-0.155-0.103-0.139-0.196l5.058-29.769
			c0.016-0.092,0.103-0.155,0.196-0.139c0.092,0.016,0.155,0.103,0.139,0.196l-5.058,29.769
			C103.525,182.546,103.454,182.604,103.372,182.604z"/>
	</g>
	<g id="POLYLINE_311_">
		<path fill="#0F4A75" d="M104.794,186.434c-0.008,0-0.016-0.001-0.024-0.002c-0.093-0.013-0.157-0.099-0.144-0.192l4.719-33.43
			c0.013-0.093,0.099-0.155,0.192-0.144c0.093,0.013,0.157,0.099,0.144,0.192l-4.719,33.43
			C104.95,186.373,104.877,186.434,104.794,186.434z"/>
	</g>
	<g id="POLYLINE_312_">
		<path fill="#0F4A75" d="M107.455,181.061c-0.006,0-0.013,0-0.019-0.001c-0.093-0.011-0.16-0.094-0.15-0.188l3.146-27.918
			c0.01-0.093,0.094-0.161,0.188-0.149c0.093,0.011,0.16,0.094,0.15,0.188l-3.146,27.918
			C107.614,180.997,107.541,181.061,107.455,181.061z"/>
	</g>
	<g id="POLYLINE_313_">
		<path fill="#0F4A75" d="M109.835,175.263c-0.005,0-0.01,0-0.014-0.001c-0.093-0.008-0.163-0.09-0.155-0.183l1.857-22.014
			c0.008-0.093,0.09-0.158,0.183-0.155c0.093,0.008,0.163,0.09,0.155,0.183l-1.857,22.014
			C109.996,175.196,109.922,175.263,109.835,175.263z"/>
	</g>
	<g id="POLYLINE_314_">
		<path fill="#0F4A75" d="M111.707,172.529c-0.003,0-0.006,0-0.01,0c-0.093-0.005-0.165-0.085-0.16-0.179l1.078-19.202
			c0.005-0.094,0.084-0.17,0.179-0.16c0.093,0.005,0.165,0.085,0.16,0.179l-1.078,19.202
			C111.871,172.459,111.796,172.529,111.707,172.529z"/>
	</g>
	<g id="POLYLINE_315_">
		<path fill="#0F4A75" d="M113.152,179.322c-0.002,0-0.003,0-0.005,0c-0.094-0.003-0.167-0.081-0.165-0.174l0.728-25.95
			c0.003-0.094,0.078-0.167,0.174-0.165c0.094,0.003,0.167,0.081,0.165,0.174l-0.728,25.95
			C113.319,179.249,113.244,179.322,113.152,179.322z"/>
	</g>
	<g id="POLYLINE_316_">
		<path fill="#0F4A75" d="M114.977,181.474c-0.094,0-0.17-0.076-0.17-0.17v-28.086c0-0.094,0.076-0.17,0.17-0.17
			c0.094,0,0.17,0.076,0.17,0.17v28.086C115.146,181.397,115.07,181.474,114.977,181.474z"/>
	</g>
	<g id="POLYLINE_317_">
		<path fill="#0F4A75" d="M117.527,205.212c-0.092,0-0.167-0.073-0.17-0.165l-1.455-51.839c-0.003-0.094,0.071-0.172,0.165-0.174
			c0.099-0.003,0.172,0.071,0.174,0.165l1.455,51.839c0.003,0.094-0.071,0.172-0.165,0.174
			C117.53,205.212,117.529,205.212,117.527,205.212z"/>
	</g>
	<g id="POLYLINE_318_">
		<path fill="#0F4A75" d="M120.131,206.099c-0.089,0-0.164-0.07-0.169-0.16l-2.963-52.773c-0.005-0.094,0.066-0.174,0.16-0.179
			c0.095-0.01,0.174,0.066,0.179,0.16l2.963,52.773c0.005,0.094-0.066,0.174-0.16,0.179
			C120.138,206.099,120.135,206.099,120.131,206.099z"/>
	</g>
	<g id="POLYLINE_319_">
		<path fill="#0F4A75" d="M119.97,173.509c-0.087,0-0.161-0.067-0.169-0.155l-1.709-20.26c-0.008-0.093,0.061-0.175,0.155-0.183
			c0.093-0.003,0.175,0.061,0.183,0.155l1.709,20.26c0.008,0.093-0.061,0.175-0.155,0.183
			C119.98,173.509,119.975,173.509,119.97,173.509z"/>
	</g>
	<g id="POLYLINE_320_">
		<path fill="#0F4A75" d="M120.502,163.346c-0.085,0-0.159-0.064-0.168-0.151l-1.15-10.204c-0.01-0.093,0.056-0.177,0.15-0.188
			c0.094-0.011,0.177,0.056,0.188,0.149l1.149,10.204c0.01,0.093-0.056,0.177-0.15,0.188
			C120.515,163.346,120.508,163.346,120.502,163.346z"/>
	</g>
	<g id="POLYLINE_321_">
		<path fill="#0F4A75" d="M123.565,175.138c-0.083,0-0.156-0.061-0.168-0.146l-3.125-22.134c-0.013-0.093,0.051-0.178,0.144-0.192
			c0.093-0.011,0.179,0.052,0.192,0.144l3.125,22.134c0.013,0.093-0.051,0.178-0.144,0.192
			C123.581,175.138,123.573,175.138,123.565,175.138z"/>
	</g>
	<g id="POLYLINE_322_">
		<path fill="#0F4A75" d="M126.652,183.025c-0.081,0-0.153-0.059-0.167-0.141l-5.129-30.189c-0.016-0.092,0.046-0.18,0.139-0.196
			c0.093-0.015,0.18,0.047,0.196,0.139l5.129,30.189c0.016,0.092-0.046,0.18-0.139,0.196
			C126.671,183.024,126.662,183.025,126.652,183.025z"/>
	</g>
	<g id="POLYLINE_323_">
		<path fill="#0F4A75" d="M124.551,162.441c-0.079,0-0.15-0.056-0.166-0.136l-1.95-9.804c-0.018-0.092,0.041-0.181,0.133-0.2
			c0.091-0.018,0.181,0.042,0.199,0.133l1.95,9.804c0.018,0.092-0.041,0.181-0.133,0.2
			C124.573,162.44,124.562,162.441,124.551,162.441z"/>
	</g>
	<g id="POLYLINE_324_">
		<path fill="#0F4A75" d="M131.06,184.771c-0.077,0-0.147-0.053-0.165-0.132l-7.387-32.363c-0.021-0.091,0.036-0.182,0.128-0.203
			c0.092-0.02,0.182,0.036,0.203,0.128l7.387,32.363c0.021,0.091-0.036,0.182-0.128,0.203
			C131.085,184.77,131.072,184.771,131.06,184.771z"/>
	</g>
	<g id="POLYLINE_325_">
		<path fill="#0F4A75" d="M129.956,172.377c-0.075,0-0.144-0.051-0.164-0.127l-5.218-20.228c-0.023-0.091,0.031-0.183,0.122-0.207
			c0.091-0.024,0.183,0.031,0.207,0.122l5.218,20.228c0.023,0.091-0.031,0.183-0.122,0.207
			C129.984,172.375,129.97,172.377,129.956,172.377z"/>
	</g>
	<g id="POLYLINE_326_">
		<path fill="#0F4A75" d="M127.785,158.766c-0.074,0-0.142-0.048-0.163-0.123l-1.989-6.906c-0.026-0.09,0.026-0.184,0.116-0.21
			c0.091-0.026,0.184,0.026,0.21,0.116l1.989,6.906c0.026,0.09-0.026,0.184-0.116,0.21
			C127.817,158.764,127.801,158.766,127.785,158.766z"/>
	</g>
	<g id="POLYLINE_327_">
		<path fill="#0F4A75" d="M130.628,163.412c-0.072,0-0.139-0.046-0.162-0.118l-3.783-11.87c-0.028-0.089,0.021-0.184,0.11-0.213
			c0.089-0.027,0.185,0.021,0.213,0.11l3.783,11.87c0.028,0.089-0.021,0.184-0.11,0.213
			C130.663,163.41,130.645,163.412,130.628,163.412z"/>
	</g>
	<g id="POLYLINE_328_">
		<path fill="#0F4A75" d="M140.178,186.327c-0.07,0-0.136-0.044-0.16-0.114l-12.294-35.133c-0.031-0.088,0.016-0.185,0.104-0.216
			c0.088-0.032,0.185,0.016,0.216,0.104l12.294,35.133c0.031,0.088-0.016,0.185-0.104,0.216
			C140.216,186.324,140.197,186.327,140.178,186.327z"/>
	</g>
	<g id="POLYLINE_329_">
		<path fill="#0F4A75" d="M145.072,193.148c-0.068,0-0.133-0.042-0.159-0.109l-16.158-42.33c-0.033-0.087,0.01-0.186,0.098-0.219
			c0.087-0.034,0.186,0.011,0.219,0.098l16.158,42.33c0.033,0.087-0.01,0.186-0.098,0.219
			C145.113,193.145,145.093,193.148,145.072,193.148z"/>
	</g>
	<g id="POLYLINE_330_">
		<path fill="#0F4A75" d="M134.712,161.95c-0.067,0-0.13-0.039-0.157-0.105l-4.779-11.537c-0.036-0.087,0.005-0.186,0.092-0.222
			c0.087-0.036,0.186,0.005,0.222,0.092l4.779,11.537c0.036,0.087-0.005,0.186-0.092,0.222
			C134.755,161.946,134.733,161.95,134.712,161.95z"/>
	</g>
	<g id="POLYLINE_331_">
		<path fill="#0F4A75" d="M136.1,161.511c-0.065,0-0.127-0.037-0.155-0.1l-5.16-11.532c-0.038-0.085,0-0.186,0.086-0.224
			c0.086-0.038,0.186,0,0.224,0.086l5.16,11.532c0.038,0.085,0,0.186-0.086,0.224C136.147,161.506,136.123,161.511,136.1,161.511z"
			/>
	</g>
	<g id="POLYLINE_332_">
		<path fill="#0F4A75" d="M137.285,160.628c-0.063,0-0.124-0.035-0.153-0.096l-5.35-11.111c-0.041-0.085-0.005-0.186,0.079-0.227
			c0.084-0.041,0.186-0.005,0.226,0.079l5.35,11.111c0.041,0.085,0.005,0.186-0.079,0.227
			C137.334,160.623,137.309,160.628,137.285,160.628z"/>
	</g>
	<g id="POLYLINE_333_">
		<path fill="#0F4A75" d="M146.077,174.505c-0.061,0-0.121-0.033-0.151-0.092l-13.162-25.478c-0.043-0.083-0.01-0.186,0.073-0.229
			c0.083-0.043,0.186-0.01,0.229,0.073l13.162,25.478c0.043,0.083,0.01,0.186-0.073,0.229
			C146.13,174.499,146.103,174.505,146.077,174.505z"/>
	</g>
	<g id="POLYLINE_334_">
		<path fill="#0F4A75" d="M144.461,167.654c-0.06,0-0.118-0.032-0.149-0.087l-10.58-19.142c-0.045-0.082-0.016-0.185,0.066-0.231
			c0.082-0.045,0.185-0.016,0.231,0.066l10.58,19.142c0.045,0.082,0.016,0.185-0.066,0.231
			C144.517,167.647,144.489,167.654,144.461,167.654z"/>
	</g>
	<g id="POLYLINE_335_">
		<path fill="#0F4A75" d="M143.552,162.746c-0.058,0-0.115-0.03-0.146-0.083l-8.718-14.779c-0.048-0.081-0.021-0.185,0.06-0.232
			c0.081-0.047,0.185-0.021,0.232,0.06l8.718,14.779c0.048,0.081,0.021,0.185-0.06,0.232
			C143.611,162.739,143.581,162.746,143.552,162.746z"/>
	</g>
	<g id="POLYLINE_336_">
		<path fill="#0F4A75" d="M151.84,172.974c-0.056,0-0.112-0.028-0.144-0.08l-16.071-25.576c-0.05-0.08-0.026-0.184,0.053-0.234
			c0.079-0.049,0.184-0.026,0.234,0.054l16.071,25.576c0.05,0.08,0.026,0.184-0.053,0.234
			C151.903,172.965,151.871,172.974,151.84,172.974z"/>
	</g>
	<g id="POLYLINE_337_">
		<path fill="#0F4A75" d="M147.608,163.142c-0.055,0-0.108-0.027-0.141-0.075l-10.919-16.341c-0.052-0.078-0.031-0.183,0.047-0.235
			c0.078-0.052,0.183-0.031,0.235,0.047l10.919,16.341c0.052,0.078,0.031,0.183-0.047,0.235
			C147.674,163.133,147.641,163.142,147.608,163.142z"/>
	</g>
	<g id="POLYLINE_338_">
		<path fill="#0F4A75" d="M142.995,153.793c-0.053,0-0.105-0.025-0.138-0.072l-5.402-7.613c-0.054-0.076-0.036-0.182,0.04-0.236
			c0.076-0.054,0.182-0.036,0.236,0.04l5.402,7.613c0.054,0.076,0.036,0.182-0.04,0.236
			C143.063,153.783,143.029,153.793,142.995,153.793z"/>
	</g>
	<g id="POLYLINE_339_">
		<path fill="#0F4A75" d="M155.936,168.731c-0.051,0-0.102-0.023-0.136-0.068l-17.458-23.198c-0.056-0.075-0.041-0.181,0.034-0.237
			c0.075-0.057,0.181-0.042,0.237,0.033l17.458,23.198c0.056,0.075,0.041,0.181-0.034,0.237
			C156.007,168.72,155.971,168.731,155.936,168.731z"/>
	</g>
	<g id="POLYLINE_340_">
		<path fill="#0F4A75" d="M170.009,183.314c-0.05,0-0.099-0.022-0.133-0.064l-30.665-38.453c-0.058-0.073-0.046-0.18,0.027-0.238
			c0.073-0.059,0.18-0.047,0.238,0.027l30.665,38.453c0.058,0.073,0.046,0.18-0.027,0.238
			C170.083,183.302,170.046,183.314,170.009,183.314z"/>
	</g>
	<g id="POLYLINE_341_">
		<path fill="#0F4A75" d="M144.859,149.693c-0.048,0-0.096-0.02-0.13-0.06l-4.667-5.527c-0.06-0.072-0.051-0.179,0.02-0.239
			c0.072-0.06,0.179-0.052,0.239,0.02l4.667,5.527c0.06,0.072,0.051,0.179-0.02,0.239
			C144.936,149.68,144.898,149.693,144.859,149.693z"/>
	</g>
	<g id="POLYLINE_342_">
		<path fill="#0F4A75" d="M167.242,172.79c-0.047,0-0.093-0.019-0.127-0.057l-26.223-29.343c-0.062-0.07-0.056-0.177,0.013-0.239
			c0.07-0.062,0.177-0.056,0.24,0.014l26.223,29.343c0.062,0.07,0.056,0.177-0.013,0.239
			C167.323,172.776,167.282,172.79,167.242,172.79z"/>
	</g>
	<g id="POLYLINE_343_">
		<path fill="#0F4A75" d="M156.205,157.914c-0.045,0-0.09-0.018-0.123-0.053l-14.379-15.209c-0.064-0.068-0.061-0.175,0.007-0.24
			c0.068-0.064,0.176-0.061,0.24,0.007l14.379,15.209c0.064,0.068,0.061,0.175-0.007,0.24
			C156.289,157.899,156.247,157.914,156.205,157.914z"/>
	</g>
	<g id="POLYLINE_344_">
		<path fill="#0F4A75" d="M161.749,161.078c-0.043,0-0.087-0.016-0.12-0.05l-19.137-19.137c-0.066-0.066-0.066-0.174,0-0.24
			c0.066-0.066,0.174-0.066,0.24,0l19.137,19.137c0.066,0.066,0.066,0.174,0,0.24C161.836,161.061,161.792,161.078,161.749,161.078z
			"/>
	</g>
	<g id="POLYLINE_345_">
		<path fill="#0F4A75" d="M149.608,147.046c-0.042,0-0.084-0.015-0.117-0.046l-6.231-5.891c-0.068-0.064-0.071-0.172-0.007-0.24
			c0.064-0.068,0.172-0.071,0.24-0.007l6.231,5.891c0.068,0.064,0.071,0.172,0.007,0.24
			C149.698,147.028,149.653,147.046,149.608,147.046z"/>
	</g>
	<g id="POLYLINE_346_">
		<path fill="#0F4A75" d="M152.41,147.758c-0.04,0-0.081-0.014-0.113-0.043l-8.292-7.41c-0.07-0.062-0.076-0.17-0.013-0.239
			c0.062-0.07,0.17-0.076,0.24-0.014l8.292,7.41c0.07,0.062,0.076,0.17,0.013,0.239C152.503,147.739,152.456,147.758,152.41,147.758
			z"/>
	</g>
	<g id="POLYLINE_347_">
		<path fill="#0F4A75" d="M162.849,154.73c-0.039,0-0.078-0.013-0.109-0.04l-18.012-15.21c-0.072-0.06-0.081-0.168-0.02-0.239
			c0.06-0.072,0.167-0.08,0.239-0.02l18.012,15.21c0.072,0.06,0.081,0.167,0.02,0.239C162.945,154.71,162.897,154.73,162.849,154.73
			z"/>
	</g>
	<g id="POLYLINE_348_">
		<path fill="#0F4A75" d="M170.266,158.397c-0.037,0-0.074-0.012-0.106-0.037l-24.733-19.724c-0.073-0.058-0.085-0.165-0.027-0.238
			c0.058-0.073,0.165-0.085,0.238-0.027l24.733,19.724c0.073,0.058,0.085,0.165,0.027,0.238
			C170.365,158.375,170.316,158.397,170.266,158.397z"/>
	</g>
	<g id="POLYLINE_349_">
		<path fill="#0F4A75" d="M153.713,143.458c-0.036,0-0.071-0.011-0.102-0.034l-7.509-5.651c-0.075-0.056-0.09-0.162-0.034-0.237
			c0.056-0.075,0.163-0.09,0.237-0.033l7.509,5.651c0.075,0.056,0.09,0.162,0.034,0.237
			C153.815,143.434,153.764,143.458,153.713,143.458z"/>
	</g>
	<g id="POLYLINE_350_">
		<path fill="#0F4A75" d="M160.629,146.697c-0.034,0-0.068-0.01-0.098-0.031l-13.778-9.776c-0.076-0.054-0.094-0.16-0.04-0.236
			c0.054-0.077,0.16-0.095,0.236-0.04l13.778,9.776c0.076,0.054,0.094,0.16,0.04,0.236
			C160.734,146.673,160.682,146.697,160.629,146.697z"/>
	</g>
	<g id="POLYLINE_351_">
		<path fill="#0F4A75" d="M174.535,154.101c-0.032,0-0.065-0.009-0.094-0.029l-27.062-18.083c-0.078-0.052-0.099-0.157-0.047-0.235
			c0.052-0.078,0.158-0.098,0.235-0.047l27.062,18.083c0.078,0.052,0.099,0.157,0.047,0.235
			C174.643,154.074,174.59,154.101,174.535,154.101z"/>
	</g>
	<g id="POLYLINE_352_">
		<path fill="#0F4A75" d="M156.624,140.474c-0.031,0-0.062-0.008-0.09-0.026l-8.556-5.376c-0.079-0.05-0.103-0.155-0.053-0.234
			c0.05-0.08,0.155-0.103,0.234-0.054l8.556,5.376c0.079,0.05,0.103,0.155,0.053,0.234
			C156.736,140.446,156.681,140.474,156.624,140.474z"/>
	</g>
	<g id="POLYLINE_353_">
		<path fill="#0F4A75" d="M159.171,140.374c-0.029,0-0.059-0.008-0.086-0.024l-10.532-6.212c-0.081-0.047-0.107-0.152-0.06-0.232
			c0.048-0.081,0.152-0.107,0.232-0.06l10.532,6.212c0.081,0.047,0.107,0.152,0.06,0.232
			C159.285,140.345,159.229,140.374,159.171,140.374z"/>
	</g>
	<g id="POLYLINE_354_">
		<path fill="#0F4A75" d="M171.584,145.591c-0.028,0-0.056-0.007-0.082-0.021l-22.402-12.381c-0.082-0.045-0.112-0.148-0.066-0.231
			c0.045-0.082,0.149-0.111,0.231-0.066l22.402,12.381c0.082,0.045,0.112,0.148,0.066,0.231
			C171.702,145.56,171.644,145.591,171.584,145.591z"/>
	</g>
	<g id="POLYLINE_355_">
		<path fill="#0F4A75" d="M185.106,150.535c-0.026,0-0.053-0.006-0.078-0.019l-35.406-18.291c-0.083-0.043-0.116-0.146-0.073-0.229
			c0.043-0.083,0.145-0.115,0.229-0.073l35.406,18.291c0.083,0.043,0.116,0.146,0.073,0.229
			C185.226,150.501,185.167,150.535,185.106,150.535z"/>
	</g>
	<g id="POLYLINE_356_">
		<path fill="#0F4A75" d="M157.99,135.019c-0.025,0-0.05-0.005-0.073-0.017l-7.801-3.757c-0.084-0.041-0.12-0.142-0.079-0.227
			c0.041-0.084,0.142-0.12,0.226-0.079l7.801,3.757c0.084,0.041,0.12,0.142,0.079,0.227
			C158.113,134.984,158.053,135.019,157.99,135.019z"/>
	</g>
	<g id="POLYLINE_357_">
		<path fill="#0F4A75" d="M172.91,140.229c-0.023,0-0.047-0.005-0.069-0.015l-22.26-9.96c-0.085-0.038-0.124-0.139-0.086-0.224
			c0.038-0.086,0.139-0.124,0.224-0.086l22.26,9.96c0.085,0.038,0.124,0.139,0.086,0.224
			C173.037,140.191,172.975,140.229,172.91,140.229z"/>
	</g>
	<g id="POLYLINE_358_">
		<path fill="#0F4A75" d="M202.771,150.671c-0.022,0-0.044-0.004-0.065-0.013l-51.687-21.409c-0.087-0.036-0.128-0.135-0.092-0.222
			c0.036-0.086,0.135-0.127,0.222-0.092l51.687,21.409c0.087,0.036,0.128,0.135,0.092,0.222
			C202.9,150.631,202.837,150.671,202.771,150.671z"/>
	</g>
	<g id="POLYLINE_359_">
		<path fill="#0F4A75" d="M183.975,140.643c-0.02,0-0.041-0.003-0.061-0.011l-32.485-12.4c-0.088-0.033-0.131-0.131-0.098-0.219
			c0.033-0.087,0.132-0.132,0.219-0.098l32.485,12.4c0.088,0.033,0.131,0.131,0.098,0.219
			C184.107,140.602,184.043,140.643,183.975,140.643z"/>
	</g>
	<g id="POLYLINE_360_">
		<path fill="#0F4A75" d="M160.981,130.403c-0.019,0-0.037-0.003-0.056-0.01l-9.116-3.19c-0.088-0.031-0.135-0.128-0.104-0.216
			c0.031-0.089,0.128-0.136,0.216-0.104l9.116,3.19c0.088,0.031,0.135,0.128,0.104,0.216
			C161.117,130.359,161.052,130.403,160.981,130.403z"/>
	</g>
	<g id="POLYLINE_361_">
		<path fill="#0F4A75" d="M164.535,130.101c-0.017,0-0.034-0.003-0.052-0.008l-12.321-3.927c-0.089-0.029-0.139-0.124-0.11-0.213
			c0.028-0.089,0.124-0.138,0.213-0.11l12.321,3.927c0.089,0.029,0.139,0.124,0.11,0.213
			C164.673,130.055,164.607,130.101,164.535,130.101z"/>
	</g>
	<g id="POLYLINE_362_">
		<path fill="#0F4A75" d="M165.007,128.719c-0.016,0-0.031-0.002-0.047-0.007l-12.475-3.594c-0.09-0.026-0.142-0.12-0.116-0.21
			c0.026-0.09,0.12-0.142,0.21-0.116l12.475,3.594c0.09,0.026,0.142,0.12,0.116,0.21
			C165.149,128.671,165.081,128.719,165.007,128.719z"/>
	</g>
	<g id="POLYLINE_363_">
		<path fill="#0F4A75" d="M185.481,132.492c-0.014,0-0.028-0.002-0.042-0.005l-32.661-8.425c-0.091-0.024-0.145-0.116-0.122-0.207
			c0.023-0.091,0.116-0.146,0.207-0.122l32.661,8.425c0.091,0.024,0.145,0.116,0.122,0.207
			C185.626,132.441,185.557,132.492,185.481,132.492z"/>
	</g>
	<g id="POLYLINE_364_">
		<path fill="#0F4A75" d="M163.443,125.367c-0.012,0-0.025-0.001-0.038-0.004l-10.364-2.366c-0.091-0.021-0.148-0.112-0.128-0.203
			c0.021-0.091,0.111-0.149,0.203-0.128l10.364,2.366c0.091,0.021,0.148,0.112,0.128,0.203
			C163.59,125.314,163.52,125.367,163.443,125.367z"/>
	</g>
	<g id="POLYLINE_365_">
		<path fill="#0F4A75" d="M179.719,127.183c-0.011,0-0.022-0.001-0.033-0.003l-26.411-5.253c-0.092-0.018-0.152-0.108-0.133-0.2
			c0.018-0.092,0.108-0.151,0.199-0.133l26.411,5.253c0.092,0.018,0.152,0.108,0.133,0.2
			C179.87,127.127,179.799,127.183,179.719,127.183z"/>
	</g>
	<g id="POLYLINE_366_">
		<path fill="#0F4A75" d="M179.295,125.234c-0.009,0-0.019-0.001-0.029-0.002l-25.788-4.382c-0.092-0.016-0.155-0.103-0.139-0.196
			c0.016-0.092,0.103-0.154,0.196-0.139l25.788,4.382c0.092,0.016,0.155,0.103,0.139,0.196
			C179.448,125.175,179.376,125.234,179.295,125.234z"/>
	</g>
	<g id="POLYLINE_367_">
		<path fill="#0F4A75" d="M191.722,125.14c-0.008,0-0.016-0.001-0.024-0.002l-38.047-5.371c-0.093-0.013-0.157-0.099-0.144-0.192
			s0.099-0.156,0.192-0.144l38.047,5.371c0.093,0.013,0.157,0.099,0.144,0.192C191.878,125.079,191.806,125.14,191.722,125.14z"/>
	</g>
	<g id="POLYLINE_368_">
		<path fill="#0F4A75" d="M159.408,119.311c-0.006,0-0.013,0-0.019-0.001l-5.594-0.63c-0.093-0.011-0.16-0.094-0.15-0.188
			c0.01-0.093,0.095-0.16,0.188-0.149l5.594,0.63c0.093,0.011,0.16,0.094,0.15,0.188
			C159.566,119.247,159.493,119.311,159.408,119.311z"/>
	</g>
	<g id="POLYLINE_369_">
		<path fill="#0F4A75" d="M174.68,119.341c-0.005,0-0.01,0-0.014-0.001l-20.759-1.751c-0.093-0.008-0.163-0.09-0.155-0.183
			c0.008-0.093,0.09-0.16,0.183-0.155l20.759,1.751c0.093,0.008,0.163,0.09,0.155,0.183
			C174.842,119.274,174.768,119.341,174.68,119.341z"/>
	</g>
	<g id="POLYLINE_370_">
		<path fill="#0F4A75" d="M186.137,118.301c-0.003,0-0.006,0-0.01,0l-32.139-1.805c-0.093-0.005-0.165-0.085-0.16-0.179
			c0.005-0.094,0.084-0.171,0.179-0.16l32.139,1.805c0.093,0.005,0.165,0.085,0.16,0.179
			C186.301,118.232,186.226,118.301,186.137,118.301z"/>
	</g>
	<g id="POLYLINE_371_">
		<path fill="#0F4A75" d="M184.142,116.246c-0.002,0-0.003,0-0.005,0l-30.098-0.844c-0.094-0.003-0.167-0.081-0.165-0.174
			c0.003-0.094,0.079-0.164,0.174-0.165l30.098,0.844c0.094,0.003,0.167,0.081,0.165,0.174
			C184.309,116.173,184.233,116.246,184.142,116.246z"/>
	</g>
	<g id="POLYLINE_372_">
		<path fill="#0F4A75" d="M162.854,114.305h-8.795c-0.094,0-0.17-0.076-0.17-0.17c0-0.094,0.076-0.17,0.17-0.17h8.795
			c0.094,0,0.17,0.076,0.17,0.17C163.024,114.229,162.948,114.305,162.854,114.305z"/>
	</g>
	<g id="POLYLINE_373_">
		<path fill="#0F4A75" d="M154.044,113.209c-0.092,0-0.167-0.073-0.169-0.165c-0.003-0.094,0.071-0.172,0.165-0.174l18.049-0.507
			c0.096-0.002,0.172,0.071,0.174,0.165c0.003,0.094-0.071,0.172-0.165,0.174l-18.049,0.507
			C154.047,113.209,154.045,113.209,154.044,113.209z"/>
	</g>
	<g id="POLYLINE_374_">
		<path fill="#0F4A75" d="M153.998,112.114c-0.089,0-0.164-0.07-0.169-0.16c-0.005-0.094,0.066-0.174,0.16-0.179l49.744-2.794
			c0.094-0.011,0.174,0.066,0.179,0.16c0.005,0.094-0.066,0.174-0.16,0.179l-49.744,2.794
			C154.004,112.114,154.001,112.114,153.998,112.114z"/>
	</g>
	<g id="POLYLINE_375_">
		<path fill="#0F4A75" d="M153.921,111.02c-0.087,0-0.161-0.067-0.169-0.155c-0.008-0.093,0.061-0.175,0.155-0.183l29.957-2.526
			c0.093-0.004,0.175,0.061,0.183,0.155c0.008,0.093-0.061,0.175-0.155,0.183l-29.957,2.526
			C153.93,111.02,153.926,111.02,153.921,111.02z"/>
	</g>
	<g id="POLYLINE_376_">
		<path fill="#0F4A75" d="M153.813,109.929c-0.085,0-0.159-0.064-0.168-0.151c-0.01-0.093,0.056-0.177,0.15-0.188l8.386-0.945
			c0.094-0.012,0.177,0.056,0.188,0.149c0.01,0.093-0.056,0.177-0.15,0.188l-8.386,0.945
			C153.826,109.929,153.82,109.929,153.813,109.929z"/>
	</g>
	<g id="POLYLINE_377_">
		<path fill="#0F4A75" d="M153.675,108.842c-0.083,0-0.156-0.061-0.168-0.146c-0.013-0.093,0.051-0.178,0.144-0.192l8.537-1.205
			c0.093-0.012,0.179,0.052,0.192,0.144s-0.051,0.178-0.144,0.192l-8.537,1.205C153.691,108.841,153.683,108.842,153.675,108.842z"
			/>
	</g>
	<g id="POLYLINE_378_">
		<path fill="#0F4A75" d="M153.507,107.759c-0.081,0-0.153-0.059-0.167-0.141c-0.016-0.092,0.046-0.18,0.139-0.196l6.741-1.145
			c0.093-0.015,0.18,0.047,0.196,0.139c0.016,0.092-0.046,0.18-0.139,0.196l-6.741,1.145
			C153.526,107.758,153.516,107.759,153.507,107.759z"/>
	</g>
	<g id="POLYLINE_379_">
		<path fill="#0F4A75" d="M153.308,106.681c-0.079,0-0.15-0.056-0.166-0.136c-0.018-0.092,0.041-0.181,0.133-0.2l32.74-6.513
			c0.091-0.018,0.181,0.042,0.199,0.133c0.018,0.092-0.041,0.181-0.133,0.2l-32.74,6.513
			C153.33,106.68,153.319,106.681,153.308,106.681z"/>
	</g>
	<g id="POLYLINE_380_">
		<path fill="#0F4A75" d="M153.079,105.608c-0.077,0-0.147-0.053-0.165-0.132c-0.021-0.091,0.036-0.182,0.128-0.203l27.003-6.163
			c0.092-0.021,0.182,0.037,0.203,0.128c0.021,0.091-0.036,0.182-0.128,0.203l-27.003,6.163
			C153.104,105.607,153.092,105.608,153.079,105.608z"/>
	</g>
	<g id="POLYLINE_381_">
		<path fill="#0F4A75" d="M152.82,104.544c-0.075,0-0.144-0.051-0.164-0.127c-0.023-0.091,0.031-0.183,0.122-0.207l20.812-5.369
			c0.09-0.024,0.183,0.031,0.207,0.122c0.023,0.091-0.031,0.183-0.122,0.207l-20.812,5.369
			C152.849,104.542,152.834,104.544,152.82,104.544z"/>
	</g>
	<g id="POLYLINE_382_">
		<path fill="#0F4A75" d="M152.532,103.486c-0.074,0-0.142-0.048-0.163-0.123c-0.026-0.09,0.026-0.184,0.116-0.21l19.886-5.729
			c0.09-0.025,0.184,0.026,0.21,0.116c0.026,0.09-0.026,0.184-0.116,0.21l-19.886,5.729
			C152.563,103.484,152.547,103.486,152.532,103.486z"/>
	</g>
	<g id="POLYLINE_383_">
		<path fill="#0F4A75" d="M152.213,102.437c-0.072,0-0.139-0.046-0.162-0.118c-0.028-0.089,0.021-0.184,0.11-0.213l6.889-2.196
			c0.089-0.027,0.185,0.021,0.213,0.11c0.028,0.089-0.021,0.184-0.11,0.213l-6.889,2.196
			C152.248,102.434,152.231,102.437,152.213,102.437z"/>
	</g>
	<g id="POLYLINE_384_">
		<path fill="#0F4A75" d="M151.866,101.397c-0.07,0-0.136-0.044-0.16-0.114c-0.031-0.088,0.016-0.185,0.104-0.216l14.586-5.104
			c0.088-0.032,0.185,0.016,0.216,0.104c0.031,0.088-0.016,0.185-0.104,0.216l-14.586,5.104
			C151.904,101.394,151.885,101.397,151.866,101.397z"/>
	</g>
	<g id="POLYLINE_385_">
		<path fill="#0F4A75" d="M151.49,100.367c-0.068,0-0.133-0.042-0.159-0.109c-0.033-0.087,0.01-0.186,0.098-0.219l30.993-11.831
			c0.088-0.034,0.186,0.011,0.219,0.098c0.033,0.087-0.01,0.186-0.098,0.219l-30.993,11.831
			C151.53,100.364,151.51,100.367,151.49,100.367z"/>
	</g>
	<g id="POLYLINE_386_">
		<path fill="#0F4A75" d="M151.084,99.349c-0.067,0-0.13-0.039-0.157-0.105c-0.036-0.087,0.005-0.186,0.092-0.222l28.99-12.008
			c0.087-0.036,0.186,0.005,0.222,0.092c0.036,0.087-0.005,0.186-0.092,0.222l-28.99,12.008
			C151.128,99.345,151.106,99.349,151.084,99.349z"/>
	</g>
	<g id="POLYLINE_387_">
		<path fill="#0F4A75" d="M150.651,98.342c-0.065,0-0.127-0.037-0.155-0.1c-0.038-0.085,0-0.186,0.086-0.224l3.73-1.669
			c0.086-0.038,0.186,0,0.224,0.086c0.038,0.085,0,0.186-0.086,0.224l-3.73,1.669C150.697,98.337,150.674,98.342,150.651,98.342z"/>
	</g>
	<g id="POLYLINE_388_">
		<path fill="#0F4A75" d="M150.189,97.348c-0.063,0-0.124-0.035-0.153-0.096c-0.041-0.085-0.005-0.186,0.079-0.227l26.121-12.579
			c0.084-0.041,0.186-0.005,0.226,0.079c0.041,0.085,0.005,0.186-0.079,0.227l-26.121,12.579
			C150.239,97.343,150.214,97.348,150.189,97.348z"/>
	</g>
	<g id="POLYLINE_389_">
		<path fill="#0F4A75" d="M149.7,96.367c-0.061,0-0.121-0.033-0.151-0.092c-0.043-0.083-0.01-0.186,0.073-0.229l28.849-14.904
			c0.083-0.042,0.186-0.01,0.229,0.073c0.043,0.083,0.01,0.186-0.073,0.229l-28.849,14.904
			C149.752,96.361,149.726,96.367,149.7,96.367z"/>
	</g>
	<g id="POLYLINE_390_">
		<path fill="#0F4A75" d="M149.183,95.4c-0.06,0-0.118-0.032-0.149-0.087c-0.045-0.082-0.016-0.185,0.066-0.231l11.744-6.491
			c0.082-0.045,0.185-0.016,0.231,0.066c0.045,0.082,0.016,0.185-0.066,0.231l-11.744,6.491
			C149.239,95.394,149.211,95.4,149.183,95.4z"/>
	</g>
	<g id="POLYLINE_391_">
		<path fill="#0F4A75" d="M148.639,94.448c-0.058,0-0.115-0.03-0.146-0.083c-0.048-0.081-0.021-0.185,0.06-0.232l8.704-5.134
			c0.081-0.047,0.185-0.021,0.232,0.06c0.048,0.081,0.021,0.185-0.06,0.232l-8.704,5.134
			C148.698,94.441,148.669,94.448,148.639,94.448z"/>
	</g>
	<g id="POLYLINE_392_">
		<path fill="#0F4A75" d="M148.069,93.512c-0.056,0-0.112-0.028-0.144-0.08c-0.05-0.079-0.026-0.184,0.053-0.234l17.667-11.101
			c0.079-0.049,0.184-0.026,0.234,0.054c0.05,0.079,0.026,0.184-0.053,0.234l-17.667,11.101
			C148.131,93.504,148.1,93.512,148.069,93.512z"/>
	</g>
	<g id="POLYLINE_393_">
		<path fill="#0F4A75" d="M147.473,92.592c-0.055,0-0.108-0.027-0.141-0.075c-0.052-0.078-0.031-0.183,0.047-0.235l23.69-15.829
			c0.078-0.052,0.183-0.031,0.235,0.047c0.052,0.078,0.031,0.183-0.047,0.235l-23.69,15.829
			C147.538,92.583,147.505,92.592,147.473,92.592z"/>
	</g>
	<g id="POLYLINE_394_">
		<path fill="#0F4A75" d="M146.851,91.689c-0.053,0-0.105-0.025-0.138-0.072c-0.054-0.076-0.036-0.182,0.04-0.236l24.484-17.372
			c0.076-0.054,0.182-0.036,0.236,0.04c0.054,0.076,0.036,0.182-0.04,0.236l-24.484,17.372
			C146.919,91.679,146.885,91.689,146.851,91.689z"/>
	</g>
	<g id="POLYLINE_395_">
		<path fill="#0F4A75" d="M146.204,90.804c-0.051,0-0.102-0.023-0.136-0.068c-0.056-0.075-0.041-0.181,0.034-0.237l26.155-19.683
			c0.075-0.057,0.181-0.042,0.237,0.033c0.056,0.075,0.041,0.181-0.034,0.237L146.306,90.77
			C146.276,90.793,146.24,90.804,146.204,90.804z"/>
	</g>
	<g id="POLYLINE_396_">
		<path fill="#0F4A75" d="M145.533,89.938c-0.05,0-0.099-0.022-0.133-0.064c-0.058-0.073-0.046-0.18,0.027-0.238l30.182-24.069
			c0.073-0.059,0.18-0.047,0.238,0.027c0.058,0.073,0.046,0.18-0.027,0.238l-30.182,24.069
			C145.607,89.925,145.57,89.938,145.533,89.938z"/>
	</g>
	<g id="POLYLINE_397_">
		<path fill="#0F4A75" d="M144.837,89.09c-0.048,0-0.096-0.02-0.13-0.06c-0.06-0.072-0.051-0.179,0.02-0.239l6.32-5.337
			c0.072-0.06,0.179-0.052,0.239,0.02c0.06,0.072,0.051,0.179-0.02,0.239l-6.32,5.337C144.915,89.077,144.876,89.09,144.837,89.09z"
			/>
	</g>
	<g id="POLYLINE_398_">
		<path fill="#0F4A75" d="M144.118,88.263c-0.047,0-0.093-0.019-0.127-0.057c-0.062-0.07-0.056-0.177,0.013-0.239l5.955-5.322
			c0.07-0.062,0.177-0.056,0.24,0.014c0.062,0.07,0.056,0.177-0.013,0.239l-5.955,5.322
			C144.199,88.248,144.159,88.263,144.118,88.263z"/>
	</g>
	<g id="POLYLINE_399_">
		<path fill="#0F4A75" d="M143.376,87.455c-0.045,0-0.09-0.018-0.123-0.053c-0.064-0.068-0.061-0.175,0.007-0.24l11.677-11.039
			c0.068-0.064,0.176-0.061,0.24,0.007c0.064,0.068,0.061,0.175-0.007,0.24l-11.677,11.039
			C143.46,87.44,143.418,87.455,143.376,87.455z"/>
	</g>
	<g id="POLYLINE_400_">
		<path fill="#0F4A75" d="M142.612,86.67c-0.043,0-0.087-0.016-0.12-0.05c-0.066-0.066-0.066-0.174,0-0.24l12.263-12.263
			c0.066-0.066,0.174-0.066,0.24,0c0.066,0.066,0.066,0.174,0,0.24L142.732,86.62C142.699,86.653,142.656,86.67,142.612,86.67z"/>
	</g>
	<g id="POLYLINE_401_">
		<path fill="#0F4A75" d="M141.826,85.905c-0.042,0-0.084-0.015-0.117-0.046c-0.068-0.064-0.071-0.172-0.007-0.24l15.849-16.765
			c0.064-0.068,0.172-0.071,0.24-0.007c0.068,0.064,0.071,0.172,0.007,0.24L141.95,85.852
			C141.916,85.888,141.871,85.905,141.826,85.905z"/>
	</g>
	<g id="POLYLINE_402_">
		<path fill="#0F4A75" d="M141.019,85.164c-0.04,0-0.081-0.014-0.113-0.043c-0.07-0.062-0.076-0.17-0.013-0.239l16.342-18.287
			c0.062-0.07,0.169-0.076,0.24-0.014c0.07,0.062,0.076,0.17,0.013,0.239l-16.342,18.287
			C141.112,85.145,141.066,85.164,141.019,85.164z"/>
	</g>
	<g id="POLYLINE_403_">
		<path fill="#0F4A75" d="M140.191,84.445c-0.039,0-0.078-0.013-0.109-0.04c-0.072-0.06-0.081-0.168-0.02-0.239l22.516-26.665
			c0.06-0.072,0.167-0.08,0.239-0.02c0.072,0.06,0.081,0.168,0.02,0.239l-22.516,26.665
			C140.288,84.424,140.24,84.445,140.191,84.445z"/>
	</g>
	<g id="POLYLINE_404_">
		<path fill="#0F4A75" d="M139.344,83.749c-0.037,0-0.074-0.012-0.106-0.037c-0.073-0.058-0.085-0.165-0.027-0.238l16.108-20.199
			c0.059-0.073,0.165-0.085,0.238-0.027c0.073,0.058,0.085,0.165,0.027,0.238l-16.108,20.199
			C139.443,83.727,139.394,83.749,139.344,83.749z"/>
	</g>
	<g id="POLYLINE_405_">
		<path fill="#0F4A75" d="M138.478,83.078c-0.036,0-0.071-0.011-0.102-0.034c-0.075-0.056-0.09-0.162-0.034-0.237l12.443-16.534
			c0.056-0.075,0.163-0.09,0.237-0.033c0.075,0.056,0.09,0.162,0.034,0.237L138.613,83.01
			C138.58,83.055,138.529,83.078,138.478,83.078z"/>
	</g>
	<g id="POLYLINE_406_">
		<path fill="#0F4A75" d="M137.592,82.431c-0.034,0-0.068-0.01-0.098-0.031c-0.076-0.054-0.094-0.16-0.04-0.236l9.505-13.395
			c0.054-0.077,0.16-0.095,0.236-0.04c0.076,0.054,0.094,0.16,0.04,0.236l-9.505,13.395
			C137.698,82.406,137.645,82.431,137.592,82.431z"/>
	</g>
	<g id="POLYLINE_407_">
		<path fill="#0F4A75" d="M136.69,81.809c-0.032,0-0.065-0.009-0.094-0.029c-0.078-0.052-0.099-0.157-0.047-0.235l12.02-17.989
			c0.052-0.078,0.158-0.099,0.235-0.047c0.078,0.052,0.099,0.157,0.047,0.235l-12.02,17.989
			C136.798,81.783,136.744,81.809,136.69,81.809z"/>
	</g>
	<g id="POLYLINE_408_">
		<path fill="#0F4A75" d="M135.77,81.213c-0.031,0-0.062-0.008-0.09-0.026c-0.079-0.05-0.103-0.155-0.053-0.234L158.99,43.77
			c0.05-0.08,0.155-0.103,0.234-0.054c0.079,0.05,0.103,0.155,0.053,0.234l-23.364,37.183
			C135.881,81.185,135.826,81.213,135.77,81.213z"/>
	</g>
	<g id="POLYLINE_409_">
		<path fill="#0F4A75" d="M134.834,80.643c-0.029,0-0.059-0.008-0.086-0.024c-0.081-0.047-0.107-0.152-0.06-0.232l19.51-33.075
			c0.048-0.081,0.152-0.107,0.232-0.06c0.081,0.047,0.107,0.152,0.06,0.232L134.98,80.56
			C134.948,80.613,134.892,80.643,134.834,80.643z"/>
	</g>
	<g id="POLYLINE_410_">
		<path fill="#0F4A75" d="M133.881,80.099c-0.028,0-0.056-0.007-0.082-0.021c-0.082-0.045-0.112-0.148-0.066-0.231l17.251-31.213
			c0.045-0.082,0.149-0.112,0.231-0.066c0.082,0.045,0.112,0.148,0.066,0.231L134.03,80.012
			C133.999,80.068,133.941,80.099,133.881,80.099z"/>
	</g>
	<g id="POLYLINE_411_">
		<path fill="#0F4A75" d="M132.915,79.583c-0.026,0-0.053-0.006-0.078-0.019c-0.083-0.043-0.116-0.146-0.073-0.229l9.953-19.265
			c0.043-0.083,0.145-0.115,0.229-0.073c0.083,0.043,0.116,0.146,0.073,0.229l-9.953,19.265
			C133.035,79.549,132.976,79.583,132.915,79.583z"/>
	</g>
	<g id="POLYLINE_412_">
		<path fill="#0F4A75" d="M131.934,79.093c-0.025,0-0.05-0.005-0.073-0.017c-0.084-0.041-0.12-0.142-0.079-0.227l8.606-17.871
			c0.041-0.084,0.142-0.12,0.226-0.079c0.084,0.041,0.12,0.142,0.079,0.227l-8.606,17.871
			C132.058,79.058,131.997,79.093,131.934,79.093z"/>
	</g>
	<g id="POLYLINE_413_">
		<path fill="#0F4A75" d="M130.94,78.631c-0.023,0-0.047-0.005-0.069-0.015c-0.085-0.038-0.124-0.139-0.086-0.224l22.139-49.476
			c0.038-0.086,0.139-0.124,0.224-0.086c0.085,0.038,0.124,0.139,0.086,0.224l-22.139,49.476
			C131.066,78.594,131.004,78.631,130.94,78.631z"/>
	</g>
	<g id="POLYLINE_414_">
		<path fill="#0F4A75" d="M129.933,78.198c-0.022,0-0.044-0.004-0.065-0.013c-0.087-0.036-0.128-0.135-0.092-0.222l28.612-69.075
			c0.036-0.086,0.135-0.128,0.222-0.092c0.087,0.036,0.128,0.135,0.092,0.222L130.09,78.093
			C130.063,78.158,129.999,78.198,129.933,78.198z"/>
	</g>
	<g id="POLYLINE_415_">
		<path fill="#0F4A75" d="M128.914,77.792c-0.02,0-0.041-0.003-0.06-0.011c-0.088-0.033-0.131-0.131-0.098-0.219l10.918-28.602
			c0.033-0.087,0.132-0.131,0.219-0.098c0.088,0.033,0.131,0.131,0.098,0.219l-10.918,28.602
			C129.047,77.751,128.983,77.792,128.914,77.792z"/>
	</g>
	<g id="POLYLINE_416_">
		<path fill="#0F4A75" d="M127.885,77.416c-0.019,0-0.038-0.003-0.056-0.01c-0.088-0.031-0.135-0.128-0.104-0.216L145.4,26.678
			c0.031-0.089,0.128-0.136,0.216-0.104c0.088,0.031,0.135,0.128,0.104,0.216l-17.675,50.512
			C128.02,77.372,127.955,77.416,127.885,77.416z"/>
	</g>
	<g id="POLYLINE_417_">
		<path fill="#0F4A75" d="M126.845,77.068c-0.017,0-0.034-0.003-0.052-0.008c-0.089-0.029-0.139-0.124-0.11-0.213l21.921-68.775
			c0.028-0.089,0.124-0.138,0.213-0.11c0.089,0.029,0.139,0.124,0.11,0.213L127.007,76.95
			C126.984,77.022,126.917,77.068,126.845,77.068z"/>
	</g>
	<g id="POLYLINE_418_">
		<path fill="#0F4A75" d="M125.796,76.75c-0.016,0-0.031-0.002-0.047-0.007c-0.09-0.026-0.142-0.12-0.116-0.21l16.606-57.641
			c0.026-0.09,0.12-0.142,0.21-0.116c0.09,0.026,0.142,0.12,0.116,0.21l-16.606,57.641C125.938,76.702,125.87,76.75,125.796,76.75z"
			/>
	</g>
	<g id="POLYLINE_419_">
		<path fill="#0F4A75" d="M124.739,76.461c-0.014,0-0.028-0.002-0.042-0.005c-0.091-0.024-0.145-0.116-0.122-0.207l2.692-10.436
			c0.023-0.09,0.116-0.146,0.207-0.122c0.091,0.024,0.145,0.116,0.122,0.207l-2.692,10.436
			C124.883,76.41,124.814,76.461,124.739,76.461z"/>
	</g>
	<g id="POLYLINE_420_">
		<path fill="#0F4A75" d="M123.674,76.203c-0.012,0-0.025-0.001-0.038-0.004c-0.091-0.021-0.148-0.112-0.128-0.203l0.87-3.81
			c0.021-0.091,0.111-0.149,0.203-0.128c0.091,0.021,0.148,0.112,0.128,0.203l-0.87,3.81
			C123.821,76.149,123.751,76.203,123.674,76.203z"/>
	</g>
	<g id="POLYLINE_421_">
		<path fill="#0F4A75" d="M122.601,75.974c-0.011,0-0.022-0.001-0.033-0.003c-0.092-0.018-0.152-0.108-0.133-0.2l1.226-6.163
			c0.018-0.092,0.108-0.151,0.199-0.133c0.092,0.018,0.152,0.108,0.133,0.2l-1.226,6.163
			C122.752,75.918,122.681,75.974,122.601,75.974z"/>
	</g>
	<g id="POLYLINE_422_">
		<path fill="#0F4A75" d="M121.524,75.775c-0.009,0-0.019-0.001-0.029-0.002c-0.092-0.016-0.155-0.103-0.139-0.196l1.233-7.256
			c0.016-0.092,0.103-0.155,0.196-0.139c0.092,0.016,0.155,0.103,0.139,0.196l-1.233,7.256
			C121.677,75.716,121.605,75.775,121.524,75.775z"/>
	</g>
	<g id="POLYLINE_423_">
		<path fill="#0F4A75" d="M120.44,75.606c-0.008,0-0.016-0.001-0.024-0.002c-0.093-0.013-0.157-0.099-0.144-0.192l1.346-9.531
			c0.013-0.093,0.098-0.155,0.192-0.144c0.093,0.013,0.157,0.099,0.144,0.192l-1.346,9.531
			C120.596,75.545,120.523,75.606,120.44,75.606z"/>
	</g>
	<g id="POLYLINE_424_">
		<path fill="#0F4A75" d="M119.353,75.469c-0.006,0-0.013,0-0.019-0.001c-0.093-0.011-0.16-0.094-0.15-0.188l1.996-17.716
			c0.01-0.093,0.094-0.16,0.188-0.149c0.093,0.011,0.16,0.094,0.15,0.188l-1.996,17.716
			C119.511,75.405,119.438,75.469,119.353,75.469z"/>
	</g>
	<g id="POLYLINE_425_">
		<path fill="#0F4A75" d="M118.262,75.361c-0.005,0-0.01,0-0.014-0.001c-0.093-0.008-0.163-0.09-0.155-0.183l0.617-7.317
			c0.008-0.093,0.09-0.158,0.183-0.155c0.093,0.008,0.163,0.09,0.155,0.183l-0.617,7.317
			C118.423,75.294,118.349,75.361,118.262,75.361z"/>
	</g>
	<g id="POLYLINE_426_">
		<path fill="#0F4A75" d="M117.168,75.284c-0.003,0-0.006,0-0.01,0c-0.093-0.005-0.165-0.085-0.16-0.179l0.267-4.761
			c0.005-0.094,0.084-0.166,0.179-0.16c0.093,0.005,0.165,0.085,0.16,0.179l-0.267,4.761
			C117.332,75.214,117.258,75.284,117.168,75.284z"/>
	</g>
	<g id="POLYLINE_427_">
		<path fill="#0F4A75" d="M116.073,75.238c-0.002,0-0.003,0-0.005,0c-0.094-0.003-0.167-0.081-0.165-0.174l0.355-12.658
			c0.003-0.094,0.079-0.16,0.174-0.165c0.094,0.003,0.167,0.081,0.165,0.174l-0.355,12.658
			C116.24,75.165,116.164,75.238,116.073,75.238z"/>
	</g>
	<g id="POLYLINE_428_">
		<path fill="#0F4A75" d="M114.977,75.223c-0.094,0-0.17-0.076-0.17-0.17v-7.254c0-0.094,0.076-0.17,0.17-0.17
			c0.094,0,0.17,0.076,0.17,0.17v7.254C115.146,75.146,115.07,75.223,114.977,75.223z"/>
	</g>
	<g>
		<g>
			<g>
				<path fill="#0F4A75" d="M93.02,113.569c-0.074,0-0.129-0.034-0.163-0.109l-1.051-2.279c-0.081,0.007-0.163,0.007-0.244,0.007
					h-1.52v2.198c0,0.122-0.061,0.183-0.176,0.183c-0.122,0-0.183-0.061-0.183-0.183v-5.135c0-0.122,0.061-0.183,0.183-0.183h1.696
					c0.468,0,0.841,0.136,1.133,0.414c0.292,0.271,0.434,0.624,0.434,1.065v0.17c0,0.644-0.366,1.173-0.963,1.37l1.018,2.232
					C93.23,113.426,93.162,113.569,93.02,113.569z M91.561,110.828c0.36,0,0.645-0.102,0.862-0.312
					c0.224-0.21,0.332-0.475,0.332-0.8v-0.17c0-0.679-0.482-1.126-1.194-1.126h-1.52v2.408H91.561z"/>
				<path fill="#0F4A75" d="M93.02,113.668c-0.116,0-0.204-0.058-0.254-0.168l-1.022-2.215c-0.061,0.002-0.122,0.002-0.182,0.002
					h-1.419v2.098c0,0.175-0.106,0.283-0.276,0.283c-0.177,0-0.283-0.105-0.283-0.283v-5.135c0-0.178,0.106-0.283,0.283-0.283h1.696
					c0.497,0,0.89,0.145,1.202,0.441c0.308,0.287,0.465,0.67,0.465,1.138v0.169c0,0.655-0.353,1.192-0.928,1.427l0.973,2.135
					c0.039,0.087,0.03,0.189-0.022,0.269C93.201,113.624,93.116,113.668,93.02,113.668z M91.867,111.076l1.081,2.342
					c0.038,0.082,0.107,0.062,0.136,0.02c0.015-0.023,0.018-0.054,0.007-0.079l-1.063-2.333l0.106-0.034
					c0.552-0.182,0.895-0.67,0.895-1.275v-0.169c0-0.416-0.132-0.74-0.402-0.992c-0.274-0.261-0.622-0.388-1.065-0.388h-1.696
					c-0.067,0-0.083,0.017-0.083,0.084v5.135c0,0.067,0.016,0.084,0.083,0.084c0.056,0,0.076-0.013,0.076-0.084v-2.297h1.62
					c0.002,0,0.005,0,0.008,0c0.076,0,0.152-0.001,0.229-0.007L91.867,111.076z M91.561,110.927h-1.62v-2.607h1.62
					c0.774,0,1.294,0.493,1.294,1.227v0.169c0,0.357-0.119,0.643-0.364,0.873C92.256,110.817,91.951,110.927,91.561,110.927z
					 M90.142,110.728h1.419c0.336,0,0.595-0.093,0.792-0.284c0.203-0.191,0.302-0.43,0.302-0.729v-0.169
					c0-0.624-0.429-1.027-1.094-1.027h-1.419V110.728z"/>
			</g>
			<g>
				<path fill="#0F4A75" d="M96.806,110.129c0.278,0.278,0.42,0.61,0.42,0.997v1.058c0,0.387-0.142,0.726-0.42,1.004
					c-0.278,0.278-0.611,0.414-1.004,0.414h-0.149c-0.387,0-0.726-0.136-1.004-0.414c-0.278-0.278-0.421-0.617-0.421-1.004v-1.058
					c0-0.387,0.142-0.719,0.421-0.997c0.278-0.278,0.617-0.421,1.004-0.421h0.149C96.195,109.709,96.528,109.851,96.806,110.129z
					 M96.86,111.126c0-0.292-0.102-0.536-0.312-0.746c-0.21-0.21-0.455-0.312-0.746-0.312h-0.149c-0.292,0-0.543,0.102-0.753,0.312
					c-0.204,0.204-0.305,0.455-0.305,0.746v1.058c0,0.292,0.095,0.543,0.305,0.753c0.21,0.21,0.461,0.305,0.753,0.305h0.149
					c0.292,0,0.543-0.102,0.746-0.305c0.21-0.21,0.312-0.461,0.312-0.753V111.126z"/>
				<path fill="#0F4A75" d="M95.802,113.702h-0.149c-0.419,0-0.781-0.148-1.075-0.441c-0.299-0.299-0.45-0.661-0.45-1.075v-1.059
					c0-0.41,0.151-0.77,0.45-1.067c0.299-0.299,0.66-0.45,1.075-0.45h0.149c0.414,0,0.776,0.151,1.075,0.45l0,0
					c0.298,0.298,0.45,0.657,0.45,1.067v1.059c0,0.414-0.151,0.776-0.45,1.074C96.582,113.553,96.22,113.702,95.802,113.702z
					 M95.653,109.808c-0.36,0-0.674,0.132-0.933,0.392c-0.263,0.264-0.391,0.566-0.391,0.927v1.059c0,0.359,0.132,0.674,0.391,0.934
					c0.255,0.254,0.569,0.384,0.933,0.384h0.149c0.369,0,0.674-0.126,0.933-0.385s0.391-0.573,0.391-0.933v-1.059
					c0-0.354-0.132-0.667-0.391-0.927c-0.263-0.263-0.569-0.392-0.933-0.392H95.653z M95.802,113.342h-0.149
					c-0.325,0-0.602-0.112-0.824-0.334c-0.222-0.222-0.335-0.499-0.335-0.823v-1.059c0-0.32,0.113-0.596,0.335-0.816
					c0.225-0.227,0.502-0.341,0.824-0.341h0.149c0.321,0,0.588,0.111,0.817,0.341c0.229,0.229,0.341,0.496,0.341,0.816v1.059
					c0,0.319-0.115,0.597-0.341,0.823C96.397,113.23,96.122,113.342,95.802,113.342z M95.653,110.168
					c-0.27,0-0.493,0.093-0.682,0.282c-0.183,0.183-0.276,0.41-0.276,0.676v1.059c0,0.273,0.09,0.496,0.276,0.683
					c0.186,0.185,0.409,0.275,0.682,0.275h0.149c0.265,0,0.492-0.093,0.676-0.275c0.19-0.191,0.282-0.414,0.282-0.683v-1.059
					c0-0.265-0.092-0.485-0.282-0.676c-0.189-0.189-0.41-0.282-0.676-0.282H95.653z"/>
			</g>
			<g>
				<path fill="#0F4A75" d="M101.209,112.551c0,0.271-0.163,0.516-0.488,0.739c-0.292,0.203-0.583,0.305-0.868,0.305h-0.156
					c-0.387,0-0.719-0.136-0.997-0.414c-0.278-0.278-0.421-0.61-0.421-0.997v-1.058c0-0.387,0.142-0.719,0.421-0.997
					c0.278-0.278,0.61-0.414,0.997-0.414h0.156c0.576,0,1.085,0.332,1.309,0.868c0.007,0.02,0.014,0.047,0.014,0.068
					c0,0.115-0.061,0.169-0.177,0.169c-0.081,0-0.136-0.034-0.17-0.108c-0.17-0.387-0.549-0.638-0.977-0.638h-0.156
					c-0.292,0-0.543,0.102-0.746,0.305c-0.204,0.204-0.305,0.455-0.305,0.746v1.058c0,0.292,0.102,0.543,0.305,0.746
					c0.204,0.204,0.455,0.305,0.746,0.305h0.156c0.461,0,0.882-0.298,1.018-0.739c0.027-0.081,0.081-0.122,0.17-0.122
					C101.155,112.375,101.209,112.436,101.209,112.551z"/>
				<path fill="#0F4A75" d="M99.853,113.695h-0.156c-0.414,0-0.773-0.148-1.068-0.441c-0.299-0.299-0.45-0.658-0.45-1.068v-1.059
					c0-0.41,0.151-0.77,0.45-1.067c0.294-0.295,0.653-0.443,1.068-0.443h0.156c0.625,0,1.162,0.355,1.401,0.93
					c0.011,0.032,0.022,0.071,0.022,0.106c0,0.168-0.104,0.269-0.277,0.269c-0.121,0-0.211-0.058-0.261-0.167
					c-0.155-0.352-0.502-0.579-0.886-0.579h-0.156c-0.264,0-0.492,0.094-0.676,0.276c-0.183,0.184-0.276,0.41-0.276,0.676v1.059
					c0,0.265,0.093,0.492,0.276,0.676c0.183,0.183,0.41,0.275,0.675,0.275h0.156c0.422,0,0.801-0.275,0.922-0.669
					c0.042-0.125,0.136-0.192,0.265-0.192c0.169,0,0.27,0.104,0.27,0.276c0,0.303-0.179,0.579-0.532,0.821
					C100.471,113.586,100.159,113.695,99.853,113.695z M99.697,109.815c-0.365,0-0.668,0.126-0.926,0.385
					c-0.263,0.264-0.391,0.566-0.391,0.927v1.059c0,0.36,0.128,0.663,0.391,0.927c0.259,0.258,0.562,0.384,0.926,0.384h0.156
					c0.265,0,0.538-0.097,0.811-0.287c0.3-0.206,0.446-0.421,0.446-0.657c0-0.07-0.019-0.077-0.07-0.077
					c-0.044,0-0.061,0.013-0.075,0.054c-0.146,0.475-0.604,0.808-1.112,0.808h-0.156c-0.32,0-0.595-0.112-0.817-0.334
					c-0.222-0.223-0.335-0.497-0.335-0.816v-1.059c0-0.32,0.113-0.596,0.335-0.816c0.223-0.223,0.498-0.335,0.817-0.335h0.156
					c0.463,0,0.883,0.273,1.068,0.697c0.017,0.037,0.035,0.049,0.078,0.049c0.07,0,0.076-0.02,0.076-0.069
					c0-0.004-0.002-0.019-0.009-0.037c-0.205-0.49-0.671-0.8-1.214-0.8H99.697z"/>
			</g>
			<g>
				<path fill="#0F4A75" d="M104.616,113.277c0.054,0.082,0.034,0.19-0.047,0.251c-0.027,0.014-0.068,0.027-0.102,0.027
					c-0.054,0-0.115-0.027-0.149-0.075l-1.167-1.689h-0.692v1.587c0,0.102-0.081,0.177-0.183,0.177
					c-0.102,0-0.176-0.075-0.176-0.177v-5.135c0-0.102,0.075-0.183,0.176-0.183c0.102,0,0.183,0.081,0.183,0.183v3.188h0.699
					l1.173-1.608c0.054-0.074,0.17-0.095,0.251-0.041c0.075,0.061,0.095,0.169,0.034,0.258l-1.153,1.574L104.616,113.277z"/>
				<path fill="#0F4A75" d="M104.466,113.655c-0.09,0-0.18-0.046-0.231-0.117l-1.138-1.646h-0.54v1.487
					c0,0.155-0.125,0.276-0.283,0.276c-0.157,0-0.276-0.118-0.276-0.276v-5.135c0-0.159,0.121-0.283,0.276-0.283
					c0.156,0,0.283,0.127,0.283,0.283v3.089h0.548l1.143-1.567c0.086-0.119,0.263-0.147,0.388-0.064
					c0.125,0.102,0.148,0.27,0.06,0.397l-1.113,1.519l1.113,1.604c0.085,0.126,0.054,0.292-0.07,0.387
					C104.595,113.626,104.533,113.655,104.466,113.655z M102.358,111.692h0.845l1.197,1.731c0.02,0.027,0.071,0.04,0.124,0.016
					c0.024-0.021,0.034-0.068,0.01-0.106l-1.193-1.72l1.195-1.631c0.032-0.046,0.014-0.096-0.016-0.12
					c-0.031-0.023-0.086-0.008-0.107,0.021l-1.203,1.648h-0.85v-3.288c0-0.047-0.036-0.084-0.083-0.084
					c-0.05,0-0.076,0.042-0.076,0.084v5.135c0,0.096,0.159,0.088,0.159,0V111.692z"/>
			</g>
			<g>
				<path fill="#0F4A75" d="M108.707,109.919c0,0.02-0.007,0.041-0.014,0.061v0.014c-0.712,1.994-1.187,3.331-1.425,4.016
					c-0.156,0.454-0.393,0.773-0.699,0.97c-0.197,0.122-0.4,0.183-0.61,0.183c-0.041,0-0.075,0-0.102-0.007
					c-0.115-0.02-0.17-0.088-0.149-0.204c0.02-0.122,0.088-0.176,0.204-0.163c0.115,0.02,0.244-0.007,0.386-0.081
					c0.278-0.136,0.475-0.414,0.624-0.821l0.136-0.366l-0.02-0.041l-1.282-3.48c-0.007-0.02-0.014-0.041-0.014-0.061
					c0-0.129,0.061-0.19,0.176-0.19c0.088,0,0.143,0.041,0.177,0.129l1.146,3.12l1.106-3.12l0.007-0.027
					c0.027-0.075,0.088-0.116,0.177-0.116C108.646,109.736,108.707,109.797,108.707,109.919z"/>
				<path fill="#0F4A75" d="M105.96,115.262c-0.047,0-0.087,0-0.126-0.01c-0.164-0.028-0.252-0.151-0.223-0.317
					c0.029-0.173,0.149-0.265,0.314-0.245c0.097,0.019,0.206-0.006,0.329-0.07c0.246-0.12,0.428-0.363,0.576-0.767l0.121-0.326
					l-0.001-0.003l-1.286-3.489c-0.01-0.029-0.02-0.06-0.02-0.096c0-0.182,0.103-0.289,0.276-0.289c0.13,0,0.22,0.064,0.27,0.192
					l1.051,2.861l1.017-2.876c0.046-0.126,0.144-0.191,0.274-0.191c0.17,0,0.276,0.108,0.276,0.283c0,0.028-0.006,0.054-0.014,0.077
					l-0.006,0.03c-0.76,2.127-1.199,3.365-1.424,4.016c-0.159,0.464-0.408,0.808-0.739,1.021
					C106.412,115.196,106.189,115.262,105.96,115.262z M105.873,114.886c-0.031,0-0.054,0.014-0.066,0.083
					c-0.009,0.05-0.005,0.075,0.068,0.088c0.022,0.006,0.052,0.006,0.084,0.006c0.191,0,0.379-0.057,0.557-0.169
					c0.292-0.188,0.513-0.496,0.657-0.917c0.226-0.649,0.663-1.884,1.419-4.001l0.005-0.028c0.002-0.007,0.008-0.022,0.008-0.028
					c0-0.071-0.02-0.084-0.076-0.084c-0.057,0-0.073,0.024-0.083,0.05l-0.003,0.017l-1.201,3.392l-1.242-3.381
					c-0.021-0.054-0.042-0.063-0.083-0.063c-0.049,0-0.076,0.005-0.076,0.09c0,0.006,0.006,0.022,0.008,0.029l1.316,3.547
					l-0.151,0.407c-0.164,0.448-0.385,0.735-0.674,0.876c-0.16,0.083-0.311,0.111-0.448,0.09
					C105.887,114.887,105.88,114.886,105.873,114.886z"/>
			</g>
			<g>
				<path fill="#0F4A75" d="M115.092,113.569c-0.074,0-0.129-0.034-0.163-0.109l-1.051-2.279c-0.081,0.007-0.163,0.007-0.244,0.007
					h-1.52v2.198c0,0.122-0.061,0.183-0.176,0.183c-0.122,0-0.183-0.061-0.183-0.183v-5.135c0-0.122,0.061-0.183,0.183-0.183h1.696
					c0.468,0,0.841,0.136,1.133,0.414c0.292,0.271,0.434,0.624,0.434,1.065v0.17c0,0.644-0.366,1.173-0.963,1.37l1.018,2.232
					C115.302,113.426,115.234,113.569,115.092,113.569z M113.633,110.828c0.36,0,0.645-0.102,0.862-0.312
					c0.224-0.21,0.332-0.475,0.332-0.8v-0.17c0-0.679-0.482-1.126-1.194-1.126h-1.52v2.408H113.633z"/>
				<path fill="#0F4A75" d="M115.092,113.668c-0.116,0-0.204-0.058-0.254-0.168l-1.022-2.215c-0.061,0.002-0.121,0.002-0.182,0.002
					h-1.419v2.098c0,0.175-0.106,0.283-0.276,0.283c-0.177,0-0.283-0.105-0.283-0.283v-5.135c0-0.178,0.106-0.283,0.283-0.283h1.696
					c0.497,0,0.891,0.145,1.202,0.441c0.308,0.287,0.465,0.67,0.465,1.138v0.169c0,0.655-0.353,1.192-0.928,1.427l0.973,2.135
					c0.039,0.087,0.03,0.189-0.022,0.269C115.273,113.624,115.188,113.668,115.092,113.668z M113.939,111.076l1.081,2.342
					c0.037,0.082,0.107,0.062,0.136,0.02c0.015-0.023,0.018-0.054,0.007-0.079l-1.063-2.333l0.106-0.034
					c0.552-0.182,0.895-0.67,0.895-1.275v-0.169c0-0.416-0.132-0.74-0.402-0.992c-0.273-0.261-0.622-0.388-1.065-0.388h-1.696
					c-0.067,0-0.083,0.017-0.083,0.084v5.135c0,0.067,0.016,0.084,0.083,0.084c0.052,0,0.076-0.009,0.076-0.084v-2.297h1.62
					c0.002,0,0.005,0,0.008,0c0.076,0,0.152-0.001,0.229-0.007L113.939,111.076z M113.633,110.927h-1.62v-2.607h1.62
					c0.774,0,1.294,0.493,1.294,1.227v0.169c0,0.357-0.119,0.643-0.364,0.873C114.328,110.817,114.023,110.927,113.633,110.927z
					 M112.214,110.728h1.419c0.336,0,0.595-0.093,0.792-0.284c0.203-0.191,0.302-0.43,0.302-0.729v-0.169
					c0-0.624-0.429-1.027-1.094-1.027h-1.419V110.728z"/>
			</g>
			<g>
				<path fill="#0F4A75" d="M119.238,111.411v1.981c0,0.115-0.061,0.169-0.183,0.169c-0.122,0-0.183-0.054-0.183-0.169v-0.373
					c-0.312,0.38-0.692,0.57-1.133,0.57h-0.156c-0.889,0-1.336-0.387-1.336-1.153c0-0.292,0.095-0.529,0.278-0.699
					c0.197-0.19,0.475-0.285,0.834-0.285h1.513v-0.332c0-0.292-0.102-0.536-0.312-0.739c-0.204-0.204-0.448-0.305-0.739-0.305
					h-0.156c-0.427,0-0.739,0.183-0.936,0.556c-0.054,0.102-0.135,0.129-0.244,0.074c-0.108-0.061-0.129-0.142-0.075-0.244
					c0.258-0.461,0.719-0.753,1.255-0.753h0.156c0.387,0,0.719,0.136,0.997,0.414c0.278,0.278,0.414,0.611,0.414,0.997v0.278
					C119.238,111.405,119.238,111.405,119.238,111.411z M118.871,111.805h-1.52h-0.02c-0.244,0-0.434,0.061-0.563,0.19
					c-0.109,0.102-0.163,0.251-0.163,0.441c0,0.536,0.325,0.8,0.977,0.8h0.156c0.305,0,0.583-0.136,0.821-0.414
					c0.21-0.237,0.312-0.448,0.312-0.645V111.805z"/>
				<path fill="#0F4A75" d="M117.739,113.689h-0.156c-1.187,0-1.437-0.682-1.437-1.253c0-0.317,0.107-0.584,0.31-0.772
					c0.214-0.206,0.518-0.311,0.903-0.311h1.413v-0.233c0-0.266-0.092-0.484-0.281-0.667c-0.188-0.188-0.406-0.278-0.67-0.278
					h-0.156c-0.392,0-0.669,0.165-0.848,0.504c-0.081,0.15-0.221,0.198-0.377,0.116c-0.156-0.087-0.199-0.229-0.118-0.38
					c0.283-0.506,0.785-0.806,1.344-0.806h0.156c0.415,0,0.774,0.148,1.068,0.443c0.294,0.294,0.443,0.653,0.443,1.067l0.007,2.272
					c0,0.169-0.106,0.27-0.283,0.27s-0.283-0.101-0.283-0.27v-0.119C118.476,113.549,118.13,113.689,117.739,113.689z
					 M117.359,111.552c-0.331,0-0.589,0.087-0.765,0.257c-0.165,0.152-0.248,0.363-0.248,0.627c0,0.709,0.404,1.054,1.236,1.054
					h0.156c0.409,0,0.765-0.18,1.055-0.534l0.177-0.216v0.652c0,0.047,0.003,0.07,0.083,0.07s0.083-0.023,0.083-0.07l-0.007-2.272
					c0-0.364-0.126-0.667-0.385-0.927c-0.259-0.259-0.562-0.385-0.926-0.385h-0.156c-0.486,0-0.922,0.263-1.168,0.702
					c-0.027,0.051-0.025,0.073,0.036,0.108c0.058,0.026,0.08,0.018,0.107-0.034c0.214-0.404,0.558-0.609,1.025-0.609h0.156
					c0.315,0,0.587,0.112,0.81,0.335c0.226,0.218,0.342,0.491,0.342,0.81v0.433H117.359z M117.739,113.335h-0.156
					c-0.89,0-1.077-0.489-1.077-0.899c0-0.221,0.065-0.394,0.194-0.515c0.143-0.143,0.356-0.216,0.631-0.216h1.64v0.473
					c0,0.223-0.11,0.455-0.337,0.711C118.381,113.185,118.079,113.335,117.739,113.335z M117.352,111.905
					c-0.241,0-0.406,0.055-0.513,0.16c-0.089,0.084-0.133,0.208-0.133,0.371c0,0.301,0.091,0.7,0.876,0.7h0.156
					c0.279,0,0.53-0.128,0.745-0.379c0.194-0.219,0.288-0.408,0.288-0.579v-0.273H117.352z"/>
			</g>
			<g>
				<path fill="#0F4A75" d="M123.315,112.551c0,0.271-0.163,0.516-0.488,0.739c-0.292,0.203-0.583,0.305-0.868,0.305h-0.156
					c-0.387,0-0.719-0.136-0.997-0.414c-0.278-0.278-0.421-0.61-0.421-0.997v-1.058c0-0.387,0.142-0.719,0.421-0.997
					c0.278-0.278,0.61-0.414,0.997-0.414h0.156c0.576,0,1.085,0.332,1.309,0.868c0.007,0.02,0.014,0.047,0.014,0.068
					c0,0.115-0.061,0.169-0.177,0.169c-0.081,0-0.136-0.034-0.17-0.108c-0.17-0.387-0.549-0.638-0.977-0.638h-0.156
					c-0.292,0-0.543,0.102-0.746,0.305s-0.305,0.455-0.305,0.746v1.058c0,0.292,0.102,0.543,0.305,0.746
					c0.204,0.204,0.455,0.305,0.746,0.305h0.156c0.461,0,0.882-0.298,1.018-0.739c0.027-0.081,0.081-0.122,0.17-0.122
					C123.261,112.375,123.315,112.436,123.315,112.551z"/>
				<path fill="#0F4A75" d="M121.959,113.695h-0.156c-0.415,0-0.774-0.148-1.068-0.442c-0.299-0.298-0.45-0.657-0.45-1.067v-1.059
					c0-0.41,0.151-0.77,0.45-1.067c0.294-0.295,0.653-0.443,1.068-0.443h0.156c0.625,0,1.162,0.355,1.401,0.93
					c0.011,0.032,0.021,0.07,0.021,0.106c0,0.168-0.104,0.269-0.277,0.269c-0.121,0-0.211-0.058-0.26-0.167
					c-0.155-0.352-0.502-0.579-0.886-0.579h-0.156c-0.265,0-0.492,0.094-0.676,0.276c-0.183,0.184-0.276,0.41-0.276,0.676v1.059
					c0,0.265,0.093,0.492,0.276,0.676c0.183,0.183,0.41,0.275,0.675,0.275h0.156c0.422,0,0.801-0.275,0.922-0.669
					c0.042-0.125,0.135-0.192,0.265-0.192c0.168,0,0.269,0.104,0.269,0.276c0,0.303-0.179,0.579-0.531,0.821
					C122.577,113.586,122.265,113.695,121.959,113.695z M121.803,109.815c-0.365,0-0.668,0.126-0.926,0.385
					c-0.263,0.264-0.391,0.566-0.391,0.927v1.059c0,0.36,0.128,0.663,0.391,0.927c0.259,0.258,0.562,0.384,0.926,0.384h0.156
					c0.265,0,0.538-0.097,0.811-0.287c0.3-0.206,0.445-0.421,0.445-0.657c0-0.07-0.019-0.077-0.069-0.077
					c-0.044,0-0.061,0.013-0.075,0.054c-0.146,0.475-0.604,0.808-1.112,0.808h-0.156c-0.32,0-0.595-0.112-0.817-0.334
					c-0.222-0.223-0.335-0.497-0.335-0.816v-1.059c0-0.32,0.113-0.596,0.335-0.816c0.222-0.223,0.497-0.335,0.817-0.335h0.156
					c0.463,0,0.883,0.273,1.068,0.697c0.017,0.037,0.034,0.049,0.078,0.049c0.07,0,0.076-0.02,0.076-0.069
					c0-0.004-0.002-0.018-0.009-0.037c-0.205-0.49-0.671-0.8-1.214-0.8H121.803z"/>
			</g>
			<g>
				<path fill="#0F4A75" d="M127.135,112.551c0,0.271-0.163,0.516-0.488,0.739c-0.292,0.203-0.583,0.305-0.868,0.305h-0.156
					c-0.387,0-0.719-0.136-0.997-0.414c-0.278-0.278-0.421-0.61-0.421-0.997v-1.058c0-0.387,0.142-0.719,0.421-0.997
					c0.278-0.278,0.61-0.414,0.997-0.414h0.156c0.576,0,1.085,0.332,1.309,0.868c0.007,0.02,0.014,0.047,0.014,0.068
					c0,0.115-0.061,0.169-0.177,0.169c-0.081,0-0.136-0.034-0.17-0.108c-0.17-0.387-0.549-0.638-0.977-0.638h-0.156
					c-0.292,0-0.543,0.102-0.746,0.305s-0.305,0.455-0.305,0.746v1.058c0,0.292,0.102,0.543,0.305,0.746
					c0.204,0.204,0.455,0.305,0.746,0.305h0.156c0.461,0,0.882-0.298,1.018-0.739c0.027-0.081,0.081-0.122,0.17-0.122
					C127.081,112.375,127.135,112.436,127.135,112.551z"/>
				<path fill="#0F4A75" d="M125.779,113.695h-0.156c-0.415,0-0.774-0.148-1.068-0.442c-0.299-0.298-0.45-0.657-0.45-1.067v-1.059
					c0-0.41,0.151-0.77,0.45-1.067c0.294-0.295,0.653-0.443,1.068-0.443h0.156c0.625,0,1.162,0.355,1.401,0.93
					c0.011,0.032,0.022,0.071,0.022,0.106c0,0.168-0.104,0.269-0.277,0.269c-0.121,0-0.211-0.058-0.26-0.167
					c-0.155-0.352-0.502-0.579-0.886-0.579h-0.156c-0.265,0-0.492,0.094-0.676,0.276c-0.183,0.184-0.276,0.41-0.276,0.676v1.059
					c0,0.265,0.093,0.492,0.276,0.676c0.183,0.183,0.41,0.275,0.675,0.275h0.156c0.422,0,0.801-0.275,0.922-0.669
					c0.042-0.125,0.135-0.192,0.265-0.192c0.168,0,0.269,0.104,0.269,0.276c0,0.303-0.179,0.579-0.531,0.821
					C126.397,113.586,126.085,113.695,125.779,113.695z M125.623,109.815c-0.365,0-0.668,0.126-0.926,0.385
					c-0.263,0.264-0.391,0.566-0.391,0.927v1.059c0,0.36,0.128,0.663,0.391,0.927c0.259,0.258,0.562,0.384,0.926,0.384h0.156
					c0.265,0,0.538-0.097,0.811-0.287c0.3-0.206,0.445-0.421,0.445-0.657c0-0.07-0.019-0.077-0.069-0.077
					c-0.044,0-0.061,0.013-0.075,0.054c-0.146,0.475-0.604,0.808-1.112,0.808h-0.156c-0.32,0-0.595-0.112-0.817-0.334
					c-0.222-0.223-0.335-0.497-0.335-0.816v-1.059c0-0.32,0.113-0.596,0.335-0.816c0.222-0.223,0.497-0.335,0.817-0.335h0.156
					c0.463,0,0.883,0.273,1.068,0.697c0.017,0.037,0.034,0.049,0.078,0.049c0.07,0,0.077-0.02,0.077-0.069
					c0-0.004-0.002-0.019-0.009-0.037c-0.205-0.49-0.671-0.8-1.214-0.8H125.623z"/>
			</g>
			<g>
				<path fill="#0F4A75" d="M130.602,110.129c0.278,0.278,0.42,0.61,0.42,0.997v1.058c0,0.387-0.142,0.726-0.42,1.004
					c-0.278,0.278-0.611,0.414-1.004,0.414h-0.149c-0.387,0-0.726-0.136-1.004-0.414c-0.278-0.278-0.421-0.617-0.421-1.004v-1.058
					c0-0.387,0.142-0.719,0.421-0.997c0.278-0.278,0.617-0.421,1.004-0.421h0.149C129.992,109.709,130.324,109.851,130.602,110.129z
					 M130.657,111.126c0-0.292-0.102-0.536-0.312-0.746c-0.21-0.21-0.455-0.312-0.746-0.312h-0.149
					c-0.292,0-0.543,0.102-0.753,0.312c-0.204,0.204-0.305,0.455-0.305,0.746v1.058c0,0.292,0.095,0.543,0.305,0.753
					c0.21,0.21,0.461,0.305,0.753,0.305h0.149c0.292,0,0.543-0.102,0.746-0.305c0.21-0.21,0.312-0.461,0.312-0.753V111.126z"/>
				<path fill="#0F4A75" d="M129.598,113.702h-0.149c-0.419,0-0.781-0.148-1.074-0.442c-0.299-0.298-0.45-0.66-0.45-1.074v-1.059
					c0-0.41,0.151-0.77,0.45-1.067c0.298-0.299,0.66-0.45,1.075-0.45h0.149c0.415,0,0.776,0.151,1.075,0.45l0,0
					c0.298,0.299,0.449,0.657,0.449,1.067v1.059c0,0.414-0.151,0.775-0.449,1.074C130.379,113.553,130.017,113.702,129.598,113.702z
					 M129.449,109.808c-0.36,0-0.674,0.132-0.933,0.392c-0.263,0.264-0.391,0.566-0.391,0.927v1.059
					c0,0.359,0.132,0.674,0.391,0.934c0.255,0.254,0.569,0.384,0.933,0.384h0.149c0.369,0,0.674-0.126,0.934-0.385
					s0.391-0.573,0.391-0.933v-1.059c0-0.354-0.131-0.667-0.391-0.927l0,0c-0.263-0.263-0.569-0.392-0.933-0.392H129.449z
					 M129.598,113.342h-0.149c-0.325,0-0.602-0.112-0.823-0.334c-0.222-0.223-0.335-0.499-0.335-0.823v-1.059
					c0-0.32,0.113-0.596,0.335-0.816c0.225-0.227,0.502-0.341,0.823-0.341h0.149c0.321,0,0.588,0.111,0.817,0.341
					c0.229,0.229,0.341,0.496,0.341,0.816v1.059c0,0.319-0.115,0.597-0.341,0.823C130.193,113.23,129.918,113.342,129.598,113.342z
					 M129.449,110.168c-0.27,0-0.493,0.093-0.682,0.282c-0.183,0.184-0.276,0.41-0.276,0.676v1.059c0,0.272,0.09,0.496,0.276,0.683
					c0.185,0.185,0.409,0.275,0.682,0.275h0.149c0.265,0,0.492-0.093,0.676-0.275c0.19-0.191,0.282-0.414,0.282-0.683v-1.059
					c0-0.265-0.092-0.485-0.282-0.676c-0.189-0.189-0.41-0.282-0.676-0.282H129.449z"/>
			</g>
			<g>
				<path fill="#0F4A75" d="M134.653,110.129c0.278,0.278,0.42,0.61,0.42,0.997v1.058c0,0.387-0.142,0.726-0.42,1.004
					c-0.278,0.278-0.611,0.414-1.004,0.414H133.5c-0.387,0-0.726-0.136-1.004-0.414c-0.278-0.278-0.421-0.617-0.421-1.004v-1.058
					c0-0.387,0.142-0.719,0.421-0.997c0.278-0.278,0.617-0.421,1.004-0.421h0.149C134.042,109.709,134.375,109.851,134.653,110.129z
					 M134.707,111.126c0-0.292-0.102-0.536-0.312-0.746c-0.21-0.21-0.455-0.312-0.746-0.312H133.5c-0.292,0-0.543,0.102-0.753,0.312
					c-0.204,0.204-0.305,0.455-0.305,0.746v1.058c0,0.292,0.095,0.543,0.305,0.753c0.21,0.21,0.461,0.305,0.753,0.305h0.149
					c0.292,0,0.543-0.102,0.746-0.305c0.21-0.21,0.312-0.461,0.312-0.753V111.126z"/>
				<path fill="#0F4A75" d="M133.649,113.702H133.5c-0.419,0-0.781-0.148-1.075-0.441c-0.299-0.299-0.45-0.661-0.45-1.075v-1.059
					c0-0.41,0.151-0.77,0.45-1.067c0.299-0.299,0.66-0.45,1.075-0.45h0.149c0.414,0,0.776,0.151,1.075,0.45l0,0
					c0.298,0.298,0.45,0.657,0.45,1.067v1.059c0,0.414-0.151,0.776-0.45,1.074C134.429,113.553,134.068,113.702,133.649,113.702z
					 M133.5,109.808c-0.36,0-0.674,0.132-0.933,0.392c-0.263,0.264-0.391,0.566-0.391,0.927v1.059c0,0.359,0.132,0.674,0.391,0.934
					c0.255,0.254,0.569,0.384,0.933,0.384h0.149c0.369,0,0.674-0.126,0.933-0.385s0.391-0.573,0.391-0.933v-1.059
					c0-0.354-0.132-0.667-0.391-0.927c-0.263-0.263-0.569-0.392-0.933-0.392H133.5z M133.649,113.342H133.5
					c-0.325,0-0.602-0.112-0.824-0.334c-0.222-0.222-0.335-0.499-0.335-0.823v-1.059c0-0.32,0.113-0.595,0.335-0.816
					c0.225-0.227,0.502-0.341,0.824-0.341h0.149c0.321,0,0.588,0.111,0.817,0.341c0.229,0.229,0.341,0.496,0.341,0.816v1.059
					c0,0.319-0.115,0.597-0.341,0.823C134.244,113.23,133.969,113.342,133.649,113.342z M133.5,110.168
					c-0.27,0-0.493,0.093-0.682,0.282c-0.183,0.184-0.276,0.41-0.276,0.676v1.059c0,0.273,0.09,0.496,0.276,0.683
					c0.186,0.185,0.409,0.275,0.682,0.275h0.149c0.265,0,0.492-0.093,0.676-0.275c0.19-0.191,0.282-0.414,0.282-0.683v-1.059
					c0-0.265-0.092-0.485-0.282-0.676c-0.189-0.189-0.41-0.282-0.676-0.282H133.5z"/>
			</g>
			<g>
				<path fill="#0F4A75" d="M138.704,110.136c0.278,0.278,0.42,0.61,0.42,0.997v2.239c0,0.122-0.061,0.183-0.19,0.183
					c-0.115,0-0.177-0.061-0.177-0.183v-2.239c0-0.285-0.102-0.529-0.312-0.733c-0.21-0.21-0.455-0.312-0.746-0.312h-0.156
					c-0.292,0-0.536,0.102-0.746,0.312c-0.204,0.203-0.305,0.448-0.305,0.733v2.239c0,0.122-0.061,0.183-0.19,0.183
					c-0.115,0-0.176-0.061-0.176-0.183v-3.439c0-0.115,0.061-0.177,0.176-0.177c0.129,0,0.19,0.061,0.19,0.177v0.265
					c0.278-0.319,0.631-0.475,1.051-0.475h0.156C138.087,109.722,138.426,109.858,138.704,110.136z"/>
				<path fill="#0F4A75" d="M138.934,113.655c-0.171,0-0.277-0.108-0.277-0.283v-2.238c0-0.262-0.092-0.478-0.281-0.66
					c-0.191-0.192-0.412-0.285-0.677-0.285h-0.156c-0.265,0-0.485,0.093-0.675,0.283c-0.186,0.186-0.276,0.402-0.276,0.662v2.238
					c0,0.178-0.108,0.283-0.29,0.283c-0.17,0-0.276-0.108-0.276-0.283v-3.438c0-0.171,0.106-0.276,0.276-0.276
					c0.182,0,0.29,0.104,0.29,0.276v0.025c0.265-0.224,0.584-0.336,0.951-0.336h0.156c0.419,0,0.781,0.148,1.075,0.443l0,0
					c0.298,0.298,0.45,0.657,0.45,1.067v2.238C139.224,113.549,139.116,113.655,138.934,113.655z M137.544,109.989h0.156
					c0.321,0,0.588,0.111,0.817,0.342c0.226,0.218,0.341,0.488,0.341,0.803v2.238c0,0.071,0.02,0.084,0.076,0.084
					c0.078,0,0.09-0.021,0.09-0.084v-2.238c0-0.354-0.132-0.667-0.391-0.927c-0.255-0.255-0.569-0.385-0.933-0.385h-0.156
					c-0.393,0-0.721,0.148-0.976,0.44l-0.175,0.201v-0.53c0-0.049-0.004-0.077-0.09-0.077c-0.061,0-0.076,0.017-0.076,0.077v3.438
					c0,0.071,0.02,0.084,0.076,0.084c0.078,0,0.09-0.021,0.09-0.084v-2.238c0-0.312,0.113-0.582,0.335-0.803
					C136.956,110.1,137.223,109.989,137.544,109.989z"/>
			</g>
			<path fill="#0F4A75" d="M102.862,117.435c0,0.098-0.049,0.147-0.147,0.147h-1.319v3.974c0,0.092-0.049,0.141-0.141,0.141
				c-0.092,0-0.141-0.049-0.141-0.141v-3.974h-1.325c-0.092,0-0.141-0.049-0.141-0.147c0-0.092,0.049-0.141,0.141-0.141h2.926
				C102.813,117.294,102.862,117.343,102.862,117.435z"/>
			<path fill="#0F4A75" d="M104.729,118.966c0.228,0.223,0.342,0.494,0.342,0.814v1.77c0,0.098-0.049,0.147-0.147,0.147
				s-0.147-0.049-0.147-0.147v-1.77c0-0.239-0.081-0.44-0.25-0.603c-0.168-0.168-0.369-0.25-0.603-0.25h-0.13
				c-0.234,0-0.434,0.081-0.603,0.25c-0.168,0.163-0.25,0.364-0.25,0.603v1.77c0,0.098-0.049,0.147-0.147,0.147
				s-0.147-0.049-0.147-0.147v-4.105c0-0.098,0.049-0.147,0.147-0.147s0.147,0.049,0.147,0.147v1.569
				c0.228-0.255,0.51-0.385,0.852-0.385h0.13C104.235,118.63,104.506,118.744,104.729,118.966z"/>
			<path fill="#0F4A75" d="M107.997,118.955c0.222,0.223,0.331,0.489,0.331,0.798v0.337c0,0.092-0.049,0.141-0.141,0.141h-1.965
				v0.369c0,0.239,0.081,0.44,0.244,0.603c0.163,0.163,0.364,0.244,0.603,0.244h0.13c0.364,0,0.679-0.222,0.793-0.57
				c0.022-0.065,0.071-0.098,0.141-0.098c0.098,0,0.147,0.049,0.147,0.152c0,0.016,0,0.027-0.006,0.043
				c-0.168,0.456-0.597,0.766-1.075,0.766h-0.13c-0.31,0-0.581-0.109-0.804-0.331c-0.223-0.223-0.337-0.494-0.337-0.809v-0.847
				c0-0.309,0.114-0.575,0.337-0.798c0.223-0.223,0.494-0.337,0.804-0.337h0.13C107.508,118.619,107.774,118.733,107.997,118.955z
				 M108.035,119.753c0-0.233-0.081-0.434-0.244-0.597c-0.163-0.163-0.358-0.244-0.592-0.244h-0.13c-0.239,0-0.44,0.082-0.603,0.244
				c-0.163,0.163-0.244,0.364-0.244,0.597v0.19h1.813V119.753z"/>
			<path fill="#0F4A75" d="M113.62,120.405v0.136c0,0.32-0.13,0.592-0.391,0.82c-0.255,0.223-0.57,0.337-0.934,0.337h-1.385
				c-0.092,0-0.141-0.043-0.141-0.136v-4.121c0-0.092,0.049-0.141,0.141-0.141h1.303c0.407,0,0.722,0.109,0.95,0.331
				c0.201,0.19,0.299,0.434,0.299,0.733v0.114c0,0.407-0.185,0.706-0.559,0.896C113.338,119.574,113.62,119.965,113.62,120.405z
				 M112.214,117.582h-1.156v1.661h1.156c0.57,0,0.961-0.31,0.961-0.765v-0.114C113.175,117.886,112.795,117.582,112.214,117.582z
				 M113.333,120.405c0-0.244-0.103-0.451-0.304-0.619s-0.445-0.255-0.733-0.255h-1.238v1.884h1.238
				c0.288,0,0.532-0.087,0.733-0.255c0.201-0.174,0.304-0.38,0.304-0.619V120.405z"/>
			<path fill="#0F4A75" d="M116.524,118.955c0.222,0.223,0.331,0.489,0.331,0.798v0.337c0,0.092-0.049,0.141-0.141,0.141h-1.965
				v0.369c0,0.239,0.081,0.44,0.244,0.603c0.163,0.163,0.364,0.244,0.603,0.244h0.13c0.364,0,0.679-0.222,0.793-0.57
				c0.022-0.065,0.071-0.098,0.141-0.098c0.098,0,0.147,0.049,0.147,0.152c0,0.016,0,0.027-0.006,0.043
				c-0.168,0.456-0.597,0.766-1.075,0.766h-0.13c-0.31,0-0.581-0.109-0.804-0.331c-0.223-0.223-0.337-0.494-0.337-0.809v-0.847
				c0-0.309,0.114-0.575,0.337-0.798c0.223-0.223,0.494-0.337,0.804-0.337h0.13C116.036,118.619,116.302,118.733,116.524,118.955z
				 M116.562,119.753c0-0.233-0.081-0.434-0.244-0.597c-0.163-0.163-0.358-0.244-0.592-0.244h-0.13c-0.239,0-0.44,0.082-0.603,0.244
				c-0.163,0.163-0.244,0.364-0.244,0.597v0.19h1.813V119.753z"/>
			<path fill="#0F4A75" d="M119.982,119.982v1.585c0,0.092-0.049,0.136-0.147,0.136c-0.098,0-0.147-0.043-0.147-0.136v-0.299
				c-0.25,0.304-0.554,0.456-0.907,0.456h-0.125c-0.711,0-1.07-0.309-1.07-0.923c0-0.234,0.076-0.424,0.223-0.559
				c0.157-0.152,0.38-0.228,0.668-0.228h1.211v-0.266c0-0.234-0.082-0.429-0.25-0.592c-0.163-0.163-0.358-0.244-0.592-0.244h-0.125
				c-0.342,0-0.592,0.147-0.749,0.445c-0.043,0.081-0.109,0.103-0.196,0.06c-0.087-0.049-0.103-0.114-0.06-0.195
				c0.206-0.369,0.575-0.603,1.004-0.603h0.125c0.31,0,0.576,0.109,0.798,0.331c0.223,0.223,0.331,0.488,0.331,0.798v0.223
				C119.982,119.976,119.982,119.976,119.982,119.982z M119.689,120.296h-1.216h-0.016c-0.196,0-0.347,0.049-0.451,0.152
				c-0.087,0.082-0.13,0.201-0.13,0.353c0,0.429,0.261,0.641,0.782,0.641h0.125c0.244,0,0.467-0.109,0.657-0.331
				c0.168-0.19,0.25-0.358,0.25-0.516V120.296z"/>
			<path fill="#0F4A75" d="M122.202,121.551c0,0.081-0.065,0.141-0.147,0.141c-0.44,0-0.918-0.293-0.918-1.124v-1.634h-0.228
				c-0.076,0-0.141-0.065-0.141-0.141c0-0.082,0.065-0.141,0.141-0.141h0.228v-0.483c0-0.081,0.065-0.147,0.141-0.147
				c0.081,0,0.147,0.065,0.147,0.147v0.483h0.532c0.082,0,0.141,0.06,0.141,0.141c0,0.076-0.06,0.141-0.141,0.141h-0.532v1.634
				c0,0.543,0.228,0.836,0.63,0.836C122.137,121.404,122.202,121.475,122.202,121.551z"/>
			<path fill="#0F4A75" d="M123.103,121.393c-0.103-0.19-0.152-0.386-0.152-0.576v-3.382c0-0.092,0.049-0.141,0.141-0.141
				c0.098,0,0.147,0.049,0.147,0.141v3.382c0,0.234,0.054,0.407,0.168,0.527c0.06,0.06,0.125,0.098,0.19,0.114
				c0.092,0.022,0.125,0.082,0.103,0.174c-0.016,0.07-0.06,0.109-0.136,0.109C123.379,121.741,123.228,121.626,123.103,121.393z"/>
			<path fill="#0F4A75" d="M126.257,118.955c0.222,0.223,0.331,0.489,0.331,0.798v0.337c0,0.092-0.049,0.141-0.141,0.141h-1.965
				v0.369c0,0.239,0.081,0.44,0.244,0.603c0.163,0.163,0.364,0.244,0.603,0.244h0.13c0.364,0,0.679-0.222,0.793-0.57
				c0.022-0.065,0.071-0.098,0.141-0.098c0.098,0,0.147,0.049,0.147,0.152c0,0.016,0,0.027-0.006,0.043
				c-0.168,0.456-0.597,0.766-1.075,0.766h-0.13c-0.31,0-0.581-0.109-0.804-0.331s-0.337-0.494-0.337-0.809v-0.847
				c0-0.309,0.114-0.575,0.337-0.798c0.223-0.223,0.494-0.337,0.804-0.337h0.13C125.768,118.619,126.034,118.733,126.257,118.955z
				 M126.295,119.753c0-0.233-0.081-0.434-0.244-0.597c-0.163-0.163-0.358-0.244-0.592-0.244h-0.13c-0.239,0-0.44,0.082-0.603,0.244
				c-0.163,0.163-0.244,0.364-0.244,0.597v0.19h1.813V119.753z"/>
			<path fill="#0F4A75" d="M129.161,120.215c0.234,0.163,0.353,0.391,0.353,0.679c0,0.228-0.109,0.424-0.326,0.592
				c-0.201,0.157-0.429,0.239-0.673,0.239h-0.13c-0.429,0-0.809-0.223-0.994-0.57c-0.043-0.081-0.027-0.147,0.06-0.19
				c0.087-0.049,0.152-0.027,0.195,0.06c0.13,0.244,0.429,0.413,0.738,0.413h0.13c0.168,0,0.331-0.054,0.478-0.163
				c0.152-0.109,0.228-0.234,0.228-0.38c0-0.19-0.076-0.337-0.223-0.44c-0.109-0.076-0.315-0.157-0.619-0.244
				c-0.304-0.087-0.516-0.174-0.635-0.255c-0.201-0.13-0.304-0.315-0.304-0.548c0-0.461,0.369-0.776,0.89-0.776h0.13
				c0.407,0,0.695,0.141,0.863,0.424c0.054,0.087,0.038,0.152-0.049,0.201c-0.081,0.049-0.147,0.033-0.195-0.049
				c-0.114-0.19-0.32-0.282-0.619-0.282h-0.13c-0.353,0-0.603,0.196-0.603,0.483c0,0.136,0.065,0.244,0.196,0.326
				c0.092,0.054,0.271,0.12,0.538,0.196C128.791,120.025,129.025,120.123,129.161,120.215z"/>
		</g>
	</g>
</g>
</svg>
