<?xml version="1.0" encoding="utf-8"?>
<!-- Generator: Adobe Illustrator 18.1.1, SVG Export Plug-In . SVG Version: 6.00 Build 0)  -->
<svg version="1.1" id="Layer_1" xmlns="http://www.w3.org/2000/svg" xmlns:xlink="http://www.w3.org/1999/xlink" x="0px" y="0px"
	 width="600px" height="350px" viewBox="154 -66 600 350" enable-background="new 154 -66 600 350" xml:space="preserve">
<g id="sketch">
	<g>
		<path fill="#45444B" d="M551.087,116.77c-1.564-0.112-3.182-0.227-4.642-0.954c-3.502-1.744-4.354-3.656-4.181-6.357
			c-0.346-12.085,7.043-33.346,7.047-33.357c0.412-1.241,0.946-2.664,1.503-4.146c1.842-4.896,3.93-10.446,3.402-13.938
			c-0.748-4.946-2.625-7.481-5.579-7.534c-5.314-0.095-12.315,8.728-14.334,11.434c-0.94,1.26-1.937,2.658-2.993,4.139
			c-5.737,8.044-12.876,18.056-21.223,20.973c-1.095,0.382-2.063,0.569-2.879,0.555h-0.002c-1.211-0.022-2.087-0.487-2.679-1.422
			c-2.745-4.337,1-17.121,3.516-22.686c0.417-0.924,1.057-2.108,1.796-3.479c2.984-5.529,7.07-13.1,4.453-17.578
			c-1.247-2.132-3.854-3.249-7.75-3.319c-0.421-0.008-0.859-0.003-1.321,0.013c-10.931,0.395-15.019,19.847-17.215,30.297
			c-0.191,0.91-0.366,1.74-0.527,2.469c-2.662,12.038-4.967,28.908,5.69,36.395c2.695,1.894,5.821,2.885,9.29,2.947
			c2.145,0.038,4.353-0.287,6.561-0.966c1.707-0.525,3.499-1.852,5.398-3.257c2.617-1.937,5.3-3.95,7.704-3.742
			c0.438,0.081,0.999,0.421,1.232,1.522c0.043,0.283,0.085,0.564,0.118,0.822c0.011,0.106,0.024,0.201,0.032,0.237
			c1.573,12.874-5.718,17.161-17.02,22.233l-0.18,0.081c-12.538,5.626-25.503,11.443-37.061,19.15
			c-27.705,18.474-39.663,44.909-33.669,74.438c1.914,9.429,6.26,19.006,11.926,26.277c6.914,8.874,15.237,13.649,24.067,13.807
			h0.001c2.285,0.041,4.629-0.23,6.965-0.804c24.219-5.951,34.618-38.529,41.5-60.086l0.65-2.033
			c3.387-10.569,5.832-21.569,7.858-31.049c0.419-1.959,0.807-4.231,1.219-6.635c1.394-8.145,3.13-18.281,7.356-23.531
			c1.615-2.006,5.812-3.387,9.87-4.723c5.215-1.717,10.609-3.491,12.113-6.975c0.631-1.463,0.529-3.108-0.305-4.889
			C556.964,117.19,553.977,116.977,551.087,116.77z M516.544,149.058c-0.013,0.098-0.046,0.364-0.088,0.694c0,0.001,0,0.002,0,0.002
			v0.001v0.001c-0.001,0-0.001,0.001-0.001,0.001c-2.509,19.981-7.944,48.584-19.581,71.378
			c-10.814,21.181-19.23,23.97-21.552,24.32c-0.63,0.095-1.265,0.138-1.887,0.126c-9.477-0.169-15.643-12.481-17.855-17.767
			c-8.736-20.881-4.008-42.464,12.648-57.735c4.59-4.208,34.01-25.751,44.896-25.556c1.248,0.022,2.159,0.348,2.708,0.968
			C516.475,146.213,516.713,147.413,516.544,149.058z"/>
		<path fill="#45444B" d="M366.808,14.739c-5.331-6.932-17.727-8.959-25.434-6.922c-16.219,4.287-32.277,11.639-47.498,18.596
			c-6.806,3.111-12.985,5.551-19.96,8.061c-9.066,3.263-3.557-7.748-1.722-12.526c3.17-8.254,7.594-16.026,11.217-24.086
			c1.516-3.375,3.318-6.973,4.845-10.668c0.003-0.008,0.007-0.014,0.011-0.022c8.423-17.975,1.233-25.714-3.314-28.599
			c-0.72-0.542-1.494-0.973-2.324-1.256c-0.162-0.055-0.329-0.101-0.493-0.151c-0.141-0.05-0.22-0.074-0.22-0.074l-0.002,0.006
			c-5.707-1.698-12.683-0.921-18.107,1.187c-29.742,11.559-59.417,28.259-81.5,51.521c-2.162,2.277-3.575,4.921-5.443,7.278
			c-2.325,2.934-4.398,5.621-6.227,8.902c-3.735,6.701-5.801,12.897-7.492,20.376c-3.177,14.06,4.479,28.926,18.647,33.617
			c14.657,4.853,29.704-1.933,43.959-2.819c3.744-0.233,5.068-0.077,3.295,4.651c-0.948,2.528-2.226,5.717-3.741,7.92
			c-3.885,5.648-8.776,3.709-14.154,5.953c-5.68,2.369-9.915,11.204-8.935,17.056c0.687,4.102,3.963,7.058,5.143,10.942
			c1.108,3.65-0.806,6.27-3.039,9.611c-4.219,6.311-12.862,12.832-14.907,20.226c-1.564,5.657,3.236,14.023,9.339,13.808
			c6.753-0.238,14.589-8.747,18.439-13.664c4.256-5.436,6.771-11.882,9.69-18.052c2.993-6.329,5.563-13.433,9.529-19.246
			c3.722-5.455,11.381-8.48,17.137-11.455c7.393-3.821,15.013-6.17,22.499-9.612c4.725-2.173,13.939-5.336,9.079-11.751
			c-5.01-6.612-14.623-5.539-21.377-3.479c-2.232,0.681-5.488,2.009-8.377,2.489c-0.085,0.008-0.187,0.023-0.33,0.056
			c-0.388,0.056-0.764,0.089-1.133,0.108c-2.086-0.134-1.964-2.452-1.964-2.452s0.051-0.387,0.137-1.03l2.823-9.813
			c0,0,0.855-4.949,8.824-8.913c0.03-0.015,0.055-0.028,0.084-0.043c7.135-3.531,14.262-7.182,21.566-10.44
			c15.066-6.721,29.951-16.123,45.976-20.723c5.446-1.563,17.326-4.478,22.073,0.073c2.624,2.517,2.163,5.426,6.151,6.838
			c2.697,0.955,7.935,1.288,10.339-0.714C375.259,31.051,370.09,19.006,366.808,14.739z M269.56-10.076
			c-5.056,17.465-22.696,52.594-22.699,52.6c-0.54,1.192-1.127,2.313-1.799,3.286c-2.653,3.84-6.994,6.174-11.716,7.907
			c0,0-50.561,15.535-52.171-2.736c-0.018-6.821,4.264-15.056,7.025-19.121c6.993-10.299,16.509-17.453,25.952-25.323
			c15.509-12.925,33.814-22.106,53.237-27.076c1.165-0.202,3.864-0.252,3.677,3.663C270.93-14.793,270.308-12.368,269.56-10.076
			L269.56-10.076z"/>
		<path fill="#45444B" d="M388.401,95.167c-0.402-0.54-0.88-0.997-1.417-1.389c-3.182-2.005-6.84-1.476-8.379-1.117
			c-7.448,1.819-6.599,8.322-6.511,8.878c0.217,7.3-3.08,14.719-6.554,21.182c0,0-3.185,5.606,1.029,9.862
			c0.029,0.029,0.057,0.049,0.085,0.077c1.631,1.792,4.045,2.775,6.568,2.626h0.001c2.865-0.169,5.404-1.706,7.149-4.326
			c4.926-7.399,7.078-17.102,8.977-25.662l0.452-2.031C389.842,103.071,390.81,98.399,388.401,95.167z"/>
		<path fill="#45444B" d="M309.178,117.234c-0.005-0.011-0.011-0.023-0.016-0.035C309.167,117.21,309.172,117.222,309.178,117.234z"
			/>
		<path fill="#45444B" d="M308.881,116.485c-0.009-0.028-0.017-0.055-0.026-0.084C308.863,116.43,308.872,116.457,308.881,116.485z"
			/>
		<path fill="#45444B" d="M309.021,116.88c-0.009-0.023-0.018-0.047-0.027-0.071C309.003,116.833,309.012,116.857,309.021,116.88z"
			/>
		<path fill="#45444B" d="M308.498,113.8c-0.001-0.05-0.001-0.102-0.002-0.153C308.496,113.699,308.497,113.75,308.498,113.8z"/>
		<path fill="#45444B" d="M308.5,113.154c0.001-0.055,0.002-0.11,0.004-0.166C308.502,113.044,308.501,113.099,308.5,113.154z"/>
		<path fill="#45444B" d="M308.756,116.034c-0.006-0.023-0.012-0.046-0.017-0.069C308.744,115.988,308.75,116.01,308.756,116.034z"
			/>
		<path fill="#45444B" d="M308.521,114.394c-0.002-0.034-0.003-0.07-0.005-0.104C308.517,114.325,308.518,114.36,308.521,114.394z"
			/>
		<path fill="#45444B" d="M309.582,106.42c0.025-0.088,0.05-0.175,0.077-0.264C309.633,106.245,309.607,106.332,309.582,106.42z"/>
		<path fill="#45444B" d="M310.499,103.717c0.028-0.071,0.056-0.142,0.084-0.213C310.555,103.575,310.527,103.646,310.499,103.717z"
			/>
		<path fill="#45444B" d="M308.53,112.439c0.003-0.048,0.005-0.094,0.008-0.142C308.535,112.345,308.533,112.391,308.53,112.439z"/>
		<polygon fill="#45444B" points="308.6,111.567 308.6,111.569 308.6,111.566 		"/>
		<polygon fill="#45444B" points="309.277,107.594 309.276,107.596 309.278,107.589 		"/>
		<path fill="#45444B" d="M309.215,107.873c-0.01,0.048-0.02,0.095-0.031,0.143c0.014-0.064,0.027-0.127,0.042-0.192
			C309.223,107.84,309.219,107.857,309.215,107.873z"/>
		<path fill="#45444B" d="M354.357,78.097c-1.503-3.399-3.725-6.466-6.175-9.242c-2.585-2.93-5.493-5.588-8.631-7.916
			c-2.648-1.964-5.673-4.135-8.961-4.813c-1.371-0.282-2.807-0.225-4.083,0.388c-1.511,0.726-2.662,2.114-3.432,3.574
			c-2.136,4.046-0.416,8.769,0.274,12.955c-3.227-0.514-6.403-1.686-9.715-1.358c-2.941,0.292-5.545,1.742-7.681,3.73
			c-2.06,1.918-3.74,4.23-5.365,6.514c-1.822,2.561-3.463,5.251-4.932,8.03c-5.374,10.165-8.661,21.805-6.501,33.312
			c0.912,4.854,2.847,9.764,6.523,13.196c2.256,2.106,5.107,3.733,8.105,4.487c2.821,0.709,5.763,0.583,8.564-0.157
			c6.003-1.585,11.295-5.5,16.025-9.377c5.082-4.166,9.729-8.88,13.81-14.031c3.985-5.027,7.577-10.552,10.328-16.354
			c2.687-5.666,4.491-12.036,3.29-18.324C355.498,81.124,355.01,79.574,354.357,78.097
			C350.881,70.237,359.468,89.654,354.357,78.097z M336.616,88.439c-0.509,4.609-2.806,8.926-5.334,12.733
			c-1.772,2.669-3.798,5.16-5.986,7.498c-2.538,2.71-5.356,5.382-8.663,7.131c-0.766,0.405-1.526,0.704-2.371,0.911
			c-0.776,0.19-1.694,0.375-2.498,0.355c-1.937-0.047-2.817-1.866-3.087-3.546c-0.313-1.948-0.08-3.979,0.26-5.908
			c0.358-2.03,0.906-3.998,1.664-5.917c1.541-3.899,3.659-7.567,5.942-11.074c1.351-2.075,2.775-4.105,4.287-6.066
			c0.974-1.263,1.944-2.547,2.776-3.91c0.584-0.958,1.139-1.987,1.469-3.064c0.176-0.575,0.104-1.125,0-1.706
			c-0.078-0.436-0.196-0.94,0.179-1.272c0.449-0.398,1.445-0.503,1.999-0.36c1.413,0.364,2.426,2.137,3.256,3.21
			c2.076,2.683,5.257,4.594,6.001,8.132C336.708,86.523,336.721,87.49,336.616,88.439C336.05,93.562,337.159,83.52,336.616,88.439z"
			/>
		<path fill="#45444B" d="M662.641,115.011c-8.096-0.73-13.153-3.113-14.026-3.551C652.737,113.881,657.856,114.906,662.641,115.011
			z"/>
		<path fill="#45444B" d="M648.478,111.389c0,0,0.048,0.025,0.137,0.071c-0.044-0.026-0.09-0.05-0.134-0.077L648.478,111.389z"/>
		<path fill="#45444B" d="M745.566-32.45c0.009-0.754-0.062-1.508-0.175-2.253c-0.39-2.586-1.423-5.166-3.651-6.692
			c-1.948-1.333-4.388-1.666-6.696-1.684c-2.985-0.024-5.946,0.443-8.896,0.849c-3.194,0.44-6.388,0.88-9.583,1.32
			c-4.195,0.578-8.391,1.156-12.586,1.734c-3.111,0.429-6.222,0.857-9.333,1.286c-3.329,0.459-6.595,1.15-9.443,3.048
			c-2.013,1.342-3.903,3.278-4.765,5.585c-0.505,1.35-0.97,2.717-1.454,4.074c-1.169,3.278-2.336,6.556-3.501,9.835
			c-1.523,4.284-3.042,8.569-4.558,12.855c-1.569,4.438-3.133,8.877-4.688,13.319c-1.288,3.68-2.572,7.361-3.83,11.051
			c-0.436,1.277-0.869,2.555-1.29,3.837c-0.603,1.835-1.16,3.73-0.823,5.679c0.363,2.098,1.752,3.574,3.506,4.493
			c4.215,2.607,8.098,1.421,8.102,1.42c1.403-0.219,3.529-1.012,5.239-3.659l0,0c0.253-0.392,0.499-0.79,0.748-1.185
			c0.894-1.423,1.81-2.832,2.786-4.2c2.102-2.944,4.464-5.747,7.224-8.099c2.769-2.361,5.914-4.266,9.431-5.27
			c0.829-0.236,1.674-0.413,2.528-0.535c0.472-0.061,10.346-1.164,11.894,11.981c0.045,0.648,0.081,1.294,0.11,1.933
			c0.047,1.052,0.069,2.104,0.072,3.156c-0.014,0.465-0.02,0.904-0.018,1.322c-0.089,6.44-0.96,12.873-2.461,19.13
			c-1.778,7.415-4.428,14.65-7.992,21.395c-3.065,5.801-6.841,11.368-11.648,15.872c-2.015,1.888-4.23,3.589-6.666,4.901
			c-2.585,1.392-5.363,2.143-8.237,2.69c-4.326,0.823-9.462,1.313-13.511-0.841c-1.516-0.806-2.843-2.043-3.464-3.668
			c-0.144-0.375-0.309-0.743-0.434-1.126c-0.516-1.591-0.552-3.297-0.535-4.954c0.033-3.2,0.307-6.551-1.492-9.377
			c-1.221-1.917-3.163-2.982-5.299-3.033l0,0c0,0-11.474-1.671-11.703,19.712h0.009c0.015,1.738,0.232,3.473,0.657,5.166
			c1.42,5.667,5.082,11.531,10.645,13.845c5.08,2.113,10.675,3.031,16.152,3.172c5.554,0.143,11.114-0.577,16.483-1.988
			c4.286-1.126,8.443-2.695,12.447-4.592c8.926-4.842,24.454-17.294,33.375-47.634c11.981-40.752-5.273-54.597-8.159-56.58
			c-4.32-2.842-9.444-4.403-14.63-4.433c-3.35-0.019-6.666,0.553-9.868,1.518l-0.001-0.01c0,0-6.173,1.943-4.971-2.423
			c0.598-2.11,1.224-4.213,1.909-6.296c0.981-2.987,2.14-5.906,4.189-8.337c1.243-1.475,2.772-2.736,4.535-3.538
			c1.103-0.502,2.179-0.684,3.37-0.857c5.713-0.828,11.426-1.655,17.142-2.468c1.893-0.269,3.784-0.551,5.667-0.87
			c0.018-0.003,0.035-0.005,0.054-0.007c14.796-2.178,16.578-5.513,16.578-5.513h-0.006
			C745.055-29.459,745.547-30.835,745.566-32.45z"/>
		<path fill="#45444B" d="M486.32,39.23c3.49-0.367,4.921-1.288,4.921-1.288c1.296-0.796,2.504-1.799,3.32-3.099
			c0.845-1.347,1.133-2.983,1.262-4.546c0.134-1.611-0.083-3.375-1.23-4.604c-0.6-0.643-1.375-1.068-2.186-1.386
			c-0.513-0.201-1.894-0.41-2.091-1.032c-0.182-0.573,1.52-5.144,1.689-5.672c0.282-0.877,0.6-1.743,0.926-2.605
			c0.678-1.792,1.403-3.566,2.141-5.334c1.321-3.166,4.954-12.187,6.35-15.321c1.29-2.895,2.36-5.882,3.568-8.811
			c1.047-2.538,2.172-4.999,2.742-7.698c0.455-2.157,0.717-4.639-0.196-6.718c-0.979-2.229-3.251-3.03-5.551-3.009
			c-2.711,0.025-4.908,1.862-6.526,3.873c-1.848,2.298-3.19,4.973-4.43,7.633c-3.521,7.549-9.548,20.856-13.244,28.321
			c-1.527,3.083-2.902,6.287-4.663,9.247c-1.449,2.435-3.31,4.55-5.799,5.955c-1.524,0.861-3.171,1.418-4.853,1.877
			c-2.217,0.604-4.453,1.135-6.691,1.657c-4.447,1.037-8.926,2.022-13.256,3.489c-2.844,0.963-5.911,2.371-7.786,4.814
			c-1.972,2.569-1.595,5.945,0.295,8.469c0.028,0.038,0.062,0.069,0.091,0.107c0.685,0.589,1.639,0.945,2.978,1.044
			c3.694,0.273,19.318-3.589,16.918,0.51c-1.049,1.792-3.809,6.4-6.501,13.696c-0.881,2.605-1.698,5.232-2.445,7.878
			c-0.315,1.116-0.569,2.258-0.921,3.363c-0.323,1.015-0.619,2.03-0.825,3.077c-0.446,2.258-0.899,4.521-1.285,6.79
			c-0.757,4.451-1.23,8.961-1.377,13.474c-0.203,6.212,0.203,12.643,2.29,18.548c1.521,4.304,4.142,8.758,8.438,10.726
			c1.605,0.735,3.127,1.487,4.864,1.896c1.884,0.444,3.889,0.585,5.786,0.133c3.064-0.73,6.119-2.441,8.468-4.516
			c2.315-2.046,4.153-4.887,3.798-8.096c-0.17-1.539-0.744-3.171-1.814-4.318c-0.864-0.927-2.019-1.448-3.212-1.815
			c-2.781-0.855-5.709-1.312-7.609-3.765c-1.085-1.4-1.665-3.124-1.983-4.849c-0.172-0.93-0.305-1.898-0.319-2.846
			c-0.015-1.096,0.129-2.216,0.232-3.307c0.775-8.21,2.738-16.298,5.303-24.123c1.349-4.115,2.849-8.204,4.633-12.152
			c2.855-6.318,4.97-11.373,11.473-14.631C482.014,40.266,483.969,39.478,486.32,39.23z"/>
		<path fill="#45444B" d="M426.123,75.342c0.639-1.858,1.299-3.78,1.903-5.686c1.048-3.305,1.99-6.553,2.011-9.949
			c0.009-1.421-0.139-2.613-0.453-3.643c-0.043-0.149-0.097-0.298-0.152-0.446c-0.011-0.033-0.018-0.054-0.026-0.074
			c-0.083-0.214-0.178-0.426-0.293-0.652c-0.041-0.083-0.087-0.167-0.134-0.251c-0.433-0.779-1.016-1.511-1.732-2.176
			c-0.029-0.029-0.071-0.067-0.113-0.105l-0.003-0.004l-0.06-0.053c-0.287-0.265-0.608-0.518-0.944-0.742
			c-0.184-0.127-0.302-0.197-0.302-0.197l-0.596-0.352l-0.008,0.022c-1.888-0.94-4.006-1.147-5.688-1.218
			c-0.298-0.013-0.597-0.019-0.897-0.019c-2.265,0-4.3,0.376-6.049,1.116c-2.5,1.059-3.91,2.867-5.402,4.78
			c-0.292,0.375-0.589,0.755-0.9,1.137c-3.689,4.536-7.15,7.444-10.581,8.893l-0.167,0.071c-0.727,0.309-1.825,0.776-2.695,0.776
			c-0.291,0-0.535-0.053-0.723-0.159c-0.686-0.384-0.593-1.378-0.401-2.637c0.048-0.315,0.094-0.613,0.114-0.888
			c0.225-3.068-0.34-6.157-1.591-8.698c-1.906-3.872-5.711-6.183-10.177-6.184c-2.237,0-4.498,0.581-6.537,1.682
			c-5.756,3.106-9.751,9.991-10.177,17.54c-0.398,7.041,2.956,13.668,8.543,16.882c2.316,1.332,4.807,1.98,7.617,1.98
			c4.388,0,8.779-1.606,12.901-3.25c2.375-0.948,4.763-2.37,7.517-4.475c1.39-1.063,2.793-2.27,4.17-3.588
			c0.12-0.115,0.24-0.233,0.361-0.353c0.477-0.471,0.969-0.959,1.515-1.249c0.301-0.16,0.487-0.194,0.591-0.194
			c0.094,0,0.151,0.025,0.21,0.092c0.196,0.221,0.482,0.941,0.198,3.286c-0.461,3.818-1.603,7.574-2.707,11.207
			c-0.688,2.262-1.399,4.602-1.945,6.946c-2.006,8.622-1.954,15.968,0.159,22.458c2.229,6.847,7.15,11.639,13.165,12.819
			c0.968,0.19,2.125,0.295,3.258,0.295c2.061,0,7.004-0.377,8.382-3.872c1.291-3.275-0.359-6.272-1.815-8.916
			c-0.355-0.645-0.691-1.254-0.987-1.864c-2.438-5.018-3.749-9.961-3.897-14.694c-0.186-5.971,1.354-12.083,3.047-17.799
			C424.389,80.386,425.27,77.822,426.123,75.342z M425.81,52.037c-0.171-0.118-0.276-0.18-0.276-0.181
			C425.533,51.856,425.638,51.919,425.81,52.037z M373.799,50.191c-1.649,0.89-3.107,2.072-4.362,3.456
			C370.693,52.263,372.15,51.081,373.799,50.191c0.317-0.171,0.64-0.324,0.966-0.468C374.44,49.867,374.116,50.02,373.799,50.191z
			 M379.511,85.516c-0.039,0-0.078-0.003-0.117-0.003c0.063,0,0.126,0.002,0.189,0.002
			C379.558,85.514,379.534,85.516,379.511,85.516z M379.553,48.594c0.171-0.007,0.341-0.016,0.511-0.016
			c0.116,0,0.231,0.007,0.346,0.01C380.125,48.58,379.839,48.582,379.553,48.594z M403.702,74.362
			c-0.635,0.608-1.286,1.201-1.95,1.776C402.416,75.562,403.067,74.97,403.702,74.362c0.347-0.333,0.695-0.698,1.07-1.027
			C404.397,73.664,404.049,74.029,403.702,74.362z M402.88,94.641c-0.851,3.657-1.403,7.385-1.449,11.104
			C401.477,102.026,402.029,98.298,402.88,94.641c0.559-2.405,1.285-4.774,2.005-7.145C404.165,89.867,403.439,92.236,402.88,94.641
			z M407.542,76.427c-0.013,0.108-0.03,0.214-0.044,0.322C407.512,76.641,407.529,76.534,407.542,76.427
			c0-0.003,0.001-0.007,0.001-0.01C407.543,76.42,407.542,76.424,407.542,76.427z M412.81,51.441
			c-1.065,0.451-1.923,1.049-2.678,1.742C410.888,52.49,411.746,51.892,412.81,51.441z M415.756,129.226
			c-1.035-0.203-2.016-0.519-2.946-0.924C413.74,128.707,414.721,129.023,415.756,129.226c0.008,0.002,0.017,0.003,0.025,0.004
			C415.773,129.229,415.764,129.228,415.756,129.226z M417.847,50.387c0.263-0.011,0.526-0.017,0.789-0.017h0.009
			C418.379,50.37,418.113,50.376,417.847,50.387z M418.903,129.51c-0.048,0-0.093-0.003-0.14-0.003
			c0.18,0.001,0.361,0.001,0.544-0.003C419.173,129.506,419.037,129.51,418.903,129.51z M423.969,115.679
			c-1.687-3.473-2.977-7.226-3.584-11.065C420.992,108.453,422.282,112.206,423.969,115.679z"/>
		<path fill="#45444B" d="M586.412,52.601c-0.947,0.007-1.935-0.026-2.763-0.505c-1.597-0.924-2.035-2.86-2.044-4.578
			c-0.018-3.598,1.361-7.1,2.594-10.423c1.368-3.686,3.13-7.842,4.576-11.497c1.463-3.699,3.676-9.379,5.135-13.08
			c1.293-3.278,2.732-6.486,4.065-9.747c1.433-3.507,2.991-7.563,2.38-11.421c-0.278-1.756-1.131-3.466-2.617-4.499
			c-1.378-0.958-3.137-1.182-4.733-0.69c-1.868,0.576-3.206,2.058-4.354,3.568c-1.314,1.728-2.36,3.646-3.266,5.614
			c-1.751,3.808-3.007,7.825-4.474,11.746c-2.895,7.737-5.843,15.455-8.813,23.163c-1.293,3.357-2.559,6.73-3.926,10.058
			c-1.532,3.728-3.037,8.176-4.193,12.043c-0.53,1.771-0.992,3.598-1.113,5.449c-0.122,1.87,0.094,3.834,0.47,5.667
			c0.528,2.578,1.655,5.166,4.031,6.526c2.193,1.256,4.881,1.308,7.337,1.177c2.235-0.119,4.444-0.47,6.669-0.684
			c4.791-0.46,9.581-0.92,14.372-1.38c1.253-0.12,2.514-0.24,3.762-0.361c1.359-0.136,3.081-0.056,4.183,0.842
			c1.432,1.166,0.694,3.046,0.093,4.459c-1.648,3.878-3.398,7.02-5.046,10.897c-0.889,2.091-1.812,4.164-2.783,6.219
			c-1.802,3.814-3.685,7.65-4.718,11.76c-1.025,4.076-1,8.311,0.585,12.243c1.373,3.406,3.82,6.691,7.557,7.609
			c3.564,0.876,7.251-0.768,9.772-3.259c2.578-2.548,4.084-5.974,5.199-9.369c0.651-1.983,1.187-3.995,1.672-6.022l0.001,0.003
			l4.46-17.476l-0.003,0.003c0.097-0.304,0.195-0.622,0.296-0.981c2.118-7.545,4.693-16.168,12.429-19.77
			c1.971-0.917,4.238-1.316,6.359-1.684c2.068-0.359,4.165-0.501,6.23-0.859c1.623-0.281,3.254-0.794,4.608-1.758
			c1.748-1.244,2.484-3.016,2.915-5.043c0.319-1.501,1.013-4.235,0.386-5.693c-0.595-1.385-2.07-2.107-3.441-2.495
			c-1.375-0.389-2.796-0.486-4.2-0.711c-1.863-0.298-3.857-1.191-5.429-2.216c-1.455-0.949-2.457-2.274-2.674-4.019
			c-0.235-1.887,0.072-3.833,0.504-5.67c0.399-1.699,0.658-3.465,1.306-5.084c1.758-4.814,3.511-9.63,5.25-14.451
			c2.928-8.123,5.905-16.227,8.909-24.323c1.399-3.772,2.8-7.543,4.179-11.323c0.547-1.499,1.103-2.995,1.633-4.5
			c0.515-1.463,1.004-2.975,1.123-4.53c0.106-1.389-0.143-2.818-1.081-3.897c-1.178-1.355-3.121-1.988-4.856-2.17
			c-3.717-0.389-6.778,1.882-8.881,4.742c-2.055,2.796-3.234,6.033-4.477,9.238c-1.42,3.662-2.845,7.321-4.269,10.982
			c-3.246,8.345-6.469,16.7-9.69,25.055c-2.085,5.408-4.902,12.8-7.067,18.173l0.74-1.991l-4.572,11.846
			c-0.038,0.106-0.081,0.215-0.126,0.325l-0.04,0.103l-0.006,0.004c-0.097,0.221-0.206,0.45-0.35,0.701
			c-1.575,2.735-4.051,5.337-7.346,5.704C608.841,50.361,587.513,52.593,586.412,52.601z"/>
	</g>
</g>
</svg>
