<?xml version="1.0" encoding="utf-8"?>
<!-- Generator: Adobe Illustrator 19.1.0, SVG Export Plug-In . SVG Version: 6.00 Build 0)  -->
<svg version="1.1" id="Layer_1" xmlns="http://www.w3.org/2000/svg" xmlns:xlink="http://www.w3.org/1999/xlink" x="0px" y="0px"
	 width="403.504px" height="403.504px" viewBox="0 0 403.504 403.504" enable-background="new 0 0 403.504 403.504"
	 xml:space="preserve">
<g>
	<defs>
		<circle id="SVGID_17_" cx="201.752" cy="201" r="201.752"/>
	</defs>
	<use xlink:href="#SVGID_17_"  overflow="visible" fill="#E7E9EA"/>
	<clipPath id="SVGID_2_">
		<use xlink:href="#SVGID_17_"  overflow="visible"/>
	</clipPath>
	<g clip-path="url(#SVGID_2_)">
		<g>
			<g>
				<rect x="67.047" y="78.807" fill="#FFFFFF" width="185.586" height="185.586"/>
				<path fill="#B48A67" d="M256.581,272.29H63.098c-2.181,0-3.949-1.768-3.949-3.949V74.858c0-2.181,1.768-3.949,3.949-3.949
					h193.483c2.181,0,3.949,1.768,3.949,3.949v193.483C260.53,270.522,258.762,272.29,256.581,272.29z M67.047,264.392h185.586
					V78.807H67.047V264.392z"/>
				<path fill="#945D2E" d="M67.047,78.807h185.586l6.741-6.741c-0.715-0.715-1.702-1.157-2.792-1.157H63.098
					c-2.181,0-3.949,1.768-3.949,3.949v193.483c0,1.09,0.442,2.077,1.157,2.792l6.741-6.741V78.807z"/>
				<g id="POLYLINE_638_">
					
						<line fill="none" stroke="#0F4B75" stroke-width="0.4" stroke-linecap="round" stroke-miterlimit="10" x1="157.236" y1="139.721" x2="156.574" y2="124.876"/>
				</g>
				<g id="POLYLINE_636_">
					
						<line fill="none" stroke="#0F4B75" stroke-width="0.4" stroke-linecap="round" stroke-miterlimit="10" x1="155.822" y1="139.816" x2="154.366" y2="123.519"/>
				</g>
				<g id="POLYLINE_634_">
					
						<line fill="none" stroke="#0F4B75" stroke-width="0.4" stroke-linecap="round" stroke-miterlimit="10" x1="154.414" y1="139.973" x2="151.739" y2="120.086"/>
				</g>
				<g id="POLYLINE_632_">
					
						<line fill="none" stroke="#0F4B75" stroke-width="0.4" stroke-linecap="round" stroke-miterlimit="10" x1="153.014" y1="140.193" x2="147.29" y2="108.42"/>
				</g>
				<g id="POLYLINE_630_">
					
						<line fill="none" stroke="#0F4B75" stroke-width="0.4" stroke-linecap="round" stroke-miterlimit="10" x1="151.625" y1="140.476" x2="146.59" y2="118.253"/>
				</g>
				<g id="POLYLINE_628_">
					
						<line fill="none" stroke="#0F4B75" stroke-width="0.4" stroke-linecap="round" stroke-miterlimit="10" x1="150.25" y1="140.82" x2="140.459" y2="105.077"/>
				</g>
				<g id="POLYLINE_626_">
					
						<line fill="none" stroke="#0F4B75" stroke-width="0.4" stroke-linecap="round" stroke-miterlimit="10" x1="148.892" y1="141.224" x2="132.618" y2="90.755"/>
				</g>
				<g id="POLYLINE_624_">
					
						<line fill="none" stroke="#0F4B75" stroke-width="0.4" stroke-linecap="round" stroke-miterlimit="10" x1="147.553" y1="141.689" x2="137.578" y2="114.904"/>
				</g>
				<g id="POLYLINE_622_">
					
						<line fill="none" stroke="#0F4B75" stroke-width="0.4" stroke-linecap="round" stroke-miterlimit="10" x1="146.237" y1="142.213" x2="131.741" y2="108.027"/>
				</g>
				<g id="POLYLINE_620_">
					
						<line fill="none" stroke="#0F4B75" stroke-width="0.4" stroke-linecap="round" stroke-miterlimit="10" x1="144.945" y1="142.796" x2="134.142" y2="120.181"/>
				</g>
				<g id="POLYLINE_618_">
					
						<line fill="none" stroke="#0F4B75" stroke-width="0.4" stroke-linecap="round" stroke-miterlimit="10" x1="143.68" y1="143.435" x2="127.861" y2="113.79"/>
				</g>
				<g id="POLYLINE_616_">
					
						<line fill="none" stroke="#0F4B75" stroke-width="0.4" stroke-linecap="round" stroke-miterlimit="10" x1="142.445" y1="144.13" x2="132.427" y2="127.216"/>
				</g>
				<g id="POLYLINE_614_">
					
						<line fill="none" stroke="#0F4B75" stroke-width="0.4" stroke-linecap="round" stroke-miterlimit="10" x1="141.242" y1="144.879" x2="120.921" y2="113.815"/>
				</g>
				<g id="POLYLINE_612_">
					
						<line fill="none" stroke="#0F4B75" stroke-width="0.4" stroke-linecap="round" stroke-miterlimit="10" x1="140.073" y1="145.681" x2="122.07" y2="120.668"/>
				</g>
				<g id="POLYLINE_610_">
					
						<line fill="none" stroke="#0F4B75" stroke-width="0.4" stroke-linecap="round" stroke-miterlimit="10" x1="138.942" y1="146.534" x2="113.33" y2="114.102"/>
				</g>
				<g id="POLYLINE_608_">
					
						<line fill="none" stroke="#0F4B75" stroke-width="0.4" stroke-linecap="round" stroke-miterlimit="10" x1="137.849" y1="147.437" x2="125.44" y2="133.087"/>
				</g>
				<g id="POLYLINE_606_">
					
						<line fill="none" stroke="#0F4B75" stroke-width="0.4" stroke-linecap="round" stroke-miterlimit="10" x1="136.798" y1="148.388" x2="111.699" y2="121.849"/>
				</g>
				<g id="POLYLINE_604_">
					
						<line fill="none" stroke="#0F4B75" stroke-width="0.4" stroke-linecap="round" stroke-miterlimit="10" x1="135.791" y1="149.384" x2="121.139" y2="135.214"/>
				</g>
				<g id="POLYLINE_602_">
					
						<line fill="none" stroke="#0F4B75" stroke-width="0.4" stroke-linecap="round" stroke-miterlimit="10" x1="134.828" y1="150.424" x2="108.311" y2="126.973"/>
				</g>
				<g id="POLYLINE_600_">
					
						<line fill="none" stroke="#0F4B75" stroke-width="0.4" stroke-linecap="round" stroke-miterlimit="10" x1="133.913" y1="151.507" x2="115.382" y2="136.535"/>
				</g>
				<g id="POLYLINE_598_">
					
						<line fill="none" stroke="#0F4B75" stroke-width="0.4" stroke-linecap="round" stroke-miterlimit="10" x1="133.047" y1="152.629" x2="112.682" y2="137.624"/>
				</g>
				<g id="POLYLINE_596_">
					
						<line fill="none" stroke="#0F4B75" stroke-width="0.4" stroke-linecap="round" stroke-miterlimit="10" x1="132.232" y1="153.788" x2="109.713" y2="138.696"/>
				</g>
				<g id="POLYLINE_594_">
					
						<line fill="none" stroke="#0F4B75" stroke-width="0.4" stroke-linecap="round" stroke-miterlimit="10" x1="131.47" y1="154.983" x2="101.73" y2="136.917"/>
				</g>
				<g id="POLYLINE_592_">
					
						<line fill="none" stroke="#0F4B75" stroke-width="0.4" stroke-linecap="round" stroke-miterlimit="10" x1="130.761" y1="156.21" x2="110.048" y2="144.859"/>
				</g>
				<g id="POLYLINE_590_">
					
						<line fill="none" stroke="#0F4B75" stroke-width="0.4" stroke-linecap="round" stroke-miterlimit="10" x1="130.108" y1="157.468" x2="105.804" y2="145.524"/>
				</g>
				<g id="POLYLINE_588_">
					
						<line fill="none" stroke="#0F4B75" stroke-width="0.4" stroke-linecap="round" stroke-miterlimit="10" x1="129.511" y1="158.753" x2="82.71" y2="138.29"/>
				</g>
				<g id="POLYLINE_586_">
					
						<line fill="none" stroke="#0F4B75" stroke-width="0.4" stroke-linecap="round" stroke-miterlimit="10" x1="128.973" y1="160.064" x2="99.521" y2="148.721"/>
				</g>
				<g id="POLYLINE_584_">
					
						<line fill="none" stroke="#0F4B75" stroke-width="0.4" stroke-linecap="round" stroke-miterlimit="10" x1="128.493" y1="161.397" x2="105.944" y2="153.848"/>
				</g>
				<g id="POLYLINE_582_">
					
						<line fill="none" stroke="#0F4B75" stroke-width="0.4" stroke-linecap="round" stroke-miterlimit="10" x1="128.073" y1="162.751" x2="104.134" y2="155.906"/>
				</g>
				<g id="POLYLINE_580_">
					
						<line fill="none" stroke="#0F4B75" stroke-width="0.4" stroke-linecap="round" stroke-miterlimit="10" x1="127.714" y1="164.122" x2="83.911" y2="153.683"/>
				</g>
				<g id="POLYLINE_578_">
					
						<line fill="none" stroke="#0F4B75" stroke-width="0.4" stroke-linecap="round" stroke-miterlimit="10" x1="127.416" y1="165.508" x2="81.383" y2="156.684"/>
				</g>
				<g id="POLYLINE_576_">
					
						<line fill="none" stroke="#0F4B75" stroke-width="0.4" stroke-linecap="round" stroke-miterlimit="10" x1="127.18" y1="166.905" x2="71.066" y2="158.721"/>
				</g>
				<g id="POLYLINE_574_">
					
						<line fill="none" stroke="#0F4B75" stroke-width="0.4" stroke-linecap="round" stroke-miterlimit="10" x1="127.007" y1="168.312" x2="94.012" y2="164.992"/>
				</g>
				<g id="POLYLINE_572_">
					
						<line fill="none" stroke="#0F4B75" stroke-width="0.4" stroke-linecap="round" stroke-miterlimit="10" x1="126.897" y1="169.724" x2="100.187" y2="168.235"/>
				</g>
				<g id="POLYLINE_570_">
					
						<line fill="none" stroke="#0F4B75" stroke-width="0.4" stroke-linecap="round" stroke-miterlimit="10" x1="126.849" y1="171.141" x2="97.517" y2="170.814"/>
				</g>
				<g id="POLYLINE_568_">
					
						<line fill="none" stroke="#0F4B75" stroke-width="0.4" stroke-linecap="round" stroke-miterlimit="10" x1="126.865" y1="172.558" x2="109.957" y2="173.123"/>
				</g>
				<g id="POLYLINE_564_">
					
						<line fill="none" stroke="#0F4B75" stroke-width="0.4" stroke-linecap="round" stroke-miterlimit="10" x1="126.944" y1="173.973" x2="103.515" y2="175.804"/>
				</g>
				<g id="POLYLINE_562_">
					
						<line fill="none" stroke="#0F4B75" stroke-width="0.4" stroke-linecap="round" stroke-miterlimit="10" x1="127.086" y1="175.383" x2="106.068" y2="177.972"/>
				</g>
				<g id="POLYLINE_560_">
					
						<line fill="none" stroke="#0F4B75" stroke-width="0.4" stroke-linecap="round" stroke-miterlimit="10" x1="127.291" y1="176.785" x2="104.776" y2="180.583"/>
				</g>
				<g id="POLYLINE_558_">
					
						<line fill="none" stroke="#0F4B75" stroke-width="0.4" stroke-linecap="round" stroke-miterlimit="10" x1="127.557" y1="178.177" x2="98.086" y2="184.51"/>
				</g>
				<g id="POLYLINE_556_">
					
						<line fill="none" stroke="#0F4B75" stroke-width="0.4" stroke-linecap="round" stroke-miterlimit="10" x1="127.886" y1="179.556" x2="78.445" y2="192.509"/>
				</g>
				<g id="POLYLINE_555_">
					
						<line fill="none" stroke="#0F4B75" stroke-width="0.4" stroke-linecap="round" stroke-miterlimit="10" x1="128.276" y1="180.919" x2="107.887" y2="187.243"/>
				</g>
				<g id="POLYLINE_554_">
					
						<line fill="none" stroke="#0F4B75" stroke-width="0.4" stroke-linecap="round" stroke-miterlimit="10" x1="128.725" y1="182.262" x2="87.681" y2="197.029"/>
				</g>
				<g id="POLYLINE_295_">
					
						<line fill="none" stroke="#0F4B75" stroke-width="0.4" stroke-linecap="round" stroke-miterlimit="10" x1="129.235" y1="183.585" x2="90.887" y2="199.344"/>
				</g>
				<g id="POLYLINE_294_">
					
						<line fill="none" stroke="#0F4B75" stroke-width="0.4" stroke-linecap="round" stroke-miterlimit="10" x1="129.803" y1="184.883" x2="126.918" y2="186.222"/>
				</g>
				<g id="POLYLINE_293_">
					
						<line fill="none" stroke="#0F4B75" stroke-width="0.4" stroke-linecap="round" stroke-miterlimit="10" x1="130.428" y1="186.155" x2="99.379" y2="202.281"/>
				</g>
				<g id="POLYLINE_292_">
					
						<line fill="none" stroke="#0F4B75" stroke-width="0.4" stroke-linecap="round" stroke-miterlimit="10" x1="131.109" y1="187.398" x2="107.142" y2="201.235"/>
				</g>
				<g id="POLYLINE_291_">
					
						<line fill="none" stroke="#0F4B75" stroke-width="0.4" stroke-linecap="round" stroke-miterlimit="10" x1="131.844" y1="188.609" x2="115.693" y2="198.92"/>
				</g>
				<g id="POLYLINE_290_">
					
						<line fill="none" stroke="#0F4B75" stroke-width="0.4" stroke-linecap="round" stroke-miterlimit="10" x1="132.633" y1="189.786" x2="93.05" y2="217.613"/>
				</g>
				<g id="POLYLINE_289_">
					
						<line fill="none" stroke="#0F4B75" stroke-width="0.4" stroke-linecap="round" stroke-miterlimit="10" x1="133.474" y1="190.928" x2="119.008" y2="202.092"/>
				</g>
				<g id="POLYLINE_288_">
					
						<line fill="none" stroke="#0F4B75" stroke-width="0.4" stroke-linecap="round" stroke-miterlimit="10" x1="134.365" y1="192.03" x2="121.103" y2="203.242"/>
				</g>
				<g id="POLYLINE_287_">
					
						<line fill="none" stroke="#0F4B75" stroke-width="0.4" stroke-linecap="round" stroke-miterlimit="10" x1="135.304" y1="193.091" x2="120.211" y2="207.051"/>
				</g>
				<g id="POLYLINE_286_">
					
						<line fill="none" stroke="#0F4B75" stroke-width="0.4" stroke-linecap="round" stroke-miterlimit="10" x1="136.289" y1="194.11" x2="120.363" y2="210.214"/>
				</g>
				<g id="POLYLINE_285_">
					
						<line fill="none" stroke="#0F4B75" stroke-width="0.4" stroke-linecap="round" stroke-miterlimit="10" x1="137.318" y1="195.084" x2="126.251" y2="207.321"/>
				</g>
				<g id="POLYLINE_284_">
					
						<line fill="none" stroke="#0F4B75" stroke-width="0.4" stroke-linecap="round" stroke-miterlimit="10" x1="138.39" y1="196.011" x2="122.252" y2="215.537"/>
				</g>
				<g id="POLYLINE_283_">
					
						<line fill="none" stroke="#0F4B75" stroke-width="0.4" stroke-linecap="round" stroke-miterlimit="10" x1="139.503" y1="196.889" x2="124.335" y2="217.002"/>
				</g>
				<g id="POLYLINE_282_">
					
						<line fill="none" stroke="#0F4B75" stroke-width="0.4" stroke-linecap="round" stroke-miterlimit="10" x1="140.653" y1="197.717" x2="126.726" y2="218.005"/>
				</g>
				<g id="POLYLINE_281_">
					
						<line fill="none" stroke="#0F4B75" stroke-width="0.4" stroke-linecap="round" stroke-miterlimit="10" x1="141.839" y1="198.493" x2="129.067" y2="219.001"/>
				</g>
				<g id="POLYLINE_280_">
					
						<line fill="none" stroke="#0F4B75" stroke-width="0.4" stroke-linecap="round" stroke-miterlimit="10" x1="143.058" y1="199.215" x2="133.652" y2="215.936"/>
				</g>
				<g id="POLYLINE_279_">
					
						<line fill="none" stroke="#0F4B75" stroke-width="0.4" stroke-linecap="round" stroke-miterlimit="10" x1="144.309" y1="199.882" x2="140.164" y2="208.084"/>
				</g>
				<g id="POLYLINE_278_">
					
						<line fill="none" stroke="#0F4B75" stroke-width="0.4" stroke-linecap="round" stroke-miterlimit="10" x1="145.587" y1="200.493" x2="139.625" y2="213.726"/>
				</g>
				<g id="POLYLINE_277_">
					
						<line fill="none" stroke="#0F4B75" stroke-width="0.4" stroke-linecap="round" stroke-miterlimit="10" x1="146.892" y1="201.046" x2="129.097" y2="245.758"/>
				</g>
				<g id="POLYLINE_276_">
					
						<line fill="none" stroke="#0F4B75" stroke-width="0.4" stroke-linecap="round" stroke-miterlimit="10" x1="148.22" y1="201.541" x2="141.458" y2="221.016"/>
				</g>
				<g id="POLYLINE_275_">
					
						<line fill="none" stroke="#0F4B75" stroke-width="0.4" stroke-linecap="round" stroke-miterlimit="10" x1="149.569" y1="201.976" x2="144.721" y2="218.242"/>
				</g>
				<g id="POLYLINE_274_">
					
						<line fill="none" stroke="#0F4B75" stroke-width="0.4" stroke-linecap="round" stroke-miterlimit="10" x1="150.936" y1="202.35" x2="141.604" y2="239.66"/>
				</g>
				<g id="POLYLINE_273_">
					
						<line fill="none" stroke="#0F4B75" stroke-width="0.4" stroke-linecap="round" stroke-miterlimit="10" x1="152.318" y1="202.664" x2="147.24" y2="227.647"/>
				</g>
				<g id="POLYLINE_272_">
					
						<line fill="none" stroke="#0F4B75" stroke-width="0.4" stroke-linecap="round" stroke-miterlimit="10" x1="153.713" y1="202.915" x2="149.49" y2="229.77"/>
				</g>
				<g id="POLYLINE_271_">
					
						<line fill="none" stroke="#0F4B75" stroke-width="0.4" stroke-linecap="round" stroke-miterlimit="10" x1="155.117" y1="203.104" x2="152.267" y2="228.586"/>
				</g>
				<g id="POLYLINE_270_">
					
						<line fill="none" stroke="#0F4B75" stroke-width="0.4" stroke-linecap="round" stroke-miterlimit="10" x1="156.529" y1="203.23" x2="155.864" y2="213.168"/>
				</g>
				<g id="POLYLINE_269_">
					
						<line fill="none" stroke="#0F4B75" stroke-width="0.4" stroke-linecap="round" stroke-miterlimit="10" x1="157.945" y1="203.293" x2="157.109" y2="240.784"/>
				</g>
				<g id="POLYLINE_268_">
					
						<line fill="none" stroke="#0F4B75" stroke-width="0.4" stroke-linecap="round" stroke-miterlimit="10" x1="159.362" y1="203.293" x2="159.971" y2="230.641"/>
				</g>
				<g id="POLYLINE_267_">
					
						<line fill="none" stroke="#0F4B75" stroke-width="0.4" stroke-linecap="round" stroke-miterlimit="10" x1="160.778" y1="203.23" x2="163.678" y2="246.555"/>
				</g>
				<g id="POLYLINE_266_">
					
						<line fill="none" stroke="#0F4B75" stroke-width="0.4" stroke-linecap="round" stroke-miterlimit="10" x1="162.189" y1="203.104" x2="166.086" y2="237.937"/>
				</g>
				<g id="POLYLINE_265_">
					
						<line fill="none" stroke="#0F4B75" stroke-width="0.4" stroke-linecap="round" stroke-miterlimit="10" x1="163.594" y1="202.915" x2="168.478" y2="233.977"/>
				</g>
				<g id="POLYLINE_264_">
					
						<line fill="none" stroke="#0F4B75" stroke-width="0.4" stroke-linecap="round" stroke-miterlimit="10" x1="164.988" y1="202.664" x2="174.816" y2="251.013"/>
				</g>
				<g id="POLYLINE_263_">
					
						<line fill="none" stroke="#0F4B75" stroke-width="0.4" stroke-linecap="round" stroke-miterlimit="10" x1="166.371" y1="202.35" x2="177.688" y2="247.599"/>
				</g>
				<g id="POLYLINE_262_">
					
						<line fill="none" stroke="#0F4B75" stroke-width="0.4" stroke-linecap="round" stroke-miterlimit="10" x1="167.737" y1="201.976" x2="173.272" y2="220.545"/>
				</g>
				<g id="POLYLINE_261_">
					
						<line fill="none" stroke="#0F4B75" stroke-width="0.4" stroke-linecap="round" stroke-miterlimit="10" x1="169.086" y1="201.541" x2="184.851" y2="246.94"/>
				</g>
				<g id="POLYLINE_260_">
					
						<line fill="none" stroke="#0F4B75" stroke-width="0.4" stroke-linecap="round" stroke-miterlimit="10" x1="170.414" y1="201.046" x2="183.704" y2="234.438"/>
				</g>
				<g id="POLYLINE_259_">
					
						<line fill="none" stroke="#0F4B75" stroke-width="0.4" stroke-linecap="round" stroke-miterlimit="10" x1="171.719" y1="200.493" x2="186.142" y2="232.502"/>
				</g>
				<g id="POLYLINE_258_">
					
						<line fill="none" stroke="#0F4B75" stroke-width="0.4" stroke-linecap="round" stroke-miterlimit="10" x1="172.998" y1="199.882" x2="185.074" y2="223.779"/>
				</g>
				<g id="POLYLINE_257_">
					
						<line fill="none" stroke="#0F4B75" stroke-width="0.4" stroke-linecap="round" stroke-miterlimit="10" x1="174.248" y1="199.215" x2="192.382" y2="231.448"/>
				</g>
				<g id="POLYLINE_256_">
					
						<line fill="none" stroke="#0F4B75" stroke-width="0.4" stroke-linecap="round" stroke-miterlimit="10" x1="175.468" y1="198.493" x2="198.462" y2="235.413"/>
				</g>
				<g id="POLYLINE_255_">
					
						<line fill="none" stroke="#0F4B75" stroke-width="0.4" stroke-linecap="round" stroke-miterlimit="10" x1="176.654" y1="197.717" x2="199.51" y2="231.013"/>
				</g>
				<g id="POLYLINE_254_">
					
						<line fill="none" stroke="#0F4B75" stroke-width="0.4" stroke-linecap="round" stroke-miterlimit="10" x1="177.804" y1="196.889" x2="190.565" y2="213.811"/>
				</g>
				<g id="POLYLINE_253_">
					
						<line fill="none" stroke="#0F4B75" stroke-width="0.4" stroke-linecap="round" stroke-miterlimit="10" x1="178.916" y1="196.011" x2="197.768" y2="218.82"/>
				</g>
				<g id="POLYLINE_252_">
					
						<line fill="none" stroke="#0F4B75" stroke-width="0.4" stroke-linecap="round" stroke-miterlimit="10" x1="179.988" y1="195.084" x2="211.451" y2="229.871"/>
				</g>
				<g id="POLYLINE_251_">
					
						<line fill="none" stroke="#0F4B75" stroke-width="0.4" stroke-linecap="round" stroke-miterlimit="10" x1="181.018" y1="194.11" x2="190.075" y2="203.269"/>
				</g>
				<g id="POLYLINE_250_">
					
						<line fill="none" stroke="#0F4B75" stroke-width="0.4" stroke-linecap="round" stroke-miterlimit="10" x1="182.003" y1="193.091" x2="207.984" y2="217.121"/>
				</g>
				<g id="POLYLINE_249_">
					
						<line fill="none" stroke="#0F4B75" stroke-width="0.4" stroke-linecap="round" stroke-miterlimit="10" x1="182.942" y1="192.03" x2="219.208" y2="222.691"/>
				</g>
				<g id="POLYLINE_248_">
					
						<line fill="none" stroke="#0F4B75" stroke-width="0.4" stroke-linecap="round" stroke-miterlimit="10" x1="183.832" y1="190.928" x2="202.582" y2="205.398"/>
				</g>
				<g id="POLYLINE_247_">
					
						<line fill="none" stroke="#0F4B75" stroke-width="0.4" stroke-linecap="round" stroke-miterlimit="10" x1="184.673" y1="189.786" x2="198.934" y2="199.812"/>
				</g>
				<g id="POLYLINE_246_">
					
						<line fill="none" stroke="#0F4B75" stroke-width="0.4" stroke-linecap="round" stroke-miterlimit="10" x1="185.462" y1="188.609" x2="217.937" y2="209.34"/>
				</g>
				<g id="POLYLINE_245_">
					
						<line fill="none" stroke="#0F4B75" stroke-width="0.4" stroke-linecap="round" stroke-miterlimit="10" x1="186.198" y1="187.398" x2="198.672" y2="194.6"/>
				</g>
				<g id="POLYLINE_244_">
					
						<line fill="none" stroke="#0F4B75" stroke-width="0.4" stroke-linecap="round" stroke-miterlimit="10" x1="186.879" y1="186.155" x2="192.855" y2="189.259"/>
				</g>
				<g id="POLYLINE_243_">
					
						<line fill="none" stroke="#0F4B75" stroke-width="0.4" stroke-linecap="round" stroke-miterlimit="10" x1="187.504" y1="184.883" x2="210.234" y2="195.431"/>
				</g>
				<g id="POLYLINE_242_">
					
						<line fill="none" stroke="#0F4B75" stroke-width="0.4" stroke-linecap="round" stroke-miterlimit="10" x1="188.072" y1="183.585" x2="225.617" y2="199.014"/>
				</g>
				<g id="POLYLINE_241_">
					
						<line fill="none" stroke="#0F4B75" stroke-width="0.4" stroke-linecap="round" stroke-miterlimit="10" x1="188.581" y1="182.262" x2="199.214" y2="186.088"/>
				</g>
				<g id="POLYLINE_240_">
					
						<line fill="none" stroke="#0F4B75" stroke-width="0.4" stroke-linecap="round" stroke-miterlimit="10" x1="189.031" y1="180.919" x2="200.498" y2="184.476"/>
				</g>
				<g id="POLYLINE_239_">
					
						<line fill="none" stroke="#0F4B75" stroke-width="0.4" stroke-linecap="round" stroke-miterlimit="10" x1="189.421" y1="179.556" x2="243.224" y2="193.652"/>
				</g>
				<g id="POLYLINE_238_">
					
						<line fill="none" stroke="#0F4B75" stroke-width="0.4" stroke-linecap="round" stroke-miterlimit="10" x1="189.749" y1="178.177" x2="239.358" y2="188.838"/>
				</g>
				<g id="POLYLINE_237_">
					
						<line fill="none" stroke="#0F4B75" stroke-width="0.4" stroke-linecap="round" stroke-miterlimit="10" x1="190.016" y1="176.785" x2="211.187" y2="180.356"/>
				</g>
				<g id="POLYLINE_236_">
					
						<line fill="none" stroke="#0F4B75" stroke-width="0.4" stroke-linecap="round" stroke-miterlimit="10" x1="190.22" y1="175.383" x2="249.409" y2="182.673"/>
				</g>
				<g id="POLYLINE_235_">
					
						<line fill="none" stroke="#0F4B75" stroke-width="0.4" stroke-linecap="round" stroke-miterlimit="10" x1="190.362" y1="173.973" x2="213.341" y2="175.769"/>
				</g>
				<g id="POLYLINE_234_">
					
						<line fill="none" stroke="#0F4B75" stroke-width="0.4" stroke-linecap="round" stroke-miterlimit="10" x1="190.441" y1="172.558" x2="196.809" y2="172.771"/>
				</g>
				<g id="POLYLINE_233_">
					
						<line fill="none" stroke="#0F4B75" stroke-width="0.4" stroke-linecap="round" stroke-miterlimit="10" x1="190.457" y1="171.141" x2="239.464" y2="170.595"/>
				</g>
				<g id="POLYLINE_232_">
					
						<line fill="none" stroke="#0F4B75" stroke-width="0.4" stroke-linecap="round" stroke-miterlimit="10" x1="190.41" y1="169.724" x2="248.153" y2="166.505"/>
				</g>
				<g id="POLYLINE_231_">
					
						<line fill="none" stroke="#0F4B75" stroke-width="0.4" stroke-linecap="round" stroke-miterlimit="10" x1="190.299" y1="168.312" x2="229.694" y2="164.348"/>
				</g>
				<g id="POLYLINE_230_">
					
						<line fill="none" stroke="#0F4B75" stroke-width="0.4" stroke-linecap="round" stroke-miterlimit="10" x1="190.126" y1="166.905" x2="237.105" y2="160.053"/>
				</g>
				<g id="POLYLINE_229_">
					
						<line fill="none" stroke="#0F4B75" stroke-width="0.4" stroke-linecap="round" stroke-miterlimit="10" x1="189.89" y1="165.508" x2="226.024" y2="158.581"/>
				</g>
				<g id="POLYLINE_228_">
					
						<line fill="none" stroke="#0F4B75" stroke-width="0.4" stroke-linecap="round" stroke-miterlimit="10" x1="189.592" y1="164.122" x2="204.011" y2="160.686"/>
				</g>
				<g id="POLYLINE_227_">
					
						<line fill="none" stroke="#0F4B75" stroke-width="0.4" stroke-linecap="round" stroke-miterlimit="10" x1="189.233" y1="162.751" x2="212.531" y2="156.089"/>
				</g>
				<g id="POLYLINE_226_">
					
						<line fill="none" stroke="#0F4B75" stroke-width="0.4" stroke-linecap="round" stroke-miterlimit="10" x1="188.814" y1="161.397" x2="218.163" y2="151.571"/>
				</g>
				<g id="POLYLINE_225_">
					
						<line fill="none" stroke="#0F4B75" stroke-width="0.4" stroke-linecap="round" stroke-miterlimit="10" x1="188.334" y1="160.064" x2="234.935" y2="142.116"/>
				</g>
				<g id="POLYLINE_224_">
					
						<line fill="none" stroke="#0F4B75" stroke-width="0.4" stroke-linecap="round" stroke-miterlimit="10" x1="187.795" y1="158.753" x2="208.714" y2="149.606"/>
				</g>
				<g id="POLYLINE_223_">
					
						<line fill="none" stroke="#0F4B75" stroke-width="0.4" stroke-linecap="round" stroke-miterlimit="10" x1="187.198" y1="157.468" x2="216.779" y2="142.931"/>
				</g>
				<g id="POLYLINE_222_">
					
						<line fill="none" stroke="#0F4B75" stroke-width="0.4" stroke-linecap="round" stroke-miterlimit="10" x1="186.545" y1="156.21" x2="228.947" y2="132.973"/>
				</g>
				<g id="POLYLINE_221_">
					
						<line fill="none" stroke="#0F4B75" stroke-width="0.4" stroke-linecap="round" stroke-miterlimit="10" x1="185.837" y1="154.983" x2="205.2" y2="143.22"/>
				</g>
				<g id="POLYLINE_220_">
					
						<line fill="none" stroke="#0F4B75" stroke-width="0.4" stroke-linecap="round" stroke-miterlimit="10" x1="185.074" y1="153.788" x2="205.225" y2="140.283"/>
				</g>
				<g id="POLYLINE_219_">
					
						<line fill="none" stroke="#0F4B75" stroke-width="0.4" stroke-linecap="round" stroke-miterlimit="10" x1="184.259" y1="152.629" x2="228.796" y2="119.814"/>
				</g>
				<g id="POLYLINE_218_">
					
						<line fill="none" stroke="#0F4B75" stroke-width="0.4" stroke-linecap="round" stroke-miterlimit="10" x1="183.393" y1="151.507" x2="199.815" y2="138.239"/>
				</g>
				<g id="POLYLINE_217_">
					
						<line fill="none" stroke="#0F4B75" stroke-width="0.4" stroke-linecap="round" stroke-miterlimit="10" x1="182.478" y1="150.424" x2="201.965" y2="133.191"/>
				</g>
				<g id="POLYLINE_216_">
					
						<line fill="none" stroke="#0F4B75" stroke-width="0.4" stroke-linecap="round" stroke-miterlimit="10" x1="181.516" y1="149.384" x2="202.104" y2="129.473"/>
				</g>
				<g id="POLYLINE_215_">
					
						<line fill="none" stroke="#0F4B75" stroke-width="0.4" stroke-linecap="round" stroke-miterlimit="10" x1="180.508" y1="148.388" x2="202.35" y2="125.294"/>
				</g>
				<g id="POLYLINE_214_">
					
						<line fill="none" stroke="#0F4B75" stroke-width="0.4" stroke-linecap="round" stroke-miterlimit="10" x1="179.457" y1="147.437" x2="199.68" y2="124.051"/>
				</g>
				<g id="POLYLINE_213_">
					
						<line fill="none" stroke="#0F4B75" stroke-width="0.4" stroke-linecap="round" stroke-miterlimit="10" x1="178.365" y1="146.534" x2="200.893" y2="118.006"/>
				</g>
				<g id="POLYLINE_212_">
					
						<line fill="none" stroke="#0F4B75" stroke-width="0.4" stroke-linecap="round" stroke-miterlimit="10" x1="177.233" y1="145.681" x2="205.03" y2="107.061"/>
				</g>
				<g id="POLYLINE_211_">
					
						<line fill="none" stroke="#0F4B75" stroke-width="0.4" stroke-linecap="round" stroke-miterlimit="10" x1="176.065" y1="144.879" x2="185.642" y2="130.238"/>
				</g>
				<g id="POLYLINE_210_">
					
						<line fill="none" stroke="#0F4B75" stroke-width="0.4" stroke-linecap="round" stroke-miterlimit="10" x1="174.862" y1="144.13" x2="201.053" y2="99.91"/>
				</g>
				<g id="POLYLINE_209_">
					
						<line fill="none" stroke="#0F4B75" stroke-width="0.4" stroke-linecap="round" stroke-miterlimit="10" x1="173.627" y1="143.435" x2="190.176" y2="112.421"/>
				</g>
				<g id="POLYLINE_208_">
					
						<line fill="none" stroke="#0F4B75" stroke-width="0.4" stroke-linecap="round" stroke-miterlimit="10" x1="172.362" y1="142.796" x2="188.516" y2="108.976"/>
				</g>
				<g id="POLYLINE_207_">
					
						<line fill="none" stroke="#0F4B75" stroke-width="0.4" stroke-linecap="round" stroke-miterlimit="10" x1="171.07" y1="142.213" x2="186.51" y2="105.802"/>
				</g>
				<g id="POLYLINE_206_">
					
						<line fill="none" stroke="#0F4B75" stroke-width="0.4" stroke-linecap="round" stroke-miterlimit="10" x1="169.753" y1="141.689" x2="174.616" y2="128.631"/>
				</g>
				<g id="POLYLINE_205_">
					
						<line fill="none" stroke="#0F4B75" stroke-width="0.4" stroke-linecap="round" stroke-miterlimit="10" x1="168.414" y1="141.224" x2="181.002" y2="102.186"/>
				</g>
				<g id="POLYLINE_204_">
					
						<line fill="none" stroke="#0F4B75" stroke-width="0.4" stroke-linecap="round" stroke-miterlimit="10" x1="167.056" y1="140.82" x2="170.12" y2="129.634"/>
				</g>
				<g id="POLYLINE_203_">
					
						<line fill="none" stroke="#0F4B75" stroke-width="0.4" stroke-linecap="round" stroke-miterlimit="10" x1="165.681" y1="140.476" x2="169.183" y2="125.022"/>
				</g>
				<g id="POLYLINE_202_">
					
						<line fill="none" stroke="#0F4B75" stroke-width="0.4" stroke-linecap="round" stroke-miterlimit="10" x1="164.292" y1="140.193" x2="165.585" y2="133.019"/>
				</g>
				<g id="POLYLINE_201_">
					
						<line fill="none" stroke="#0F4B75" stroke-width="0.4" stroke-linecap="round" stroke-miterlimit="10" x1="162.893" y1="139.973" x2="165.135" y2="123.299"/>
				</g>
				<g id="POLYLINE_200_">
					
						<line fill="none" stroke="#0F4B75" stroke-width="0.4" stroke-linecap="round" stroke-miterlimit="10" x1="161.484" y1="139.816" x2="163.204" y2="120.57"/>
				</g>
				<g id="POLYLINE_199_">
					
						<line fill="none" stroke="#0F4B75" stroke-width="0.4" stroke-linecap="round" stroke-miterlimit="10" x1="160.07" y1="139.721" x2="161.1" y2="116.625"/>
				</g>
				<g id="POLYLINE_198_">
					
						<line fill="none" stroke="#0F4B75" stroke-width="0.4" stroke-linecap="round" stroke-miterlimit="10" x1="158.653" y1="139.689" x2="158.653" y2="105.003"/>
				</g>
				<g>
					<g>
						<path fill="#0F4B75" d="M141.384,169.226v0.185c0,0.436-0.178,0.806-0.532,1.116c-0.347,0.304-0.776,0.459-1.272,0.459h-1.886
							c-0.125,0-0.192-0.059-0.192-0.185v-5.614c0-0.125,0.067-0.192,0.192-0.192h1.776c0.554,0,0.984,0.149,1.294,0.452
							c0.274,0.258,0.407,0.591,0.407,0.998v0.155c0,0.555-0.252,0.963-0.762,1.221C141,168.094,141.384,168.627,141.384,169.226z
							 M139.469,165.381h-1.576v2.262h1.576c0.776,0,1.308-0.422,1.308-1.043v-0.155
							C140.777,165.794,140.259,165.381,139.469,165.381z M140.992,169.226c0-0.333-0.141-0.614-0.415-0.843
							c-0.274-0.23-0.607-0.347-0.998-0.347h-1.687v2.566h1.687c0.392,0,0.724-0.119,0.998-0.347
							c0.274-0.237,0.415-0.518,0.415-0.843V169.226z"/>
						<path fill="#0F4B75" d="M145.342,167.251c0.303,0.303,0.45,0.666,0.45,1.087v0.459c0,0.125-0.066,0.192-0.192,0.192h-2.678
							v0.502c0,0.326,0.112,0.6,0.333,0.822c0.222,0.221,0.496,0.333,0.822,0.333h0.178c0.495,0,0.924-0.304,1.079-0.777
							c0.03-0.087,0.096-0.132,0.192-0.132c0.133,0,0.201,0.066,0.201,0.207c0,0.022,0,0.037-0.009,0.059
							c-0.228,0.621-0.813,1.043-1.463,1.043h-0.178c-0.422,0-0.792-0.148-1.094-0.45c-0.304-0.304-0.459-0.674-0.459-1.103v-1.153
							c0-0.422,0.155-0.785,0.459-1.087c0.303-0.303,0.673-0.459,1.094-0.459h0.178
							C144.675,166.792,145.037,166.948,145.342,167.251z M145.393,168.338c0-0.318-0.112-0.591-0.333-0.813
							c-0.222-0.222-0.489-0.333-0.806-0.333h-0.178c-0.326,0-0.6,0.11-0.822,0.333c-0.221,0.222-0.333,0.495-0.333,0.813v0.26
							h2.472V168.338z"/>
						<path fill="#0F4B75" d="M148.626,170.787c0,0.11-0.089,0.192-0.201,0.192c-0.598,0-1.249-0.4-1.249-1.532v-2.226h-0.311
							c-0.103,0-0.192-0.087-0.192-0.192c0-0.11,0.089-0.192,0.192-0.192h0.311v-0.658c0-0.11,0.089-0.199,0.192-0.199
							c0.11,0,0.199,0.089,0.199,0.199v0.658h0.724c0.112,0,0.194,0.082,0.194,0.192c0,0.105-0.082,0.192-0.194,0.192h-0.724v2.226
							c0,0.74,0.311,1.14,0.858,1.14C148.538,170.588,148.626,170.684,148.626,170.787z"/>
						<path fill="#0F4B75" d="M151.421,170.787c0,0.11-0.088,0.192-0.199,0.192c-0.598,0-1.249-0.4-1.249-1.532v-2.226h-0.311
							c-0.103,0-0.192-0.087-0.192-0.192c0-0.11,0.089-0.192,0.192-0.192h0.311v-0.658c0-0.11,0.089-0.199,0.192-0.199
							c0.11,0,0.199,0.089,0.199,0.199v0.658h0.724c0.112,0,0.194,0.082,0.194,0.192c0,0.105-0.082,0.192-0.194,0.192h-0.724v2.226
							c0,0.74,0.311,1.14,0.858,1.14C151.333,170.588,151.421,170.684,151.421,170.787z"/>
						<path fill="#0F4B75" d="M155.261,167.251c0.303,0.303,0.45,0.666,0.45,1.087v0.459c0,0.125-0.066,0.192-0.192,0.192h-2.678
							v0.502c0,0.326,0.112,0.6,0.333,0.822c0.222,0.221,0.496,0.333,0.822,0.333h0.178c0.495,0,0.924-0.304,1.079-0.777
							c0.03-0.087,0.096-0.132,0.192-0.132c0.133,0,0.201,0.066,0.201,0.207c0,0.022,0,0.037-0.007,0.059
							c-0.23,0.621-0.815,1.043-1.465,1.043h-0.178c-0.422,0-0.792-0.148-1.094-0.45c-0.304-0.304-0.459-0.674-0.459-1.103v-1.153
							c0-0.422,0.155-0.785,0.459-1.087c0.303-0.303,0.673-0.459,1.094-0.459h0.178
							C154.594,166.792,154.957,166.948,155.261,167.251z M155.312,168.338c0-0.318-0.112-0.591-0.333-0.813
							c-0.222-0.222-0.489-0.333-0.806-0.333h-0.178c-0.326,0-0.6,0.11-0.822,0.333c-0.221,0.222-0.333,0.495-0.333,0.813v0.26
							h2.472V168.338z"/>
						<path fill="#0F4B75" d="M158.693,167.037c0,0.125-0.067,0.192-0.192,0.192h-0.178c-0.318,0-0.592,0.11-0.822,0.34
							c-0.221,0.23-0.333,0.495-0.333,0.806v2.418c0,0.126-0.066,0.192-0.207,0.192c-0.126,0-0.192-0.066-0.192-0.192v-3.757
							c0-0.141,0.066-0.208,0.192-0.208c0.141,0,0.207,0.067,0.207,0.208v0.317c0.311-0.347,0.696-0.525,1.155-0.525h0.178
							C158.626,166.829,158.693,166.897,158.693,167.037z"/>
						<path fill="#0F4B75" d="M165.417,165.543c0.377,0.377,0.562,0.82,0.562,1.346v2.198c0,0.525-0.185,0.975-0.562,1.346
							c-0.369,0.37-0.82,0.555-1.346,0.555h-1.879c-0.125,0-0.192-0.066-0.192-0.192v-5.622c0-0.125,0.067-0.192,0.192-0.192h1.879
							C164.596,164.98,165.039,165.165,165.417,165.543z M165.587,166.888c0-0.42-0.148-0.783-0.443-1.072
							c-0.297-0.296-0.651-0.445-1.073-0.445h-1.68v5.223h1.68c0.422,0,0.776-0.148,1.073-0.445c0.296-0.296,0.443-0.65,0.443-1.064
							V166.888z"/>
						<path fill="#0F4B75" d="M170.419,168.65v2.159c0,0.126-0.067,0.185-0.201,0.185c-0.132,0-0.199-0.059-0.199-0.185v-0.406
							c-0.34,0.413-0.755,0.621-1.235,0.621h-0.169c-0.97,0-1.457-0.422-1.457-1.258c0-0.318,0.103-0.577,0.303-0.762
							c0.215-0.207,0.518-0.31,0.909-0.31h1.65v-0.363c0-0.318-0.11-0.584-0.34-0.806c-0.222-0.222-0.488-0.333-0.806-0.333h-0.171
							c-0.465,0-0.806,0.199-1.02,0.607c-0.059,0.11-0.148,0.141-0.267,0.08c-0.118-0.066-0.141-0.155-0.08-0.265
							c0.28-0.503,0.783-0.822,1.367-0.822h0.171c0.422,0,0.785,0.149,1.087,0.452c0.303,0.303,0.45,0.666,0.45,1.087v0.303
							C170.419,168.641,170.419,168.641,170.419,168.65z M170.018,169.079h-1.657h-0.022c-0.267,0-0.473,0.066-0.614,0.207
							c-0.119,0.11-0.178,0.274-0.178,0.481c0,0.585,0.356,0.874,1.066,0.874h0.169c0.333,0,0.637-0.148,0.895-0.452
							c0.23-0.258,0.34-0.488,0.34-0.703V169.079z"/>
						<path fill="#0F4B75" d="M174.923,167.022c0,0.023-0.007,0.044-0.016,0.067v0.014c-0.776,2.175-1.294,3.632-1.552,4.378
							c-0.171,0.496-0.429,0.843-0.762,1.059c-0.215,0.133-0.438,0.199-0.667,0.199c-0.043,0-0.08,0-0.11-0.007
							c-0.126-0.023-0.185-0.096-0.162-0.222c0.022-0.133,0.096-0.192,0.221-0.178c0.126,0.023,0.267-0.007,0.422-0.087
							c0.304-0.149,0.518-0.452,0.681-0.895l0.148-0.4l-0.023-0.044l-1.397-3.794c-0.007-0.022-0.016-0.044-0.016-0.066
							c0-0.141,0.067-0.208,0.194-0.208c0.096,0,0.155,0.044,0.192,0.141l1.249,3.403l1.205-3.403l0.009-0.029
							c0.029-0.082,0.096-0.126,0.192-0.126C174.855,166.822,174.923,166.888,174.923,167.022z"/>
						<path fill="#0F4B75" d="M178.429,168.967c0.317,0.222,0.481,0.534,0.481,0.925c0,0.31-0.148,0.577-0.443,0.806
							c-0.274,0.214-0.585,0.326-0.918,0.326h-0.178c-0.584,0-1.102-0.304-1.353-0.777c-0.059-0.11-0.037-0.199,0.082-0.258
							c0.118-0.067,0.207-0.037,0.265,0.082c0.178,0.333,0.584,0.562,1.006,0.562h0.178c0.23,0,0.452-0.075,0.651-0.222
							c0.207-0.148,0.31-0.318,0.31-0.518c0-0.26-0.103-0.459-0.303-0.6c-0.148-0.103-0.429-0.214-0.843-0.333
							c-0.415-0.118-0.703-0.237-0.865-0.347c-0.274-0.178-0.415-0.429-0.415-0.747c0-0.628,0.503-1.057,1.214-1.057h0.178
							c0.554,0,0.947,0.192,1.175,0.577c0.075,0.118,0.052,0.207-0.066,0.274c-0.11,0.066-0.199,0.044-0.267-0.067
							c-0.155-0.258-0.436-0.384-0.842-0.384h-0.178c-0.481,0-0.822,0.267-0.822,0.658c0,0.185,0.089,0.333,0.267,0.443
							c0.126,0.075,0.37,0.164,0.733,0.267C177.925,168.708,178.244,168.842,178.429,168.967z"/>
					</g>
					<g>
						<path fill="#0F4B75" d="M141.058,176.638v0.112c0,0.265-0.108,0.489-0.323,0.677c-0.211,0.184-0.471,0.278-0.772,0.278h-1.143
							c-0.076,0-0.116-0.036-0.116-0.112v-3.403c0-0.076,0.04-0.116,0.116-0.116h1.076c0.337,0,0.597,0.089,0.785,0.273
							c0.166,0.158,0.247,0.359,0.247,0.605v0.095c0,0.336-0.152,0.582-0.462,0.74C140.825,175.952,141.058,176.275,141.058,176.638
							z M139.896,174.307h-0.954v1.371h0.954c0.471,0,0.795-0.255,0.795-0.631v-0.095
							C140.691,174.558,140.377,174.307,139.896,174.307z M140.82,176.638c0-0.201-0.085-0.372-0.251-0.511
							c-0.165-0.139-0.367-0.211-0.605-0.211h-1.021v1.555h1.021c0.238,0,0.44-0.072,0.605-0.209
							c0.166-0.143,0.251-0.314,0.251-0.512V176.638z"/>
						<path fill="#0F4B75" d="M142.92,175.311c0,0.076-0.042,0.118-0.118,0.118h-0.108c-0.192,0-0.359,0.066-0.498,0.205
							c-0.133,0.139-0.201,0.301-0.201,0.489v1.466c0,0.076-0.04,0.116-0.126,0.116c-0.076,0-0.116-0.04-0.116-0.116v-2.278
							c0-0.085,0.04-0.125,0.116-0.125c0.086,0,0.126,0.04,0.126,0.125v0.194c0.188-0.211,0.422-0.318,0.699-0.318h0.108
							C142.879,175.186,142.92,175.227,142.92,175.311z"/>
						<path fill="#0F4B75" d="M145.509,175.303v2.287c0,0.08-0.042,0.12-0.118,0.12c-0.08,0-0.12-0.04-0.12-0.12v-0.166
							c-0.184,0.207-0.417,0.31-0.69,0.31h-0.108c-0.255,0-0.471-0.09-0.656-0.27c-0.184-0.184-0.273-0.399-0.273-0.654v-1.506
							c0-0.076,0.04-0.116,0.12-0.116c0.076,0,0.118,0.04,0.118,0.116v1.506c0,0.192,0.066,0.354,0.201,0.489
							c0.135,0.133,0.296,0.201,0.489,0.201h0.108c0.192,0,0.354-0.067,0.488-0.201c0.135-0.135,0.202-0.297,0.202-0.489v-1.506
							c0-0.076,0.04-0.116,0.12-0.116C145.468,175.186,145.509,175.227,145.509,175.303z"/>
						<path fill="#0F4B75" d="M148.239,177.041c0,0.181-0.108,0.341-0.323,0.489c-0.192,0.135-0.386,0.202-0.574,0.202h-0.103
							c-0.255,0-0.475-0.09-0.658-0.274c-0.184-0.184-0.278-0.403-0.278-0.658v-0.7c0-0.255,0.095-0.475,0.278-0.658
							s0.403-0.274,0.658-0.274h0.103c0.382,0,0.717,0.219,0.865,0.574c0.004,0.014,0.009,0.032,0.009,0.046
							c0,0.076-0.04,0.112-0.116,0.112c-0.053,0-0.089-0.023-0.112-0.072c-0.112-0.255-0.363-0.422-0.646-0.422h-0.103
							c-0.192,0-0.359,0.067-0.493,0.201c-0.133,0.135-0.201,0.301-0.201,0.493v0.7c0,0.192,0.067,0.359,0.201,0.493
							c0.135,0.133,0.301,0.201,0.493,0.201h0.103c0.306,0,0.582-0.197,0.673-0.488c0.017-0.055,0.053-0.082,0.112-0.082
							C148.203,176.925,148.239,176.965,148.239,177.041z"/>
						<path fill="#0F4B75" d="M150.54,175.442c0.184,0.184,0.273,0.403,0.273,0.658v0.278c0,0.076-0.04,0.116-0.116,0.116h-1.622
							v0.306c0,0.197,0.067,0.363,0.201,0.498c0.135,0.133,0.301,0.201,0.498,0.201h0.108c0.301,0,0.561-0.184,0.654-0.471
							c0.019-0.053,0.059-0.08,0.118-0.08c0.08,0,0.12,0.04,0.12,0.125c0,0.014,0,0.023-0.004,0.036
							c-0.139,0.377-0.493,0.633-0.888,0.633h-0.108c-0.255,0-0.479-0.089-0.663-0.274c-0.184-0.184-0.278-0.407-0.278-0.667v-0.7
							c0-0.255,0.095-0.475,0.278-0.658c0.184-0.184,0.407-0.278,0.663-0.278h0.108C150.136,175.163,150.356,175.258,150.54,175.442
							z M150.572,176.1c0-0.192-0.067-0.359-0.202-0.493c-0.135-0.133-0.296-0.201-0.489-0.201h-0.108
							c-0.197,0-0.363,0.067-0.498,0.201c-0.133,0.135-0.201,0.301-0.201,0.493v0.158h1.498V176.1z"/>
						<path fill="#0F4B75" d="M154.638,175.98c0.247,0.192,0.373,0.458,0.373,0.798c0,0.264-0.112,0.489-0.331,0.677
							c-0.221,0.184-0.458,0.278-0.723,0.278h-0.133c-0.449,0-0.865-0.261-1.054-0.668c-0.036-0.076,0.019-0.166,0.103-0.166
							c0.049,0,0.086,0.023,0.108,0.063c0.156,0.327,0.485,0.538,0.843,0.538h0.133c0.198,0,0.382-0.072,0.548-0.211
							c0.184-0.148,0.273-0.318,0.273-0.511c0-0.273-0.103-0.475-0.3-0.618c-0.122-0.085-0.337-0.188-0.654-0.291
							c-0.318-0.108-0.544-0.202-0.673-0.295c-0.211-0.153-0.318-0.369-0.318-0.633c0-0.255,0.085-0.471,0.26-0.637
							c0.175-0.165,0.399-0.251,0.673-0.251h0.139c0.43,0,0.73,0.166,0.909,0.502c0.036,0.067,0.023,0.12-0.044,0.158
							c-0.067,0.04-0.131,0.022-0.166-0.046c-0.133-0.251-0.363-0.376-0.699-0.376h-0.139c-0.413,0-0.694,0.268-0.694,0.65
							c0,0.188,0.072,0.34,0.219,0.448c0.103,0.076,0.304,0.158,0.605,0.257C154.244,175.756,154.491,175.868,154.638,175.98z"/>
						<path fill="#0F4B75" d="M157.357,175.442c0.184,0.184,0.273,0.403,0.273,0.658v0.7c0,0.255-0.089,0.47-0.273,0.654
							c-0.184,0.184-0.405,0.274-0.664,0.274h-0.099c-0.287,0-0.524-0.108-0.711-0.328v1.358c0,0.082-0.04,0.122-0.122,0.122
							c-0.076,0-0.116-0.04-0.116-0.122v-3.469c0-0.076,0.04-0.118,0.116-0.118c0.082,0,0.122,0.042,0.122,0.118v0.205
							c0.188-0.219,0.425-0.327,0.711-0.327h0.099C156.952,175.168,157.173,175.258,157.357,175.442z M157.392,176.1
							c0-0.192-0.067-0.354-0.207-0.493c-0.135-0.138-0.3-0.205-0.493-0.205h-0.099c-0.192,0-0.353,0.067-0.492,0.205
							c-0.139,0.139-0.207,0.301-0.207,0.493v0.7c0,0.192,0.067,0.354,0.207,0.493c0.139,0.133,0.3,0.201,0.492,0.201h0.099
							c0.194,0,0.359-0.067,0.493-0.201c0.139-0.139,0.207-0.301,0.207-0.493V176.1z"/>
						<path fill="#0F4B75" d="M159.554,175.311c0,0.076-0.042,0.118-0.118,0.118h-0.108c-0.192,0-0.359,0.066-0.498,0.205
							c-0.133,0.139-0.201,0.301-0.201,0.489v1.466c0,0.076-0.04,0.116-0.126,0.116c-0.076,0-0.116-0.04-0.116-0.116v-2.278
							c0-0.085,0.04-0.125,0.116-0.125c0.086,0,0.126,0.04,0.126,0.125v0.194c0.188-0.211,0.422-0.318,0.699-0.318h0.108
							C159.513,175.186,159.554,175.227,159.554,175.311z"/>
						<path fill="#0F4B75" d="M160.422,174.195v0.192c0,0.082-0.042,0.122-0.122,0.122c-0.076,0-0.116-0.04-0.116-0.122v-0.192
							c0-0.076,0.04-0.116,0.116-0.116C160.38,174.079,160.422,174.119,160.422,174.195z M160.422,175.311v2.278
							c0,0.076-0.042,0.116-0.122,0.116c-0.076,0-0.116-0.04-0.116-0.116v-2.278c0-0.08,0.04-0.12,0.116-0.12
							C160.38,175.191,160.422,175.231,160.422,175.311z"/>
						<path fill="#0F4B75" d="M162.888,175.446c0.185,0.184,0.278,0.403,0.278,0.658v1.48c0,0.08-0.04,0.12-0.125,0.12
							c-0.076,0-0.116-0.04-0.116-0.12v-1.48c0-0.188-0.067-0.349-0.207-0.483c-0.139-0.139-0.301-0.207-0.493-0.207h-0.103
							c-0.192,0-0.354,0.067-0.493,0.207c-0.133,0.135-0.201,0.296-0.201,0.483v1.48c0,0.08-0.04,0.12-0.126,0.12
							c-0.076,0-0.116-0.04-0.116-0.12v-2.274c0-0.076,0.04-0.116,0.116-0.116c0.086,0,0.126,0.04,0.126,0.116v0.175
							c0.184-0.211,0.416-0.314,0.694-0.314h0.103C162.48,175.172,162.704,175.262,162.888,175.446z"/>
						<path fill="#0F4B75" d="M165.883,175.307v2.489c0,0.25-0.089,0.465-0.268,0.65c-0.179,0.184-0.399,0.273-0.654,0.273
							c-0.072,0-0.108-0.04-0.108-0.116c0-0.08,0.036-0.12,0.108-0.12c0.192,0,0.354-0.072,0.488-0.202
							c0.139-0.135,0.207-0.291,0.207-0.483v-0.39c-0.184,0.209-0.417,0.313-0.694,0.313h-0.095c-0.255,0-0.475-0.089-0.658-0.273
							c-0.184-0.184-0.274-0.399-0.274-0.65V176.1c0-0.255,0.09-0.471,0.274-0.654c0.184-0.184,0.403-0.274,0.658-0.274h0.095
							c0.277,0,0.511,0.103,0.694,0.314v-0.179c0-0.08,0.036-0.12,0.112-0.12C165.843,175.186,165.883,175.227,165.883,175.307z
							 M165.448,177.279c0.139-0.139,0.207-0.3,0.207-0.483V176.1c0-0.192-0.067-0.354-0.207-0.488
							c-0.133-0.135-0.296-0.202-0.488-0.202h-0.095c-0.192,0-0.354,0.067-0.493,0.202c-0.133,0.133-0.201,0.296-0.201,0.488v0.696
							c0,0.184,0.062,0.344,0.201,0.483c0.139,0.139,0.301,0.202,0.493,0.202h0.095
							C165.153,177.482,165.315,177.414,165.448,177.279z"/>
						<path fill="#0F4B75" d="M168.134,176.482c0.194,0.135,0.291,0.323,0.291,0.559c0,0.189-0.089,0.35-0.268,0.489
							c-0.166,0.131-0.354,0.198-0.555,0.198h-0.109c-0.353,0-0.667-0.185-0.819-0.472c-0.036-0.066-0.023-0.12,0.049-0.156
							c0.072-0.04,0.125-0.022,0.162,0.05c0.106,0.201,0.353,0.34,0.608,0.34h0.109c0.138,0,0.273-0.044,0.393-0.135
							c0.126-0.089,0.189-0.192,0.189-0.314c0-0.156-0.063-0.277-0.184-0.363c-0.09-0.062-0.261-0.129-0.512-0.201
							c-0.251-0.072-0.426-0.143-0.524-0.211c-0.166-0.108-0.251-0.26-0.251-0.453c0-0.38,0.304-0.641,0.734-0.641h0.108
							c0.337,0,0.574,0.118,0.713,0.35c0.044,0.072,0.032,0.126-0.04,0.166c-0.067,0.04-0.12,0.027-0.162-0.04
							c-0.093-0.158-0.264-0.234-0.511-0.234h-0.108c-0.291,0-0.498,0.162-0.498,0.399c0,0.112,0.055,0.202,0.162,0.27
							c0.076,0.044,0.224,0.098,0.443,0.161C167.829,176.324,168.022,176.406,168.134,176.482z"/>
						<path fill="#0F4B75" d="M170.16,177.585c0,0.067-0.055,0.116-0.12,0.116c-0.364,0-0.757-0.242-0.757-0.928v-1.35h-0.189
							c-0.063,0-0.116-0.053-0.116-0.116c0-0.067,0.053-0.116,0.116-0.116h0.189v-0.399c0-0.067,0.053-0.122,0.116-0.122
							c0.067,0,0.12,0.055,0.12,0.122v0.399h0.439c0.067,0,0.118,0.049,0.118,0.116c0,0.063-0.05,0.116-0.118,0.116h-0.439v1.35
							c0,0.449,0.188,0.69,0.521,0.69C170.106,177.463,170.16,177.522,170.16,177.585z"/>
						<path fill="#0F4B75" d="M172.49,175.442c0.184,0.184,0.273,0.403,0.273,0.658v0.278c0,0.076-0.04,0.116-0.116,0.116h-1.622
							v0.306c0,0.197,0.067,0.363,0.201,0.498c0.135,0.133,0.301,0.201,0.498,0.201h0.108c0.301,0,0.561-0.184,0.654-0.471
							c0.019-0.053,0.059-0.08,0.118-0.08c0.08,0,0.12,0.04,0.12,0.125c0,0.014,0,0.023-0.004,0.036
							c-0.139,0.377-0.493,0.633-0.888,0.633h-0.108c-0.255,0-0.479-0.089-0.663-0.274c-0.184-0.184-0.278-0.407-0.278-0.667v-0.7
							c0-0.255,0.095-0.475,0.278-0.658s0.407-0.278,0.663-0.278h0.108C172.085,175.163,172.306,175.258,172.49,175.442z
							 M172.522,176.1c0-0.192-0.067-0.359-0.202-0.493c-0.135-0.133-0.296-0.201-0.489-0.201h-0.108
							c-0.197,0-0.363,0.067-0.498,0.201c-0.133,0.135-0.201,0.301-0.201,0.493v0.158h1.498V176.1z"/>
						<path fill="#0F4B75" d="M175.117,175.442c0.184,0.184,0.273,0.403,0.273,0.658v0.278c0,0.076-0.04,0.116-0.116,0.116h-1.622
							v0.306c0,0.197,0.067,0.363,0.201,0.498c0.135,0.133,0.301,0.201,0.498,0.201h0.108c0.301,0,0.561-0.184,0.656-0.471
							c0.017-0.053,0.057-0.08,0.116-0.08c0.08,0,0.12,0.04,0.12,0.125c0,0.014,0,0.023-0.004,0.036
							c-0.139,0.377-0.493,0.633-0.888,0.633h-0.108c-0.255,0-0.479-0.089-0.663-0.274c-0.184-0.184-0.278-0.407-0.278-0.667v-0.7
							c0-0.255,0.095-0.475,0.278-0.658c0.184-0.184,0.407-0.278,0.663-0.278h0.108
							C174.712,175.163,174.931,175.258,175.117,175.442z M175.147,176.1c0-0.192-0.066-0.359-0.201-0.493
							c-0.135-0.133-0.296-0.201-0.489-0.201h-0.108c-0.197,0-0.363,0.067-0.498,0.201c-0.133,0.135-0.201,0.301-0.201,0.493v0.158
							h1.496V176.1z"/>
						<path fill="#0F4B75" d="M177.74,175.446c0.184,0.184,0.277,0.403,0.277,0.658v1.48c0,0.08-0.04,0.12-0.125,0.12
							c-0.076,0-0.118-0.04-0.118-0.12v-1.48c0-0.188-0.066-0.349-0.205-0.483c-0.139-0.139-0.301-0.207-0.493-0.207h-0.103
							c-0.192,0-0.354,0.067-0.493,0.207c-0.133,0.135-0.201,0.296-0.201,0.483v1.48c0,0.08-0.04,0.12-0.126,0.12
							c-0.076,0-0.116-0.04-0.116-0.12v-2.274c0-0.076,0.04-0.116,0.116-0.116c0.086,0,0.126,0.04,0.126,0.116v0.175
							c0.184-0.211,0.416-0.314,0.694-0.314h0.103C177.331,175.172,177.555,175.262,177.74,175.446z"/>
					</g>
				</g>
			</g>
			<polygon opacity="0.5" fill="#FFFFFF" points="297.845,220.208 240.9,448.407 462.9,448.407 414.637,220.208 			"/>
			<g>
				<rect x="156.756" y="314.459" fill="#9A564C" width="2.223" height="52.464"/>
				<path fill="#A35953" d="M142.875,395.456H4.11c-8.284,0-15-6.716-15-15v-67.228c0-8.284,6.716-15,15-15h138.765
					c8.284,0,15,6.716,15,15v67.228C157.875,388.74,151.16,395.456,142.875,395.456z"/>
				<path fill="#A35953" d="M142.323,395.456H3.559c-8.284,0-15-6.716-15-15v-67.228c0-8.284,6.716-15,15-15h138.765
					c8.284,0,15,6.716,15,15v67.228C157.323,388.74,150.608,395.456,142.323,395.456z"/>
				<path fill="#A35953" d="M311.64,395.456H172.875c-8.284,0-15-6.716-15-15v-67.228c0-8.284,6.716-15,15-15H311.64
					c8.284,0,15,6.716,15,15v67.228C326.64,388.74,319.925,395.456,311.64,395.456z"/>
				<path fill="#B6635E" d="M312.744,395.456H173.979c-8.284,0-15-6.716-15-15v-67.228c0-8.284,6.716-15,15-15h138.765
					c8.284,0,15,6.716,15,15v67.228C327.744,388.74,321.028,395.456,312.744,395.456z"/>
				<path fill="#B6635E" d="M141.826,395.456H5.636c-8.284,0-15-6.716-15-15v-67.228c0-8.284,6.716-15,15-15h136.191
					c8.284,0,15,6.716,15,15v67.228C156.826,388.74,150.111,395.456,141.826,395.456z"/>
				<path fill="#B6635E" d="M81.535,395.456H4.662c-8.284,0-15-6.716-15-15v-67.228c0-8.284,6.716-15,15-15h76.872
					c8.284,0,15,6.716,15,15v67.228C96.535,388.74,89.819,395.456,81.535,395.456z"/>
				<rect x="-197.557" y="394.867" fill="#BD6962" width="542.289" height="36.744"/>
				<path fill="#C57C75" d="M344.732,424.777h-36.184v-79.171c0-9.053,7.339-16.392,16.392-16.392h3.399
					c9.053,0,16.392,7.339,16.392,16.392V424.777z"/>
				<path fill="#BD6962" d="M344.732,427.977h-36.184v-79.171c0-9.053,7.339-16.392,16.392-16.392h3.399
					c9.053,0,16.392,7.339,16.392,16.392V427.977z"/>
				<path fill="#C57C75" d="M-156.766,366.922h453.921c4.418,0,8,3.582,8,8v16.702h-469.921v-16.702
					C-164.766,370.504-161.184,366.922-156.766,366.922z"/>
				<path fill="#BD6962" d="M-156.766,370.165h453.921c4.418,0,8,3.582,8,8v16.702h-469.921v-16.702
					C-164.766,373.746-161.184,370.165-156.766,370.165z"/>
				<rect x="305.308" y="394.909" opacity="0.5" fill="#A35953" width="3.244" height="36.702"/>
				<circle fill="#9A564C" cx="77.957" cy="332.414" r="3.735"/>
				<circle fill="#9A564C" cx="34.463" cy="332.414" r="3.735"/>
				<circle fill="#9A564C" cx="121.452" cy="332.414" r="3.735"/>
				<circle fill="#9A564C" cx="242.258" cy="332.414" r="3.735"/>
				<circle fill="#9A564C" cx="198.763" cy="332.414" r="3.735"/>
				<circle fill="#9A564C" cx="285.753" cy="332.414" r="3.735"/>
				<circle opacity="0.4" fill="#9A564C" cx="326.64" cy="351.664" r="3.735"/>
				<rect x="-197.557" y="394.909" fill="#A35953" width="502.712" height="5.549"/>
			</g>
			<path fill="#C69670" d="M356.316,157.907L356.316,157.907c1.427,0,2.584,1.157,2.584,2.584v222.916h-5.168V160.491
				C353.732,159.064,354.889,157.907,356.316,157.907z"/>
			
				<line opacity="0.3" fill="none" stroke="#88755C" stroke-width="2" stroke-linecap="round" stroke-miterlimit="10" x1="377.9" y1="216.208" x2="377.9" y2="234.073"/>
			<rect x="348.732" y="219.708" fill="#C5956F" width="15.168" height="5"/>
			<rect x="297.845" y="160.102" fill="#E9D1B1" width="111.774" height="60.106"/>
			<rect x="314.9" y="160.102" opacity="0.2" fill="#D8AD79" width="99.737" height="60.106"/>
			<polygon opacity="0.1" fill="#E9D1B1" points="297.845,220.208 240.9,448.407 462.9,448.407 414.637,220.208 			"/>
		</g>
	</g>
</g>
<g>
	<defs>
		<circle id="SVGID_19_" cx="613.752" cy="201" r="201.752"/>
	</defs>
	<use xlink:href="#SVGID_19_"  overflow="visible" fill="#E7E9EA"/>
	<clipPath id="SVGID_4_">
		<use xlink:href="#SVGID_19_"  overflow="visible"/>
	</clipPath>
	
		<rect x="376.481" y="280.821" transform="matrix(1 0.0012 -0.0012 1 0.3566 -0.7523)" clip-path="url(#SVGID_4_)" fill="#8E6B63" width="474.271" height="19.149"/>
	<rect x="376.481" y="296.635" clip-path="url(#SVGID_4_)" fill="#7A6253" width="474.271" height="3.174"/>
</g>
<g>
	<defs>
		<circle id="SVGID_21_" cx="-213.699" cy="201.752" r="201.752"/>
	</defs>
	<use xlink:href="#SVGID_21_"  overflow="visible" fill="#E7E9EA"/>
	<clipPath id="SVGID_6_">
		<use xlink:href="#SVGID_21_"  overflow="visible"/>
	</clipPath>
	
		<rect x="-395.968" y="309.751" clip-path="url(#SVGID_6_)" fill="#A78D5B" stroke="#A78D5B" stroke-width="8" stroke-linejoin="round" stroke-miterlimit="10" width="405.449" height="18.209"/>
	
		<rect x="-395.968" y="313.657" clip-path="url(#SVGID_6_)" fill="#8C7C5C" stroke="#8C7C5C" stroke-width="8" stroke-miterlimit="10" width="405.449" height="10.653"/>
	<path clip-path="url(#SVGID_6_)" fill="#C89C49" d="M16.997,297.794h-420.48c-2.209,0-4,1.791-4,4v18.209c0,2.209,1.791,4,4,4
		h420.48c2.209,0,4-1.791,4-4v-18.209C20.997,299.585,19.206,297.794,16.997,297.794z"/>
	<g clip-path="url(#SVGID_6_)">
		<defs>
			<path id="SVGID_23_" d="M16.997,297.794h-420.48c-2.209,0-4,1.791-4,4v18.209c0,2.209,1.791,4,4,4h420.48c2.209,0,4-1.791,4-4
				v-18.209C20.997,299.585,19.206,297.794,16.997,297.794z"/>
		</defs>
		<clipPath id="SVGID_8_">
			<use xlink:href="#SVGID_23_"  overflow="visible"/>
		</clipPath>
	</g>
</g>
</svg>
