<?xml version="1.0" encoding="utf-8"?>
<!-- Generator: Adobe Illustrator 19.1.0, SVG Export Plug-In . SVG Version: 6.00 Build 0)  -->
<svg version="1.1" id="Layer_1" xmlns="http://www.w3.org/2000/svg" xmlns:xlink="http://www.w3.org/1999/xlink" x="0px" y="0px"
	 width="403.504px" height="403.504px" viewBox="0 0 403.504 403.504" enable-background="new 0 0 403.504 403.504"
	 xml:space="preserve">
<g>
	<defs>
		<circle id="SVGID_17_" cx="-210.248" cy="201" r="201.752"/>
	</defs>
	<use xlink:href="#SVGID_17_"  overflow="visible" fill="#E7E9EA"/>
	<clipPath id="SVGID_2_">
		<use xlink:href="#SVGID_17_"  overflow="visible"/>
	</clipPath>
	
		<rect x="-447.519" y="280.821" transform="matrix(1 0.0012 -0.0012 1 0.356 0.2582)" clip-path="url(#SVGID_2_)" fill="#8E6B63" width="474.271" height="19.149"/>
	<rect x="-447.519" y="296.635" clip-path="url(#SVGID_2_)" fill="#7A6253" width="474.271" height="3.174"/>
</g>
<g>
	<defs>
		<circle id="SVGID_19_" cx="201.752" cy="201" r="201.752"/>
	</defs>
	<use xlink:href="#SVGID_19_"  overflow="visible" fill="#E7E9EA"/>
	<clipPath id="SVGID_4_">
		<use xlink:href="#SVGID_19_"  overflow="visible"/>
	</clipPath>
	
		<rect x="-35.519" y="280.821" transform="matrix(1 0.0012 -0.0012 1 0.3563 -0.247)" clip-path="url(#SVGID_4_)" fill="#8E6B63" width="474.271" height="19.149"/>
	<path opacity="0.7" clip-path="url(#SVGID_4_)" d="M84.087,280.821H26.838v-2.053l0,0c1.881-3.627,1.881-7.942,0-11.569h0v-2.053
		h57.248c4.329,0,7.838,3.509,7.838,7.838l0,0C91.924,277.312,88.415,280.821,84.087,280.821z"/>
	<g clip-path="url(#SVGID_4_)">
		<path fill="#C6CED7" d="M359.042,206.276h-19.12c0.071,0,0.139-0.013,0.209-0.021c-0.931-0.105-1.656-0.886-1.656-1.844
			c0-0.959,0.726-1.739,1.656-1.844c-0.07-0.008-0.137-0.021-0.209-0.021h6.622c1.03,0,1.866-0.835,1.866-1.866
			c0-1.03-0.836-1.866-1.866-1.866h-18.339c-1.03,0-1.865,0.835-1.865,1.866c0,1.03,0.835,1.866,1.865,1.866h2.603
			c-0.065,0-0.126,0.013-0.188,0.019c0.94,0.096,1.677,0.881,1.677,1.847s-0.737,1.751-1.677,1.847
			c0.063,0.006,0.124,0.019,0.188,0.019h-6.353c-1.03,0-1.865,0.835-1.865,1.865c0,1.03,0.835,1.866,1.865,1.866h11.728
			c-0.068,0-0.133,0.013-0.199,0.02c0.935,0.101,1.667,0.883,1.667,1.846s-0.731,1.745-1.667,1.846
			c0.066,0.007,0.131,0.02,0.199,0.02h-1.187c-1.03,0-1.865,0.835-1.865,1.866c0,1.03,0.835,1.865,1.865,1.865h11.487
			c1.03,0,1.865-0.835,1.865-1.865c0-1.03-0.835-1.866-1.865-1.866h-1.187c0.068,0,0.133-0.013,0.199-0.02
			c-0.935-0.101-1.667-0.883-1.667-1.846s0.731-1.745,1.667-1.846c-0.066-0.007-0.131-0.02-0.199-0.02h13.745
			c1.03,0,1.865-0.835,1.865-1.866C360.907,207.111,360.072,206.276,359.042,206.276z"/>
		<path fill="none" d="M374.795,232.971c-1.387-1.54-3.311-2.394-5.365-2.394h-1.53c-2.255,0-4.113,1.773-4.218,4.026l-0.479,10.292
			l-0.67,14.397c-0.04,0.867,1.096,1.223,1.558,0.489l11.302-17.938c0.633-1.004,1.008-2.126,1.136-3.264
			C376.755,236.578,376.195,234.525,374.795,232.971z"/>
		<path fill="#E2D7BC" d="M380.793,236.561l-4.264,2.02c-0.128,1.137-0.503,2.259-1.136,3.264l-11.302,17.938
			c-0.462,0.734-1.598,0.377-1.558-0.489l0.67-14.397l-46.43,21.999v1.714v3.768c0,4.664,3.781,8.444,8.444,8.444h26.177
			c3.642,0,6.736-2.31,7.921-5.54l19.785-31.401C380.515,241.636,381.062,239.054,380.793,236.561z"/>
		<path fill="#8E6B63" d="M380.793,236.561c-0.272-2.525-1.381-4.958-3.28-6.857v0c-2.144-2.144-5.051-3.348-8.083-3.348h-9.591
			H322.28h-3.087h-0.186c-1.234,0-2.234,1-2.234,2.234v0.519l0,0v37.786l46.43-21.999l0.479-10.292
			c0.105-2.253,1.962-4.026,4.218-4.026h1.53c2.055,0,3.978,0.854,5.365,2.394c1.4,1.554,1.96,3.606,1.734,5.61L380.793,236.561z"/>
	</g>
	<rect x="-35.519" y="296.635" clip-path="url(#SVGID_4_)" fill="#7A6253" width="474.271" height="3.174"/>
	<g clip-path="url(#SVGID_4_)">
		<path fill="#C6CED7" d="M294.298,280.821H109.237c-5.523,0-10-4.477-10-10V145.174c0-5.523,4.477-10,10-10h185.061
			c5.523,0,10,4.477,10,10v125.647C304.298,276.344,299.821,280.821,294.298,280.821z"/>
		<g>
			
				<line fill="none" stroke="#000000" stroke-linecap="round" stroke-miterlimit="10" x1="213.343" y1="188.92" x2="223.767" y2="169.409"/>
			
				<line fill="none" stroke="#000000" stroke-linecap="round" stroke-miterlimit="10" x1="182.371" y1="198.322" x2="159.858" y2="186.294"/>
			
				<line fill="none" stroke="#000000" stroke-linecap="round" stroke-miterlimit="10" x1="189.542" y1="233.469" x2="191.772" y2="229.294"/>
			
				<line fill="none" stroke="#000000" stroke-linecap="round" stroke-miterlimit="10" x1="250.398" y1="234.667" x2="222.744" y2="219.892"/>
			
				<line fill="none" stroke="#000000" stroke-linecap="round" stroke-miterlimit="10" x1="195.91" y1="187.207" x2="189.555" y2="166.273"/>
			
				<line fill="none" stroke="#000000" stroke-linecap="round" stroke-miterlimit="10" x1="180.657" y1="215.755" x2="163.585" y2="220.937"/>
			
				<line fill="none" stroke="#000000" stroke-linecap="round" stroke-miterlimit="10" x1="216.35" y1="254.544" x2="209.205" y2="231.007"/>
			
				<line fill="none" stroke="#000000" stroke-linecap="round" stroke-miterlimit="10" x1="228.31" y1="201.29" x2="224.458" y2="202.459"/>
			
				<line fill="none" stroke="#000000" stroke-linecap="round" stroke-miterlimit="10" x1="188.035" y1="191.418" x2="165.612" y2="164.105"/>
			
				<line fill="none" stroke="#000000" stroke-linecap="round" stroke-miterlimit="10" x1="184.868" y1="223.63" x2="161.792" y2="242.575"/>
			
				<line fill="none" stroke="#000000" stroke-linecap="round" stroke-miterlimit="10" x1="229.176" y1="241.53" x2="217.08" y2="226.796"/>
			
				<line fill="none" stroke="#000000" stroke-linecap="round" stroke-miterlimit="10" x1="238.896" y1="179.274" x2="220.247" y2="194.584"/>
			
				<line fill="none" stroke="#000000" stroke-linecap="round" stroke-miterlimit="10" x1="179.78" y1="206.868" x2="147.569" y2="203.701"/>
			
				<line fill="none" stroke="#000000" stroke-linecap="round" stroke-miterlimit="10" x1="200.319" y1="231.884" x2="198.876" y2="246.557"/>
			
				<line fill="none" stroke="#000000" stroke-linecap="round" stroke-miterlimit="10" x1="245.568" y1="213.335" x2="225.335" y2="211.346"/>
			
				<line fill="none" stroke="#000000" stroke-linecap="round" stroke-miterlimit="10" x1="206.269" y1="171.351" x2="204.797" y2="186.33"/>
			
				<line fill="none" stroke="#000000" stroke-linecap="round" stroke-miterlimit="10" x1="209.197" y1="187.204" x2="217.722" y2="159.085"/>
			
				<line fill="none" stroke="#000000" stroke-linecap="round" stroke-miterlimit="10" x1="180.655" y1="202.467" x2="151.383" y2="193.594"/>
			
				<line fill="none" stroke="#000000" stroke-linecap="round" stroke-miterlimit="10" x1="189.535" y1="252.067" x2="195.918" y2="231.01"/>
			
				<line fill="none" stroke="#000000" stroke-linecap="round" stroke-miterlimit="10" x1="258.279" y1="225.998" x2="224.46" y2="215.747"/>
			
				<line fill="none" stroke="#000000" stroke-linecap="round" stroke-miterlimit="10" x1="191.765" y1="188.924" x2="180.546" y2="167.944"/>
			
				<line fill="none" stroke="#000000" stroke-linecap="round" stroke-miterlimit="10" x1="182.375" y1="219.9" x2="159.518" y2="232.122"/>
			
				<line fill="none" stroke="#000000" stroke-linecap="round" stroke-miterlimit="10" x1="228.223" y1="257.102" x2="213.35" y2="229.29"/>
			
				<line fill="none" stroke="#000000" stroke-linecap="round" stroke-miterlimit="10" x1="250.232" y1="183.613" x2="222.74" y2="198.314"/>
			
				<line fill="none" stroke="#000000" stroke-linecap="round" stroke-miterlimit="10" x1="184.863" y1="194.591" x2="162.154" y2="175.961"/>
			
				<line fill="none" stroke="#000000" stroke-linecap="round" stroke-miterlimit="10" x1="188.042" y1="226.802" x2="172.174" y2="246.143"/>
			
				<line fill="none" stroke="#000000" stroke-linecap="round" stroke-miterlimit="10" x1="238.075" y1="238.244" x2="220.252" y2="223.623"/>
			
				<line fill="none" stroke="#000000" stroke-linecap="round" stroke-miterlimit="10" x1="229.182" y1="176.653" x2="217.074" y2="191.412"/>
			
				<line fill="none" stroke="#000000" stroke-linecap="round" stroke-miterlimit="10" x1="179.781" y1="211.355" x2="162.244" y2="213.085"/>
			
				<line fill="none" stroke="#000000" stroke-linecap="round" stroke-miterlimit="10" x1="204.805" y1="231.883" x2="208.275" y2="267.05"/>
			
				<line fill="none" stroke="#000000" stroke-linecap="round" stroke-miterlimit="10" x1="250.864" y1="204.34" x2="225.334" y2="206.859"/>
			
				<line fill="none" stroke="#000000" stroke-linecap="round" stroke-miterlimit="10" x1="198.737" y1="170.393" x2="200.31" y2="186.331"/>
			
				<line fill="none" stroke="#000000" stroke-linecap="round" stroke-miterlimit="10" x1="211.312" y1="187.961" x2="218.737" y2="170.026"/>
			
				<line fill="none" stroke="#000000" stroke-linecap="round" stroke-miterlimit="10" x1="181.411" y1="200.352" x2="165.673" y2="193.837"/>
			
				<line fill="none" stroke="#000000" stroke-linecap="round" stroke-miterlimit="10" x1="184.505" y1="252.713" x2="193.803" y2="230.253"/>
			
				<line fill="none" stroke="#000000" stroke-linecap="round" stroke-miterlimit="10" x1="249.57" y1="228.57" x2="223.704" y2="217.862"/>
			
				<line fill="none" stroke="#000000" stroke-linecap="round" stroke-miterlimit="10" x1="193.795" y1="187.964" x2="185.251" y2="167.347"/>
			
				<line fill="none" stroke="#000000" stroke-linecap="round" stroke-miterlimit="10" x1="181.414" y1="217.869" x2="156.905" y2="228.027"/>
			
				<line fill="none" stroke="#000000" stroke-linecap="round" stroke-miterlimit="10" x1="218.476" y1="247.517" x2="211.32" y2="230.25"/>
			
				<line fill="none" stroke="#000000" stroke-linecap="round" stroke-miterlimit="10" x1="240.024" y1="193.58" x2="223.701" y2="200.345"/>
			
				<line fill="none" stroke="#000000" stroke-linecap="round" stroke-miterlimit="10" x1="186.371" y1="192.926" x2="161.379" y2="167.943"/>
			
				<line fill="none" stroke="#000000" stroke-linecap="round" stroke-miterlimit="10" x1="186.377" y1="225.294" x2="177.62" y2="234.054"/>
			
				<line fill="none" stroke="#000000" stroke-linecap="round" stroke-miterlimit="10" x1="238.298" y1="244.834" x2="218.744" y2="225.288"/>
			
				<line fill="none" stroke="#000000" stroke-linecap="round" stroke-miterlimit="10" x1="234.739" y1="176.913" x2="218.738" y2="192.92"/>
			
				<line fill="none" stroke="#000000" stroke-linecap="round" stroke-miterlimit="10" x1="179.671" y1="209.111" x2="144.333" y2="209.118"/>
			
				<line fill="none" stroke="#000000" stroke-linecap="round" stroke-miterlimit="10" x1="202.562" y1="231.994" x2="202.568" y2="263.683"/>
			
				<line fill="none" stroke="#000000" stroke-linecap="round" stroke-miterlimit="10" x1="240.664" y1="209.1" x2="225.445" y2="209.103"/>
			
				<line fill="none" stroke="#000000" stroke-linecap="round" stroke-miterlimit="10" x1="202.552" y1="177.268" x2="202.553" y2="186.22"/>
			
				<line fill="none" stroke="#000000" stroke-linecap="round" stroke-miterlimit="10" x1="207.019" y1="186.659" x2="213.906" y2="151.999"/>
			
				<line fill="none" stroke="#000000" stroke-linecap="round" stroke-miterlimit="10" x1="180.11" y1="204.646" x2="152.039" y2="199.068"/>
			
				<line fill="none" stroke="#000000" stroke-linecap="round" stroke-miterlimit="10" x1="192.099" y1="261.737" x2="198.097" y2="231.555"/>
			
				<line fill="none" stroke="#000000" stroke-linecap="round" stroke-miterlimit="10" x1="248.941" y1="218.324" x2="225.006" y2="213.568"/>
			
				<line fill="none" stroke="#000000" stroke-linecap="round" stroke-miterlimit="10" x1="189.839" y1="190.079" x2="181.307" y2="177.316"/>
			
				<line fill="none" stroke="#000000" stroke-linecap="round" stroke-miterlimit="10" x1="183.53" y1="221.826" x2="154.151" y2="241.464"/>
			
				<line fill="none" stroke="#000000" stroke-linecap="round" stroke-miterlimit="10" x1="229.581" y1="249.534" x2="215.277" y2="228.135"/>
			
				<line fill="none" stroke="#000000" stroke-linecap="round" stroke-miterlimit="10" x1="241.03" y1="183.39" x2="221.585" y2="196.388"/>
			
				<line fill="none" stroke="#000000" stroke-linecap="round" stroke-miterlimit="10" x1="183.525" y1="196.395" x2="164.992" y2="184.017"/>
			
				<line fill="none" stroke="#000000" stroke-linecap="round" stroke-miterlimit="10" x1="189.846" y1="228.139" x2="184.455" y2="236.21"/>
			
				<line fill="none" stroke="#000000" stroke-linecap="round" stroke-miterlimit="10" x1="230.743" y1="227.932" x2="221.59" y2="221.819"/>
			
				<line fill="none" stroke="#000000" stroke-linecap="round" stroke-miterlimit="10" x1="230.243" y1="167.656" x2="215.269" y2="190.075"/>
			
				<line fill="none" stroke="#000000" stroke-linecap="round" stroke-miterlimit="10" x1="180.111" y1="213.576" x2="167.578" y2="216.072"/>
			
				<line fill="none" stroke="#000000" stroke-linecap="round" stroke-miterlimit="10" x1="207.027" y1="231.553" x2="209.222" y2="242.579"/>
			
				<line fill="none" stroke="#000000" stroke-linecap="round" stroke-miterlimit="10" x1="232.432" y1="203.159" x2="225.004" y2="204.638"/>
			
				<line fill="none" stroke="#000000" stroke-linecap="round" stroke-miterlimit="10" x1="196.804" y1="180.208" x2="198.088" y2="186.661"/>
		</g>
		<g id="pXJDjL.tif_1_">
			<g>
				<path fill="#FFFFFF" d="M212.141,203.272c-0.454,0.448-0.909,0.862-1.324,1.313c-0.848,0.92-1.377,2.002-1.514,3.255
					c-0.18,1.647,0.213,3.146,1.202,4.483c0.557,0.753,1.218,1.382,2.101,1.742c0.102,0.042,0.206,0.078,0.332,0.126
					c-0.117,0.316-0.22,0.627-0.345,0.929c-0.717,1.731-1.647,3.334-2.918,4.722c-0.24,0.262-0.512,0.5-0.79,0.723
					c-0.925,0.744-1.962,1.016-3.122,0.677c-0.685-0.201-1.363-0.427-2.047-0.629c-0.493-0.146-0.996-0.245-1.514-0.258
					c-0.788-0.02-1.516,0.216-2.243,0.484c-0.549,0.202-1.1,0.409-1.666,0.547c-0.794,0.193-1.537-0.016-2.227-0.43
					c-0.721-0.433-1.302-1.02-1.798-1.688c-1.671-2.25-2.852-4.731-3.394-7.49c-0.395-2.01-0.39-4.023,0.185-6.007
					c0.448-1.545,1.243-2.878,2.514-3.892c1.065-0.85,2.291-1.196,3.645-1.128c0.945,0.048,1.85,0.29,2.75,0.56
					c0.353,0.106,0.712,0.189,1.067,0.29c0.625,0.178,1.247,0.174,1.867-0.015c0.71-0.216,1.415-0.448,2.126-0.659
					c1.294-0.383,2.595-0.437,3.896-0.03c1.104,0.345,1.996,1.007,2.762,1.855C211.84,202.924,211.992,203.102,212.141,203.272z"/>
				<path fill="#FFFFFF" d="M201.475,201.088c0.069-3.459,1.803-5.85,5.297-6.549c0.022,0.211,0.067,0.419,0.063,0.627
					c-0.034,1.686-0.671,3.124-1.819,4.344c-0.49,0.52-1.028,0.993-1.709,1.236c-0.411,0.147-0.855,0.202-1.286,0.286
					C201.843,201.067,201.659,201.07,201.475,201.088z"/>
			</g>
		</g>
		<path opacity="0.3" fill="#FFFFFF" d="M109.593,275.248h-0.889c-2.131,0-3.859-1.728-3.859-3.859V144.607
			c0-2.131,1.728-3.859,3.859-3.859h0.889c2.131,0,3.859,1.728,3.859,3.859v126.782C113.452,273.52,111.724,275.248,109.593,275.248
			z"/>
	</g>
	<path clip-path="url(#SVGID_4_)" fill="#F6F6F6" d="M97.44,360.866h-24c-1.105,0-2-0.895-2-2v-38c0-1.105,0.895-2,2-2h24
		c1.105,0,2,0.895,2,2v38C99.44,359.97,98.544,360.866,97.44,360.866z"/>
	<g opacity="0.4" clip-path="url(#SVGID_4_)">
		<path d="M81.895,331.233c-0.553,0-1-0.447-1-1v-3.905c0-0.553,0.447-1,1-1s1,0.447,1,1v3.905
			C82.895,330.786,82.448,331.233,81.895,331.233z"/>
		<path d="M88.983,331.233c-0.553,0-1-0.447-1-1v-3.905c0-0.553,0.447-1,1-1s1,0.447,1,1v3.905
			C89.983,330.786,89.536,331.233,88.983,331.233z"/>
		<path d="M86.315,336.949h-1.75c-0.276,0-0.5-0.224-0.5-0.5v-0.875c0-0.759,0.616-1.375,1.375-1.375l0,0
			c0.759,0,1.375,0.616,1.375,1.375v0.875C86.815,336.725,86.591,336.949,86.315,336.949z"/>
	</g>
	
		<line clip-path="url(#SVGID_4_)" fill="none" stroke="#D8DEE4" stroke-width="4" stroke-miterlimit="10" x1="85.44" y1="356.334" x2="85.44" y2="399.699"/>
	<rect x="83.44" y="347.334" clip-path="url(#SVGID_4_)" fill="#B9C1C9" width="4" height="10.532"/>
	<path clip-path="url(#SVGID_4_)" fill="#CAD3DC" d="M87.684,353.574h-4.488c-3.446,0-6.24-2.794-6.24-6.24v0
		c0-3.446,2.794-6.24,6.24-6.24h4.488c3.446,0,6.24,2.794,6.24,6.24v0C93.924,350.78,91.13,353.574,87.684,353.574z"/>
	<path clip-path="url(#SVGID_4_)" fill="#DFE3E8" d="M88.258,269.062H27.357c0.729,3.21,0.565,6.571-0.519,9.706h57.177
		c3.195,0,5.784-2.59,5.784-5.784C89.799,271.468,89.212,270.093,88.258,269.062z"/>
	<path clip-path="url(#SVGID_4_)" fill="#CFD6DF" d="M84.015,267.199H26.838c0.212,0.613,0.376,1.236,0.519,1.863h60.902
		C87.202,267.919,85.694,267.199,84.015,267.199z"/>
	<g clip-path="url(#SVGID_4_)">
		<rect x="19.758" y="261.699" fill="#414042" width="15.333" height="3.447"/>
		<path fill="#9D9FA2" d="M35.091,261.699h33.996c0.276,0,0.5,0.224,0.5,0.5v2.447c0,0.276-0.224,0.5-0.5,0.5H35.091V261.699z"/>
		<path fill="#414042" d="M70.674,262.116h-1.088v2.613h1.088c0.276,0,0.5-0.224,0.5-0.5v-1.613
			C71.174,262.34,70.95,262.116,70.674,262.116z"/>
		
			<line opacity="0.5" fill="none" stroke="#414042" stroke-linecap="round" stroke-miterlimit="10" x1="39.339" y1="263.422" x2="46.424" y2="263.422"/>
	</g>
</g>
</svg>
